<svg width="1577" height="10" viewBox="0 0 1577 10" fill="none" xmlns="http://www.w3.org/2000/svg">
<path d="M122.022 9.92013C122.997 9.90745 126.922 9.9383 128.621 9.93295C126.695 10.0671 118.502 9.96619 122.022 9.92013ZM296.299 0.179163C294.89 0.212327 293.48 0.245491 292.07 0.278654C296.076 0.300203 301.461 0.275861 305.178 0.307342C305.786 0.312628 304.209 0.408649 305.648 0.412937C307.087 0.417197 306.809 0.285976 308.902 0.27194C311.25 0.256595 322 0.348013 325.722 0.345795C339.646 0.336937 353.689 0.261999 367.64 0.316497C353.237 0.413579 367.751 0.512384 371.785 0.470312C372.679 0.46057 372.536 0.216619 386.987 0.278044C396.171 0.317023 387.689 0.665784 403.013 0.491065C391.229 0.247081 402.818 0.264181 412.055 0.25607C413.648 0.254633 426.509 0.29129 432.19 0.280485C434.134 0.276727 437.095 0.148945 439.674 0.145592C441.448 0.14338 442.79 0.213239 445.425 0.209682C457.707 0.193935 469.787 0.188504 482.091 0.212123C474.901 0.540492 487.735 0.35207 488.311 0.367769C491.243 0.456923 477.985 0.482301 483.228 0.538063C490.555 0.52789 497.882 0.517717 505.21 0.507545C499.196 0.467227 513.171 0.231027 515.743 0.338471C514.611 0.0483117 549.139 0.591014 554.395 0.494116C555.489 0.473649 548.324 0.330242 564.946 0.395846C566.747 0.403135 566.066 0.49068 567.01 0.482519C567.575 0.477612 570.998 0.199363 574.644 0.35312C575.976 0.409239 567.457 0.591987 586.164 0.518531C578.714 0.235329 612.104 0.36516 618.246 0.436131C617.019 0.398084 615.792 0.360037 614.565 0.32199C620.637 0.424627 621.733 0.32834 623.101 0.333588C628.614 0.354664 636.194 0.4517 641.329 0.442845C647.339 0.432657 647.359 0.256532 654.365 0.325043C652.703 0.286182 651.041 0.247322 649.378 0.208461C654.217 0.21782 659.055 0.227179 663.894 0.236538C652.689 0.469678 666.312 0.247661 667.209 0.242642C668.641 0.234157 666.584 0.329603 668.978 0.317718C669.225 0.315762 668.867 0.22588 672.557 0.215786C680.266 0.195001 679.048 0.308009 682.285 0.306731C682.581 0.306149 681.543 0.225175 687.133 0.206019C704.901 0.145037 687.045 0.268072 686.363 0.279264C685.468 0.294026 691.56 0.632415 676.467 0.512427C681.535 0.550626 682.045 0.700368 682.615 0.704085C683.121 0.707141 691.901 0.686049 692.385 0.680891C696.701 0.630042 692.903 0.527713 693.745 0.509376C694.433 0.494593 705.011 0.627947 707.491 0.320159C712.552 0.604057 704.578 0.578047 696.091 0.621685C694.852 0.679942 704.173 0.73659 704.663 0.736435C716.686 0.735917 710.03 0.502394 712.658 0.35312C714.039 0.275016 718.937 0.434333 714.415 0.224941C725.327 0.202838 718.709 0.324176 719.414 0.342133C720.478 0.368515 724.296 0.308503 724.774 0.316497C725.475 0.328331 723.037 0.400829 725.803 0.426365C726.263 0.430078 730.719 0.305324 724.973 0.245694C732.65 0.263429 732.018 0.157051 734.622 0.371431C739.91 -0.0341506 738.459 0.611167 740.541 0.633892C746.079 0.693796 744.472 0.375362 744.765 0.359834C746.779 0.260325 762.108 0.369714 765.904 0.323822C764.406 0.553177 753.752 0.326326 751.37 0.370821C743.428 0.518853 762.564 0.48549 756.796 0.773668C759.214 0.694523 761.633 0.615377 764.051 0.536232C768.485 0.721519 762.195 0.802313 774.128 0.734604C776.079 0.574677 765.691 0.759864 767.775 0.633892C769.003 0.55996 775.923 0.544081 776.059 0.505103C776.195 0.458184 769.942 0.513789 770.927 0.441624C773.079 0.285892 795.889 0.434148 778.525 0.519142C783.368 0.51648 785.864 0.826235 790.063 0.729721C792.779 0.667075 777.5 0.239268 800.423 0.317718C800.911 0.463986 791.258 0.36091 791.008 0.372041C790.655 0.388245 792.402 0.718312 792.704 0.734604C793.773 0.788243 817.181 0.611499 822.128 0.77733C820.17 0.586564 839.815 0.743289 841.956 0.685163C842.525 0.669116 840.396 0.552263 841.005 0.539895C844.804 0.466281 855.08 0.674876 859.847 0.680281C865.181 0.686405 864.505 0.585482 864.804 0.585672C867.151 0.591302 865.276 0.65972 866.711 0.659528C868.878 0.6592 883.776 0.673193 884.523 0.658917C884.742 0.654469 882.31 0.53918 885.558 0.517311C886.121 0.513522 885.764 0.650209 895.382 0.591166C906.965 0.520153 887.339 0.421186 892.151 0.278044C899.591 0.481856 899.35 0.279886 901.368 0.295744C902.066 0.301521 907.265 0.47324 912.912 0.462377C908.859 0.490251 904.807 0.518125 900.754 0.545998C904.738 0.576108 912.475 0.538839 915.757 0.572855C917.358 0.589412 916.039 0.73048 919.517 0.726669C920.256 0.725092 923.185 0.381409 914.073 0.535622C913.345 0.412903 917.68 0.492816 919.692 0.458104C919.996 0.452695 921.196 0.24768 923.764 0.375093C924.381 0.406441 917.666 1.00449 934.984 0.571634C935.542 0.557683 933.602 0.482786 934.148 0.46726C934.52 0.456745 938.941 0.487041 939.43 0.476416C939.929 0.465014 937.794 0.383247 938.389 0.367158C941.438 0.284252 945.44 0.608551 939.153 0.583841C941.254 0.623923 943.356 0.664004 945.457 0.704085C943.208 0.459671 948.758 0.635316 951.666 0.627789C970.301 0.579682 957.822 0.420718 961.026 0.338471C966.18 0.206414 962.244 0.624679 969.894 0.498999C970.601 0.487249 961.354 0.309702 979.41 0.409884C976.745 0.416802 974.081 0.42372 971.416 0.430637C972.952 0.66704 981.039 0.414421 981.66 0.411105C988.751 0.378646 983.958 0.463869 994.486 0.342133C995.427 0.331203 997.475 0.389546 999.485 0.360444C1007.82 0.240548 988.487 0.287689 987.959 0.191981C987.708 0.145084 1008.5 0.156895 1009.21 0.179163C1012.24 0.277873 999.788 0.22264 1002.16 0.345185C1003.03 0.388697 1032.66 0.299329 1038.61 0.347016C1045.47 0.402508 1048.55 0.723025 1048.6 0.362886C1050.53 0.716394 1052.24 0.475202 1053.12 0.477636C1063.73 0.510361 1063.75 0.513928 1072.85 0.480078C1074.86 0.47272 1076.55 0.579979 1077.26 0.561868C1077.68 0.550929 1076.9 0.436145 1078.93 0.400729C1081.74 0.352279 1098.66 0.470339 1099.91 0.533791C1101.17 0.597243 1092.77 0.561308 1094.28 0.665632C1100.36 0.676178 1106.19 0.650365 1112.31 0.661359C1114.85 0.666239 1113.54 0.739255 1114.64 0.740708C1115.11 0.741605 1123.88 0.677305 1123.51 0.650372C1122.64 0.587743 1095.54 0.629842 1102.67 0.502051C1104.05 0.477359 1108.92 0.64562 1108.14 0.441014C1132.36 0.487402 1156.57 0.533791 1180.79 0.580179C1166.88 0.733215 1151.22 0.596349 1136.65 0.610698C1134.65 0.612469 1127.9 0.592735 1128.72 0.69615C1141.11 0.722924 1156.52 0.669041 1168.41 0.736435C1168.8 0.738665 1167.4 0.831579 1168.82 0.846303C1171.49 0.873784 1180.17 0.723931 1181.63 0.762681C1181.88 0.771708 1176.94 0.894197 1178.44 0.97204C1182.3 1.1718 1183.28 0.729362 1186.59 0.734604C1189.16 0.738846 1206.39 0.952773 1210.68 0.817615C1215.25 0.673553 1197.98 0.733979 1199.26 0.616191C1210.94 0.497821 1222.76 0.624223 1233.8 0.609477C1233.99 0.609101 1232.31 0.516797 1234.77 0.503882C1239.05 0.481407 1240.18 0.612336 1242.26 0.633282C1244.51 0.655579 1252.47 0.636816 1253.53 0.684553C1253.67 0.690813 1252.06 0.820678 1251.81 0.824329C1248.35 0.877852 1247.12 0.709301 1246.8 0.707137C1245.62 0.700746 1244.45 0.765306 1243.37 0.76146C1241.59 0.755049 1240.61 0.69532 1238.26 0.690047C1236.64 0.686187 1238.21 0.800886 1236.65 0.795641C1236.07 0.793252 1229.89 0.531344 1229.31 0.798693C1229.13 0.882988 1279.7 0.991237 1284.75 0.92382C1280.42 0.891674 1276.08 0.859527 1271.75 0.827381C1280.55 0.905632 1291.13 0.692017 1291.88 1.00805C1324.52 1.03389 1357.17 1.05973 1389.82 1.08557C1395.65 1.11249 1392.45 1.31558 1402.04 1.25647C1399.57 1.19177 1397.09 1.12707 1394.61 1.06238C1399.52 1.10776 1421.31 1.19644 1424.83 1.15454C1425.29 1.14905 1425.92 0.965247 1431.36 0.949456C1436.19 0.935512 1436.97 1.07323 1439.55 1.09961C1441.72 1.12137 1444.16 1.08529 1444.8 1.09289C1445.29 1.09898 1445.49 1.18319 1446.68 1.19788C1450.43 1.24328 1447.39 1.00617 1451.11 1.27845C1450.2 1.28882 1449.3 1.2992 1448.39 1.30958C1452.92 1.34899 1459.1 1.4726 1452.43 1.53358C1451.29 1.54411 1452.27 1.46264 1451.42 1.46278C1417.94 1.47792 1444.67 1.6363 1456.4 1.50978C1459.42 1.6305 1476.3 1.55679 1476.86 1.58058C1477.64 1.61504 1474.75 1.71152 1478.54 1.79482C1479.34 1.81246 1501.91 1.74486 1493.78 1.9053C1492.11 1.9384 1481.28 1.90363 1478.67 1.90835C1484.81 2.16422 1499.2 1.79764 1500.82 1.80703C1507.35 1.84691 1488.28 2.02878 1502.99 2.05851C1514.3 2.08132 1503.68 1.91048 1508.03 1.83755C1510.47 1.79663 1523.27 1.98484 1522.93 1.74111C1527.32 1.71508 1524.75 1.84414 1525.29 1.85342C1525.82 1.86158 1534.46 1.78862 1537.26 1.83999C1537.6 1.84638 1536.53 1.97307 1536.88 1.98343C1537.57 2.00118 1545.9 1.97585 1546.23 1.96512C1546.44 1.95766 1544.46 1.84675 1545.27 1.81985C1546.23 1.78883 1554.24 1.81493 1554.68 1.78323C1555.31 1.73529 1545.41 1.76687 1547.06 1.64284C1551.62 1.67407 1559.05 1.59132 1562.06 1.49147C1561.33 1.52002 1556.9 1.52412 1555.37 1.51405C1556.09 1.3324 1565.59 1.33488 1562.34 1.47865C1564.4 1.40144 1563 1.36047 1564.16 1.2876C1564.46 1.26915 1567.39 1.26534 1567.96 1.23389C1568.03 1.22762 1565.01 1.15909 1565.61 1.12219C1566.71 1.05552 1575.6 1.07052 1576.33 1.08801C1578.37 1.13758 1571.13 1.19755 1570.52 1.27418C1570.44 1.28594 1576.6 1.43609 1576.69 1.44935C1577.06 1.59163 1570.2 1.4891 1570.98 1.61721C1572.68 1.64427 1574.37 1.67133 1576.07 1.69839C1569.53 1.82811 1557.42 1.76141 1554.3 1.90896C1564 1.86505 1574.15 1.87025 1574.13 2.20256C1574.13 2.34251 1569.94 2.42455 1570.1 2.46013C1570.72 2.58746 1576.53 2.44914 1576.74 2.45586C1576.92 2.46362 1577 2.47118 1577 2.47853C1577 2.47853 1577 2.47853 1577 2.47854C1577 2.55309 1568.72 2.60677 1568.3 2.6408C1567.61 2.70127 1571.29 2.95015 1571.29 3.0052C1571.16 3.01626 1565.26 3.07515 1567.25 3.17122C1569.26 3.26825 1574.43 3.27039 1574.61 3.28048C1575.59 3.33852 1566.56 3.39147 1566.29 3.42575C1566.15 3.44308 1571 3.54956 1571.14 3.58017C1571.26 3.61089 1567.58 3.67792 1566.12 3.77488C1565.04 3.84692 1568.2 3.90214 1567.64 3.91344C1567.24 3.92092 1558.71 3.91969 1558.29 3.93236C1557.67 3.95109 1559.67 4.03718 1559.38 4.0587C1558.96 4.08967 1556.21 4.05859 1556.57 4.09044C1556.84 4.11418 1567.52 4.41096 1567.45 4.49024C1567.33 4.62545 1556.01 4.31435 1566.54 4.84792C1566.61 4.85142 1569.18 4.8135 1569.25 4.81679C1570.83 4.91496 1562.61 5.06597 1572.66 5.03958C1553.97 5.21008 1570.33 5.24283 1567.57 5.4705C1566.5 5.55801 1559.26 5.59409 1559.22 5.60723C1559.93 5.71824 1562.24 5.63214 1563.02 5.68657C1563.45 5.71699 1556.97 5.83437 1558.43 5.91058C1559.18 5.94986 1566.06 5.93588 1566.35 5.94354C1569.07 6.0158 1565.73 6.09364 1566.33 6.14497C1566.73 6.17938 1570.88 6.1821 1570.99 6.1883C1571.16 6.20119 1565.52 6.34024 1564.35 6.38912C1563.46 6.42672 1566.81 6.48564 1566.18 6.50203C1562.43 6.60007 1554.45 6.35003 1562.14 6.70041C1562.61 6.72189 1565.52 6.71321 1565.61 6.7175C1567.41 6.81682 1562.05 6.82541 1561.09 6.90671C1559.44 7.04682 1567.14 6.96871 1560.74 7.06724C1565.54 7.15887 1568.22 7.15504 1573.84 7.1295C1558.28 7.20075 1552.78 7.56345 1570.07 7.55432C1564.57 7.54867 1565.18 7.75337 1563.54 7.75697C1562.52 7.75896 1554.55 7.55544 1558.2 8.0121C1558.66 8.06915 1563.5 7.99667 1561.99 8.11342C1550.37 8.08363 1561.74 8.18771 1561.75 8.20315C1561.6 8.47215 1533.21 8.25182 1528.33 8.2825C1522.67 8.31807 1517.64 8.53004 1516.4 8.53031C1512.36 8.5304 1515.72 8.42278 1514.81 8.38321C1513.89 8.344 1502.38 8.55018 1501.8 8.53886C1499.57 8.49337 1501.84 8.36584 1501.61 8.35941C1498.84 8.28126 1483.38 8.38112 1479.05 8.35147C1479.19 8.4342 1487.88 8.44077 1482.45 8.57365C1476.13 8.72857 1475.77 8.36386 1475.61 8.34781C1446.65 8.35127 1417.7 8.35473 1388.75 8.35818C1389.11 8.55222 1408.04 8.40589 1408.47 8.43143C1411 8.58268 1379.02 8.5799 1375.1 8.51139C1378.08 8.5533 1381.06 8.59521 1384.04 8.63713C1378.95 8.8602 1367.69 8.57038 1360.33 8.66886C1357.95 8.70079 1362.52 8.78689 1362.42 8.79277C1359.75 8.87941 1355.46 8.81266 1358.67 8.69633C1352.15 8.80779 1353.1 8.68481 1348.09 8.67558C1347.84 8.67519 1349.99 8.76521 1346.03 8.80254C1344.17 8.81995 1334.27 8.82024 1332.95 8.89898C1332.4 8.93213 1337.42 9.28122 1338.04 8.98077C1348.81 9.12723 1341.48 8.84385 1345.66 8.85076C1346.31 8.85233 1344.83 9.02004 1355.36 8.94109C1353.36 9.24352 1341.23 9.01737 1339.15 9.05401C1334.86 9.12931 1352.53 9.28549 1355.77 9.04974C1354.26 9.28574 1357.02 9.08154 1360.96 9.09124C1365.27 9.10177 1363.39 9.17204 1365.73 9.17242C1372.11 9.17418 1369.46 9.00759 1374.72 9.15777C1369.59 8.69284 1383.72 9.09643 1387.84 9.2182C1381.14 9.2418 1374.44 9.2654 1367.74 9.28901C1368.12 9.31342 1368.51 9.33784 1368.89 9.36225C1367.13 9.35879 1365.36 9.35533 1363.6 9.35187C1363.88 9.32848 1364.16 9.30508 1364.45 9.28168C1355.35 9.43381 1353.13 9.26283 1352.38 9.26093C1342.83 9.24109 1331.8 9.24257 1322.14 9.24201C1320.69 9.24192 1321.69 9.3941 1311.13 9.27497C1307.76 9.23703 1310.94 9.11865 1307.12 9.13641C1302.34 9.4581 1302.44 9.20152 1301.01 9.20111C1296.94 9.20115 1294.45 9.28084 1294.07 9.28168C1289.04 9.29412 1281.66 9.28081 1276.13 9.29267C1276.03 9.29388 1278.91 9.39271 1275.32 9.36347C1274.05 9.35303 1262.74 8.93114 1252.85 9.06866C1255.42 9.09714 1257.99 9.12563 1260.56 9.15411C1257.54 9.11431 1236.34 9.22063 1241.52 9.33356C1244.7 9.40259 1252.46 9.13065 1253.31 9.39216C1246.26 9.31389 1207.3 9.43095 1204.26 9.37019C1203.84 9.36151 1206.42 9.27666 1205.84 9.26581C1205.4 9.25754 1196.47 9.27765 1195.29 9.24506C1194.58 9.2257 1198.53 9.17369 1198.2 9.14313C1197.92 9.12133 1186.78 9.085 1186.14 9.19135C1188.88 9.14866 1196.57 9.18593 1192.54 9.27558C1192.02 9.28671 1189.33 9.21812 1188.7 9.23224C1182.85 9.36255 1200.33 9.33127 1203.04 9.33234C1192.06 9.46783 1175.07 9.30811 1162.35 9.39643C1157.21 9.30791 1169.97 9.26102 1164.16 9.18768C1152.09 9.03567 1160.95 9.31009 1160.57 9.32136C1157.57 9.41066 1147.36 8.93205 1147.36 9.29633C1142.98 9.24149 1144.4 9.19557 1138.23 9.24323C1139.04 9.26846 1139.85 9.29368 1140.66 9.31891C1133.81 9.52992 1119.3 8.99757 1120.39 8.95696C1123.31 8.84828 1130.87 9.01781 1131.51 9.01373C1132.47 9.0077 1135.11 8.63805 1145.56 8.96856C1149.84 8.72064 1129 8.80123 1138.48 8.63224C1132.07 8.65997 1105.72 8.48741 1101.93 8.59623C1101.48 8.61044 1103.58 8.85746 1097.07 8.73173C1093.98 8.67186 1101.44 8.66899 1100.02 8.61271C1095.67 8.44 1036.48 8.55048 1025.24 8.55961C1024.51 8.55988 1024.78 8.48322 1024.06 8.48392C1021.86 8.48606 1013.83 8.60039 1009.89 8.5651C1018.05 8.70701 1002.19 8.71805 998.156 8.70244C992.031 8.67866 992.41 8.54374 989.764 8.51505C979.565 8.40446 963.763 8.72478 955.841 8.42533C956.274 8.72253 942.137 8.27961 935.706 8.277C930.668 8.27487 923.36 8.47155 930.159 8.59135C921.463 8.57766 912.31 8.63311 904.153 8.65116C902.805 8.65419 904.661 8.56631 902.36 8.57426C902.151 8.57561 901.863 8.66174 899.888 8.6707C883.58 8.74577 891.515 8.56275 888.464 8.50895C886.756 8.47882 885.496 8.46384 884.571 8.4589C894.077 8.44206 905.041 8.40824 907.973 8.40579C905.472 8.21561 886.905 8.44232 881.467 8.39114C881.279 8.38928 881.935 8.28446 881.744 8.28372C881.74 8.28372 881.736 8.28372 881.732 8.28372C879.694 8.27569 866.716 8.31437 869.388 8.43936C870.105 8.47276 876.079 8.47269 883.164 8.46134C881.246 8.48478 882.678 8.60221 882.34 8.60722C878.236 8.66526 868.183 8.55065 864.617 8.53519C863.802 8.5318 863.86 8.60704 863.727 8.60722C860.483 8.59013 861.814 8.37531 858.487 8.59684C852.614 8.32912 869.494 8.55709 868.305 8.38321C867.391 8.24934 829.896 8.32124 830.008 8.53214C829.879 8.50958 829.363 8.48159 828.306 8.44974C825.961 8.37897 815.525 8.40111 813.724 8.43997C813.419 8.44762 813.541 8.65233 813.164 8.65422C812.221 8.65892 799.466 8.49843 794.702 8.61942C797.274 8.64811 799.847 8.6768 802.42 8.70549C786.883 8.70726 789.284 8.76819 794.461 8.82939C794.72 8.82995 794.972 8.83772 795.219 8.83855C799.231 8.88381 804.375 8.92739 804.453 8.94353C804.747 9.00515 778.388 9.03944 783.458 8.84954C784.165 8.82358 796.361 8.90814 790.322 8.77263C789.265 8.74889 781.433 8.78757 781.022 8.77263C778.269 8.67333 795.372 8.5414 793.282 8.4003C789.131 8.53464 783.803 8.46389 779.043 8.49857C776.876 8.51425 776.344 8.61688 776.077 8.61881C772.082 8.64561 774.324 8.538 772.991 8.54069C772.275 8.54254 764.404 8.77156 765.892 8.45584C739.958 8.68809 758.718 8.68786 774.627 8.67009C769.6 8.78507 759.745 8.72946 755.322 8.75615C753.736 8.76584 754.676 8.87119 751.996 8.89226C746.479 8.9356 720.14 8.81459 713.278 8.78606C717.492 8.74883 716.26 8.63408 713.007 8.64201C709.754 8.64999 712.487 8.80316 711.852 8.81963C711.172 8.83668 695.911 8.76438 693.372 8.78423C704.861 8.72875 702.269 8.61431 692.517 8.60233C693.927 8.56937 695.337 8.53641 696.747 8.50345C691.031 8.54977 679.014 8.3752 675.709 8.42716C675.191 8.43551 677.053 8.53172 676.762 8.53641C673.864 8.5773 664.004 8.47917 663.545 8.512C663.156 8.53933 667.362 8.62 665.801 8.65971C665.475 8.66807 661.421 8.53801 657.427 8.56998C655.946 8.58175 656.838 8.67274 656.465 8.67802C653.354 8.72179 655.19 8.56855 649.504 8.59318C645.339 8.6114 642.237 8.76121 636.48 8.71159C655.381 8.90256 639.492 8.8228 631.589 8.88066C630.323 8.8899 631.408 9.05509 623.841 8.97466C639.946 8.67596 619.25 8.81678 615.016 8.81352C614.784 8.81251 614.704 8.70357 612.628 8.70183C612.452 8.70192 612.704 8.77554 610.775 8.78117C592.473 8.8344 604.175 8.75123 600.698 8.67863C599.218 8.6477 590.318 8.7518 587.921 8.75432C587.369 8.75458 587.623 8.67808 585.49 8.68107C581.718 8.68657 578.337 8.768 575.847 8.77446C575.556 8.77484 575.545 8.65413 570.824 8.69328C569.496 8.70422 568.007 8.74708 569.891 8.78178C576.143 8.89592 588.002 8.69838 595.068 8.8123C601.511 8.91605 581.193 8.92584 580.136 8.92644C579.748 8.92682 583.717 8.86689 579.685 8.85503C576.243 8.84516 569.951 9.05363 564.82 9.00823C564.429 9.00486 560.33 8.8281 560.519 8.8178C560.69 8.81027 566.986 8.7719 566.071 8.72075C565.962 8.71492 561.962 8.71611 561.439 8.67802C560.8 8.63166 559.075 8.17671 558.221 8.16531C556.028 8.13712 557.455 8.24089 556.037 8.23367C552.996 8.21845 542.448 8.08391 542.104 8.2416C543.847 8.25096 545.59 8.26032 547.332 8.26968C537.637 8.2859 541.77 8.35302 540.396 8.3826C538.917 8.41459 539.333 8.27599 536.065 8.26297C535.354 8.2601 521.679 8.28904 521.928 8.3472C529.49 8.25463 526.686 8.42593 527.035 8.42899C528.36 8.44015 530.052 8.34406 531.83 8.34598C544.332 8.36101 531.723 8.51267 534.675 8.55167C535.691 8.5648 537.715 8.48278 538.146 8.48697C539.547 8.50056 539.57 8.60797 540.504 8.59928C542.685 8.57912 540.139 8.42713 540.312 8.41922C542.26 8.32411 549.896 8.44245 545.143 8.60783C547.996 8.66743 548.33 8.46644 550.593 8.54679C555.091 8.7059 548.352 8.66503 546.526 8.69145C539.976 8.78675 538.033 8.70961 528.761 8.73601C525.423 8.74532 521.467 8.84296 519.918 8.84832C518.942 8.85169 509.728 8.51199 509.457 9.04363C505.875 8.99219 500.255 8.64186 496.565 8.65788C493.252 8.67249 494.305 8.86057 493.996 8.86785C493.522 8.87928 489.516 8.86446 488.161 8.89104C486.573 8.92244 487.366 8.99423 484.846 9.02349C478.577 9.09611 478.741 8.90413 478.096 8.89165C470.615 8.74744 473.891 9.02051 472.231 9.04241C470.687 9.06254 449.032 8.95744 444.474 9.02654C446.329 8.98809 448.184 8.94964 450.039 8.91118C446.719 8.79144 443.201 8.98675 443.139 8.77202C442.465 9.1187 435.614 8.88697 433.556 8.89592C432.744 8.89961 432.808 8.95869 431.793 8.96123C427.827 8.97159 418.886 8.92457 416.735 8.95452C407.433 9.08349 431.219 9.29802 433.092 9.31098C429.344 9.30715 408.136 9.3848 417.884 9.55147C419.391 9.57718 422.061 9.42204 422.908 9.41596C428.636 9.37602 424.131 9.51505 424.58 9.52827C425.344 9.54962 429.114 9.41521 430.108 9.43122C430.44 9.43635 428.303 9.56225 433.766 9.5649C431.079 9.68694 415.724 9.58751 413.709 9.61617C412.992 9.6264 417.49 9.88719 404.349 9.63387C404.501 9.65808 404.654 9.68229 404.806 9.7065C397.489 9.71647 390.172 9.72644 382.854 9.73641C383.65 9.68063 387.758 9.56859 382.584 9.59236C379.605 9.60612 381.809 9.73036 381.537 9.73397C378.864 9.76817 331.547 9.72682 322.378 9.74068C319.258 9.74518 310.564 9.84503 309.901 9.84689C305.937 9.85688 291.899 9.79189 289.098 9.80599C287.35 9.81504 289.012 9.9189 287.45 9.91403C285.998 9.90936 287.502 9.80897 287.071 9.80477C283.499 9.7684 256.361 9.90006 249.917 9.80538C253.856 9.83381 273.509 9.63324 273.114 9.56245C273.029 9.55275 268.252 9.47638 267.267 9.51362C265.639 9.42671 260.05 9.69134 257.01 9.63936C256.666 9.63346 258.02 9.48502 252.594 9.45808C250.725 9.44887 245.831 9.56458 240.906 9.43489C233.775 9.4972 196.284 9.3047 193.712 9.46418C193.636 9.4726 198.915 9.52752 195.348 9.59297C190.606 9.67997 194.865 9.38692 189.338 9.36164C188.506 9.35779 173.13 9.38745 172.627 9.40559C167.97 9.57006 181.405 9.63673 181.217 9.65584C180.749 9.70399 169.585 9.73311 169.131 9.72176C168.699 9.70995 177.804 9.49202 166.863 9.57466C168.117 9.6007 169.37 9.62675 170.623 9.65279C165.478 9.70351 164.988 9.55274 163.741 9.54353C159.866 9.51437 155.674 9.74338 149.466 9.46052C147.824 9.38545 150.549 9.30209 150.344 9.29084C148.372 9.1898 145.856 9.46008 142.89 9.25849C142.667 9.24345 149.568 9.12268 137.506 9.12237C138.337 9.1417 139.167 9.16103 139.997 9.18036C138.296 9.22351 126.083 9.24916 124.44 9.23896C119.64 9.20914 123.826 9.07039 119.002 9.08697C122.096 9.27712 107.426 9.30194 108.27 9.13824C106.221 9.34383 93.7584 9.18524 87.9001 9.18036C84.2037 9.17743 76.6639 9.26715 75.4895 9.25666C74.0588 9.2438 74.4935 9.10355 71.9101 9.07232C71.1734 9.06342 63.4828 9.16623 56.7323 9.02105C55.424 8.99308 52.6764 8.75518 55.108 8.69572C59.2701 8.59398 67.1438 8.78563 67.0433 8.64506C66.9253 8.49468 56.3202 8.58412 53.4657 8.56449C40.2873 8.47372 47.8971 8.31386 47.5582 8.26541C46.6793 8.14781 39.4786 8.15146 39.1782 8.14089C37.9329 8.09393 43.0355 8.00086 43.1125 7.92909C43.2055 7.83564 36.2648 7.667 37.8427 7.6355C40.1013 7.59077 46.4799 7.73133 46.8844 7.72462C52.1488 7.63396 44.9328 7.41807 42.9441 7.312C42.3412 7.27937 44.7433 7.22574 44.2435 7.21617C36.6133 7.07095 42.635 7.51959 37.5599 7.48962C33.0319 7.46291 38.8578 7.32104 38.6849 7.31322C38.4613 7.30463 33.0474 7.29689 32.1998 7.24669C31.7822 7.22156 45.8538 6.9456 45.2661 6.82187C40.7764 6.84913 36.2866 6.8764 31.7968 6.90366C31.4448 6.74233 37.9026 6.86109 38.5706 6.84445C39.9152 6.81108 36.1657 6.72944 36.3267 6.67843C36.413 6.64599 40.8137 6.53022 36.838 6.4825C35.4717 6.46602 32.6043 6.57914 27.6278 6.46358C44.9464 6.31599 32.9449 6.22531 32.4345 6.16816C31.9344 6.11102 40.2024 5.97652 30.1665 6.00031C29.7314 5.68635 30.3828 5.90106 33.2346 5.84588C36.728 5.77805 28.654 5.67467 41.4221 5.7531C40.6957 5.60611 30.4331 5.61651 29.8898 5.60478C29.4206 5.59415 31.7018 5.52185 30.8884 5.49736C21.2676 5.21333 27.8756 5.34303 25.0892 5.16165C24.8414 5.14544 15.7481 5.0782 22.6708 5.05178C35.2829 5.00376 40.5539 5.21206 42.6733 4.76674C33.3446 4.5733 22.0415 4.86075 19.2057 4.86562C14.8652 4.87264 19.3616 4.78182 18.8267 4.75636C18.641 4.74814 14.9005 4.75564 14.8503 4.74843C12.1832 4.40878 31.5018 4.74279 37.584 4.68373C35.9537 4.63286 34.3234 4.582 32.6931 4.53113C34.9049 4.5291 37.1168 4.52707 39.3286 4.52503C28.7915 4.42278 38.9571 4.48632 41.5845 4.2113C42.1743 4.1495 35.2519 4.25548 43.1486 4.08373C37.3244 4.04408 39.1821 3.98789 33.9083 4.06542C34.0444 3.95518 45.9101 3.83083 50.5901 3.77427C34.0566 3.65039 43.4851 4.05473 29.1919 3.8408C26.5414 3.9773 33.3638 3.95072 32.8074 3.97325C30.8115 4.05426 26.1324 3.92563 20.4871 4.20947C19.5679 4.25607 23.4574 4.39951 17.7018 4.39258C17.0652 4.3916 13.3978 4.26902 13.4486 4.26013C13.9348 4.16412 17.564 4.2001 17.7138 4.16003C17.8544 4.12209 13.8055 4.14491 13.7915 4.13439C13.6671 4.01412 17.1698 4.08842 16.6611 4.05077C15.5624 3.96888 0.998445 3.71006 20.0058 3.78587C4.21817 3.92185 17.9845 3.91867 24.1327 3.86644C25.7005 3.85334 26.0976 3.7815 28.3317 3.75657C31.2054 3.72428 34.569 3.75877 36.056 3.74558C37.6553 3.73105 28.5682 3.56124 41.7108 3.61191C35.0221 3.443 23.2074 3.62308 16.637 3.50448C3.38103 3.26482 25.8796 3.21337 28.2234 3.19014C28.8478 3.18385 26.7544 3.08683 27.1706 3.08088C27.8513 3.07177 40.6202 3.11662 41.8793 3.03633C43.1349 2.95611 37.2023 3.04002 36.8079 2.95637C36.5406 2.90005 51.9444 2.80015 43.6058 2.76166C37.8585 2.73527 27.2646 2.96163 25.4802 2.71832C33.9324 2.69818 42.3846 2.67804 50.8368 2.65789C46.2106 2.56532 41.5845 2.47275 36.9583 2.38017C46.445 2.35082 54.6463 2.45533 63.6564 2.3228C42.0054 2.02616 70.6863 2.08606 71.0017 2.04996C71.1072 2.02837 62.5852 1.78759 61.214 1.74355C68.7655 1.65093 91.7116 1.60566 78.2868 1.30836C80.7235 1.37549 86.6244 1.20978 86.5465 1.19727C85.7972 1.06592 72.9272 1.15109 75.0263 1.03247C77.4587 0.894802 80.8673 1.08156 84.6094 1.06665C103.812 0.988894 98.5439 0.303216 117.799 0.411716C117.416 0.3873 117.033 0.362886 116.65 0.338471C137.579 0.377331 158.507 0.416192 179.436 0.455052C187.625 0.245659 209.418 0.118153 220.121 0.14132C222.277 0.145832 232.858 0.255726 233.657 0.274992C235.135 0.311916 227.005 0.326005 230.679 0.395236C231.455 0.409446 249.37 0.455621 248.089 0.338471C246.081 0.324888 239.798 0.383776 238.77 0.356172C231.547 0.159144 286.777 0.316548 289.513 0.237149C288.29 0.199102 287.067 0.161055 285.844 0.123008C289.329 0.141726 292.814 0.160445 296.299 0.179163ZM136.153 9.58809C134.061 9.70564 128.819 9.61735 125.721 9.65035C121.442 9.69655 114.167 10.1492 117.299 9.69552C123.584 9.65971 129.868 9.6239 136.153 9.58809ZM228.002 9.76327C223.788 9.70013 227.056 9.44674 230.51 9.55208C230.894 9.56405 233.704 9.84825 228.002 9.76327ZM183.822 9.64302C183.999 9.63967 187.641 9.64637 187.768 9.65035C191.034 9.75208 180.054 9.73129 183.822 9.64302ZM397.244 9.51301C392.601 9.52395 395.963 9.7543 398.85 9.6595C399.032 9.65348 397.55 9.51248 397.244 9.51301ZM393.942 9.50691C390.335 9.30064 383.072 9.71869 388.846 9.67659C389.406 9.67234 394.108 9.51695 393.942 9.50691ZM212.98 9.66255C213.455 9.5835 217.802 9.62167 219.658 9.64058C219.607 9.71276 214.801 9.65372 212.98 9.66255ZM323.196 9.64058C323.38 9.57843 308.271 9.58186 307.242 9.66378C309.626 9.62902 323.022 9.69643 323.196 9.64058ZM361.944 9.5533C361.561 9.54255 356.341 9.55889 356.493 9.61373C359.041 9.68566 363.668 9.60193 361.944 9.5533ZM438.958 9.55696C439.241 9.54318 435.332 9.19421 444.594 9.4239C445.954 9.45753 441.098 9.54871 441.581 9.56123C442.593 9.58565 443.392 9.59704 444.035 9.59908C439.721 9.628 435.24 9.64161 434.807 9.62044C432.771 9.52046 438.832 9.56271 438.958 9.55696ZM479.39 9.29694C480.279 9.24002 485.955 9.27045 487.246 9.29389C487.468 9.2983 486.501 9.4479 489.057 9.43672C491.109 9.42748 488.044 9.27425 492.041 9.29877C496.081 9.32338 490.684 9.43258 491.036 9.44038C491.509 9.45059 497.758 9.38179 497.564 9.4709C497.419 9.5369 490.725 9.49227 489.069 9.5063C486.95 9.52433 489.52 9.6343 485.977 9.61067C483.751 9.59592 484.985 9.40254 484.515 9.39277C484.121 9.3849 476.34 9.49619 479.402 9.29755C479.398 9.29735 479.394 9.29714 479.39 9.29694ZM445.202 9.59053C444.878 9.59707 444.496 9.60054 444.035 9.59908C444.427 9.59645 444.816 9.5934 445.202 9.59053ZM148.329 9.50325C150.519 9.56289 144.017 9.63936 141.555 9.56123C141.512 9.49822 147.98 9.49396 148.329 9.50325ZM449.203 9.43305C455.611 9.4815 450.897 9.54813 445.202 9.59053C447.01 9.55413 447.051 9.41687 449.203 9.43305ZM267.267 9.51362C267.537 9.52805 267.708 9.55053 267.73 9.58748C267.02 9.54707 266.956 9.52537 267.267 9.51362ZM282.216 9.57954C287.341 9.46701 276.929 9.47155 276.995 9.55208C277.026 9.58248 282.011 9.58402 282.216 9.57954ZM403.2 9.524C402.731 9.51299 410.014 9.17316 399.44 9.42817C405.084 9.46822 399.129 9.50523 399.217 9.53499C399.448 9.62052 408.927 9.5383 411.026 9.57527C412.67 9.42223 404.748 9.56028 403.212 9.524C403.208 9.524 403.204 9.524 403.2 9.524ZM552.259 9.37934C550.975 9.46902 546.9 9.44016 544.15 9.43489C545.434 9.34521 549.509 9.37406 552.259 9.37934ZM1271.83 9.39216C1252.98 9.47507 1250.54 9.10988 1267.78 9.25421C1268.12 9.25725 1272.97 9.35514 1271.83 9.39216ZM1110.12 9.29755C1108.35 9.13839 1114.22 9.11279 1118.08 9.17853C1118.95 9.19331 1122.18 9.35453 1118.5 9.38605C1118.61 9.19313 1112.91 9.11944 1110.12 9.29755ZM452.824 9.33112C454.69 9.22498 460.434 9.30053 463.46 9.31647C461.613 9.40387 455.5 9.36434 452.824 9.33112ZM1209.91 9.20172C1207.93 9.18967 1206.58 9.32815 1206.93 9.33967C1208.46 9.39251 1212.17 9.28055 1209.91 9.20172ZM434.283 9.31464C434.021 9.25121 441.628 9.19016 442.158 9.34699C440.532 9.33564 434.472 9.35444 434.283 9.31464ZM547.074 9.33173C545.893 9.29948 552.009 9.24174 553.859 9.27375C553.711 9.34126 547.848 9.3527 547.074 9.33173ZM1177.94 9.24872C1176.16 9.23669 1171.72 9.23303 1171.22 9.28901C1170.61 9.35898 1177.13 9.33513 1177.94 9.24872ZM1508.84 9.12787C1509.07 9.15301 1502.19 9.33426 1499.13 9.2884C1493.32 9.20064 1508.6 9.11011 1508.84 9.12787ZM1228.71 9.13031C1234.32 9.26201 1228.09 9.13446 1228.34 9.27314C1232.11 9.27813 1241.5 9.28497 1235.05 9.14862C1233.79 9.12224 1230.47 9.13929 1228.71 9.13031ZM1223.54 9.08392C1222.94 9.12884 1218.89 9.27046 1222.39 9.26032C1224 9.25541 1226.61 9.09805 1223.54 9.08392ZM1466.21 9.18951C1461.18 9.06675 1484.23 9.13262 1484.89 9.15411C1485.24 9.16547 1485.47 9.17617 1485.6 9.18524C1486.44 9.14633 1490.8 9.13932 1491.3 9.23773C1489.99 9.22961 1486.43 9.23827 1486.02 9.22736C1485.84 9.22271 1485.71 9.21836 1485.62 9.21393C1484.08 9.29936 1467.17 9.21279 1466.21 9.18951ZM1428.03 9.06317C1433.78 8.88206 1434.8 9.18998 1434.3 9.19989C1428.04 9.32592 1432.12 9.09883 1431.93 9.08819C1431.49 9.0705 1427.04 9.17587 1428.04 9.06317C1428.04 9.06317 1428.03 9.06317 1428.03 9.06317ZM1458.38 9.13885C1458.62 9.13484 1463.45 9.14437 1463.65 9.14923C1467.6 9.25272 1453.94 9.22621 1458.38 9.13885ZM509.866 9.08148C513.323 9.11209 509.932 9.22538 507.634 9.18463C507.445 9.18062 506.816 9.05444 509.866 9.08148ZM1220.78 9.11444C1219.97 9.09303 1199.47 9.01231 1200.7 9.18341C1202.44 9.16322 1225.75 9.25129 1220.78 9.11444ZM1067.54 9.07293C1071.15 9.07426 1067.21 9.23563 1065.28 9.17548C1064.56 9.15313 1066.62 9.0727 1067.54 9.07293ZM424.026 9.16815C420.272 9.25681 421.048 8.95939 424.303 9.06134C424.431 9.06533 424.174 9.16469 424.026 9.16815ZM1096.42 9.16571C1083.95 9.2635 1086.91 8.7519 1103.12 8.92461C1102.61 8.9474 1102.1 8.97019 1101.6 8.99297C1120.31 9.06972 1102.88 9.02903 1098.29 9.05767C1096.55 9.06856 1098.01 9.15396 1096.44 9.16632C1096.43 9.16612 1096.43 9.16591 1096.42 9.16571ZM1048.52 9.06317C1036.51 8.70005 1059.44 8.93651 1066.01 8.88921C1059.64 9.03916 1051.34 9.01647 1062.63 9.16998C1046.12 9.19967 1052.99 9.05505 1052.33 9.04302C1051.55 9.02954 1049.03 9.07876 1048.52 9.06317ZM1080.2 9.06073C1080.89 9.05013 1086.12 9.12405 1088.01 9.112C1085.37 9.23604 1075.59 9.13277 1080.2 9.06073ZM1388 9.1474C1388.43 9.05021 1389.51 8.97862 1393.63 9.01495C1392.36 9.06378 1389.72 9.10579 1388 9.1474ZM132.182 9.0766C129.339 9.06963 123.679 9.033 125.415 9.13519C125.605 9.1439 132.174 9.13395 132.182 9.0766ZM1161.22 9.0357C1160.61 9.02375 1144.98 9.01573 1150.38 9.12298C1152.01 9.15533 1166.24 9.14159 1161.22 9.0357ZM1242.19 9.04791C1240.88 9.04689 1235.57 9.0652 1235.45 9.08819C1235.09 9.16766 1241.62 9.12397 1242.19 9.04791ZM117.841 8.9771C117.466 8.96702 108.783 8.98488 109.737 9.03204C111.549 9.12121 119.124 9.01184 117.841 8.9771ZM522.445 8.85381C523.171 8.85021 524.131 8.95579 524.382 8.95696C524.972 8.95847 538.26 8.91786 533.183 9.0534C532.336 9.07612 513.219 9.02406 510.732 9.01067C509.771 8.86575 517.937 9.00361 519.924 8.9887C520.274 8.98587 520.499 8.86462 522.439 8.85442C522.441 8.85422 522.443 8.85401 522.445 8.85381ZM1409.5 9.04486C1410.09 8.95271 1425.71 8.8917 1425.53 9.00335C1420.19 9.01719 1414.85 9.03102 1409.5 9.04486ZM1401.57 9.0296C1398.24 8.96442 1406.04 8.94285 1408.34 8.97161C1408.37 9.0336 1402.05 9.03913 1401.57 9.0296ZM1212.56 8.70366C1210.99 8.72619 1215.82 8.86063 1214.74 8.88677C1214.05 8.90304 1210.54 8.85265 1209.42 8.8947C1209.11 8.90807 1212.68 9.03444 1213.72 9.02899C1215.19 9.02169 1213.76 8.92224 1215.37 8.92156C1220.69 8.91942 1225.42 8.99035 1230.41 8.9887C1230.86 8.98836 1227.36 8.91812 1231.21 8.91912C1231.8 8.91914 1235.37 9.02374 1239.97 9.00823C1250.13 8.68427 1257.59 9.00236 1270.48 8.88555C1270 8.85504 1260.36 8.77321 1259.79 8.77019C1249.01 8.71691 1229.71 8.71106 1218.42 8.71037C1215.52 8.71009 1216.93 8.77866 1215.68 8.78117C1214.7 8.78303 1215.87 8.65606 1212.56 8.70366ZM133.692 9.0064C132.337 8.87958 127.584 8.95985 124.548 8.9533C125.617 9.06769 130.726 8.9783 133.692 9.0064ZM1331.44 8.93133C1329.91 8.93622 1325.2 8.89803 1324.81 8.93621C1324.3 8.98607 1331.11 9.01752 1331.44 8.93133ZM597.366 8.88982C597.513 8.88636 601.174 8.89315 601.312 8.89715C604.583 8.99892 593.602 8.97807 597.366 8.88982ZM684.938 8.91424C687.714 8.89858 690.514 8.85895 691.447 8.96184C689.677 8.94609 684.612 8.9859 684.938 8.91424ZM805.753 8.91118C805.18 8.77644 813.535 8.8637 815.113 8.87578C814.528 8.93567 806.173 9.00828 805.753 8.91118ZM1387.4 8.72441C1392.5 8.73238 1391.43 8.52827 1394.67 8.62065C1395.2 8.63626 1396.91 9.06127 1391.29 8.90203C1390.28 8.8734 1394.24 8.7724 1387.4 8.72441ZM1105.76 8.92888C1107.06 8.83974 1111.12 8.8662 1113.86 8.87334C1113.25 8.93957 1107.71 8.92253 1105.76 8.92888ZM102.158 8.87517C99.7617 8.74933 88.6922 8.84268 91.4313 8.92583C91.8209 8.93668 100.605 8.87042 102.158 8.87517ZM465.812 8.92461C470.367 8.82551 460.933 8.79482 457.956 8.89165C459.304 8.88531 465.505 8.93114 465.812 8.92461ZM776.732 8.83794C776.951 8.83388 781.78 8.84344 781.996 8.84832C785.954 8.9518 772.29 8.9253 776.732 8.83794ZM656.14 8.75066C657.88 8.6691 669.319 8.73491 671.883 8.81658C669.416 8.93582 653.981 8.85251 656.14 8.75066ZM1366.38 8.78239C1370.02 8.77817 1373.48 8.80329 1376.83 8.83855C1376.12 8.90721 1366.76 8.83368 1366.38 8.78239ZM794.461 8.82939C794.72 8.82995 794.972 8.83772 795.219 8.83855C794.961 8.83564 794.708 8.83231 794.461 8.82939ZM1284.81 8.73417C1281.75 8.70705 1282.39 8.83286 1282.58 8.83672C1284.87 8.87746 1288.27 8.76478 1284.81 8.73417ZM130.203 8.81963C129.144 8.70609 124.008 8.79415 121.053 8.76714C121.91 8.8568 127.823 8.83154 130.203 8.81963ZM1035.66 8.83061C1031.82 8.70751 1047.43 8.56451 1050.72 8.64384C1050.96 8.7199 1036.22 8.84746 1035.66 8.83061ZM451.669 8.75432C451.363 8.66535 444.808 8.77271 446.201 8.81474C447.083 8.84149 451.852 8.80959 451.669 8.75432ZM1058.57 8.69572C1060.04 8.66857 1063.46 8.75636 1062.25 8.80986C1060.71 8.87844 1058.19 8.70349 1058.57 8.69572ZM1190.17 8.62431C1189.53 8.61072 1180.9 8.70203 1184.46 8.79277C1186.94 8.85583 1187.33 8.72723 1187.91 8.72685C1188.56 8.72726 1202.41 8.88464 1190.17 8.62431ZM948.225 8.7531C951.478 8.71889 955.413 8.7586 958.818 8.75615C957.431 8.81117 949.609 8.82617 948.225 8.7531ZM476.947 8.73051C476.157 8.69454 454.629 8.67287 466.859 8.78362C467.572 8.78987 479.348 8.83948 476.947 8.73051ZM1387.4 8.72441C1386.75 8.7234 1386.01 8.71916 1385.15 8.71037C1386 8.71383 1386.75 8.71986 1387.4 8.72441ZM1329.38 8.71098C1330.56 8.64622 1324.63 8.62891 1322.88 8.66337C1322.34 8.74249 1329.22 8.72003 1329.38 8.71098ZM959.077 8.66581C961.039 8.62875 964.6 8.6683 967.03 8.66398C966.619 8.72419 959.925 8.72697 959.077 8.66581ZM821.285 8.59806C825.182 8.63384 829.977 8.61739 830.05 8.54374C830.131 8.55525 830.32 8.56747 830.634 8.57975C830.951 8.59191 835.125 8.55766 836.938 8.5828C847.796 8.73212 795.011 8.6705 825.605 8.46256C824.165 8.50773 822.725 8.55289 821.285 8.59806ZM640.661 8.57731C638.45 8.48766 632.256 8.6 633.863 8.63529C634.983 8.65948 642.875 8.66756 640.661 8.57731ZM725.761 8.52421C725.1 8.5082 719.052 8.57099 718.897 8.6182C722.373 8.66795 728.772 8.59853 725.761 8.52421ZM623.661 8.47232C622.273 8.4588 620.502 8.60335 620.665 8.60966C622.075 8.66243 625.992 8.55281 623.661 8.47232ZM1376.81 8.33499C1374.75 8.29359 1368.16 8.39823 1366.73 8.49369C1366.46 8.47523 1365.75 8.45116 1364.43 8.42227C1364.43 8.42227 1364.44 8.42227 1364.44 8.42227C1362.66 8.38371 1309.45 8.34158 1345.14 8.52543C1346.26 8.53132 1344.73 8.44563 1349.28 8.46073C1349.58 8.46183 1349.73 8.53179 1350.66 8.53519C1352.79 8.54259 1364.17 8.58661 1366.45 8.53031C1366.47 8.54328 1366.62 8.55561 1366.94 8.56693C1369.74 8.66783 1378.42 8.36691 1376.81 8.33499ZM737.75 8.51139C736.533 8.48547 732.681 8.51008 732.282 8.57182C734.192 8.60207 740.575 8.57186 737.75 8.51139ZM476.28 8.47721C473.8 8.42643 467.517 8.52136 469.416 8.57182C470.58 8.60285 479.139 8.5355 476.28 8.47721ZM699.165 8.54435C713.382 8.61733 702.558 8.53845 704.735 8.44791C702.879 8.48006 701.022 8.5122 699.165 8.54435ZM1442.61 8.56876C1440.35 8.54793 1443.01 8.36929 1445.51 8.46622C1446.29 8.497 1443.88 8.58008 1442.61 8.56876ZM1544.99 8.51322C1543.05 8.35481 1552.5 8.44789 1548.82 8.55656C1548.65 8.56022 1545.12 8.51925 1544.99 8.51322ZM1473.45 8.44852C1471.91 8.55638 1470.91 8.56917 1466.58 8.54252C1472.99 8.51213 1467.04 8.41674 1473.45 8.44852ZM830.008 8.53214C830.033 8.5365 830.055 8.53972 830.05 8.54374C830.022 8.53977 830.01 8.53601 830.008 8.53214ZM610.294 8.5004C608.514 8.40903 603.526 8.41576 605.012 8.50773C605.155 8.51624 609.564 8.56791 610.294 8.5004ZM1366.73 8.49369C1366.97 8.51006 1366.85 8.52064 1366.45 8.53031C1366.44 8.5181 1366.54 8.50658 1366.73 8.49369ZM637.076 8.42594C636.898 8.4941 644.489 8.52061 644.794 8.51261C649.151 8.39439 640.21 8.42183 637.076 8.42594ZM426.084 8.38138C425.692 8.38849 428.217 8.56446 429.766 8.49552C430.964 8.44203 427.55 8.3543 426.084 8.38138ZM1488.17 8.40457C1490.58 8.40469 1493.96 8.40461 1494.58 8.48819C1492.97 8.47536 1488.12 8.46591 1488.17 8.40457ZM1541.29 8.39847C1538.44 8.49673 1531.95 8.49645 1527.81 8.48026C1527.73 8.35092 1538.62 8.42888 1541.29 8.39847ZM1383.33 8.38321C1383.14 8.37795 1377.11 8.33936 1377.93 8.42594C1379.14 8.5529 1385.04 8.43029 1383.33 8.38321ZM437.791 8.47477C440.486 8.41514 434.282 8.23189 431.438 8.37344C429.977 8.44593 437.336 8.48476 437.791 8.47477ZM594.719 8.38077C591.161 8.43087 599.978 8.52013 601.21 8.4296C599.571 8.42233 595.982 8.36303 594.719 8.38077ZM715.762 8.28921C704.552 8.02811 710.658 8.50443 712.646 8.46256C712.926 8.45658 716.036 8.29535 715.762 8.28921ZM74.3405 8.3533C72.7534 8.38958 78.6702 8.521 79.4359 8.43448C79.9089 8.38034 75.3554 8.33018 74.3405 8.3533ZM884.571 8.4589C884.098 8.45973 883.629 8.46059 883.164 8.46134C883.512 8.45708 883.971 8.45569 884.571 8.4589ZM562.426 8.03102C570.317 8.39967 569.489 8.11554 570.174 8.11709C571.656 8.12105 575.1 8.22073 577.892 8.20437C574.694 8.24588 571.496 8.28738 568.297 8.32889C570.824 8.3555 592.773 8.49121 593.233 8.43143C593.892 8.3463 586.985 8.37301 586.784 8.36551C586.494 8.35482 585.415 8.11815 584.774 8.10915C583.721 8.09477 565.367 8.08986 562.426 8.03102ZM692.319 8.33011C694.121 8.35824 694.634 8.45201 695.471 8.4296C695.756 8.42193 695.803 8.33249 696.777 8.30935C695.291 8.31627 693.805 8.32319 692.319 8.33011ZM548.295 8.36246C546.061 8.25317 556.077 8.29467 556.398 8.30691C558.111 8.38099 550.12 8.45174 548.295 8.36246ZM633.286 8.34659C632.92 8.34021 625.229 8.30608 625.291 8.36673C627.326 8.41296 637.609 8.42643 633.286 8.34659ZM697.98 8.30325C700.682 8.31368 705.79 8.40375 705.205 8.26907C705.201 8.26907 705.197 8.26907 705.193 8.26907C702.788 8.28046 700.384 8.29186 697.98 8.30325ZM447.019 8.19033C442.011 7.97584 444.384 8.24687 448.818 8.31607C450.161 8.21977 447.84 8.22523 447.019 8.19033ZM430.993 8.03041C429.6 7.99182 415.243 8.03411 417.433 8.1476C418.212 8.18805 426.468 8.08605 426.848 8.09389C427.424 8.10552 424.791 8.23108 429.194 8.2062C428.937 8.16366 431.47 8.04331 430.993 8.03041ZM442.874 8.053C437.898 7.88987 436.779 8.19074 440.522 8.19155C441.984 8.19208 443.584 8.07653 442.874 8.053ZM463.201 8.07863C461.41 8.0501 456.641 8.00848 453.353 8.10854C457.753 8.11709 462.153 8.12563 466.552 8.13418C467.059 8.07749 464.768 8.10371 463.189 8.07863C463.193 8.07863 463.197 8.07863 463.201 8.07863ZM1571.19 7.62757C1567.24 7.54225 1576.35 7.50955 1576.73 7.53052C1577.87 7.6001 1572.96 7.66567 1571.19 7.62757ZM43.4554 5.62004C42.3567 5.58603 41.6385 5.47413 39.2203 5.53276C41.6527 5.61536 44.085 5.69797 46.5174 5.78057C48.4077 5.5913 44.6562 5.65756 43.4554 5.62004ZM34.167 4.92849C34.5106 4.9239 32.6337 4.63286 37.0726 4.82717C40.0718 4.95836 23.7621 5.08623 20.818 4.95718C24.071 4.89721 31.2093 4.96585 34.167 4.92849ZM5.59801 3.66868C5.40995 3.64547 11.6064 3.61142 12.3237 3.62778C16.0897 3.71403 6.61545 3.79302 5.59801 3.66868ZM25.3659 3.72422C22.4599 3.6677 28.8976 3.63127 30.8162 3.66379C31.0023 3.71796 25.8148 3.73245 25.3659 3.72422ZM1531.15 3.41232C1528 3.21451 1525.19 3.64033 1530.03 3.55454C1530.26 3.5505 1531.28 3.422 1531.15 3.41232ZM11.6559 3.37508C14.5619 3.4316 8.12418 3.46804 6.20561 3.43551C6.02718 3.3814 11.2134 3.36682 11.6559 3.37508ZM1528.94 2.94111C1524.76 2.79877 1526.23 3.27649 1526.75 3.29574C1528.9 3.37176 1536.27 3.18426 1537.78 3.13765C1526.74 3.20934 1530.9 3.00818 1528.94 2.94111ZM1509.67 3.22798C1505.8 3.27895 1515.7 3.37642 1517.59 3.24324C1515.66 3.24962 1510.77 3.21325 1509.67 3.22798ZM1486.16 3.07478C1484.07 3.05767 1477.88 3.01671 1476.84 3.09187C1479.11 3.07826 1485.28 3.15212 1486.16 3.07478ZM1481.44 2.84955C1478.18 2.74742 1477.4 3.045 1481.16 2.95637C1481.3 2.95294 1481.56 2.85523 1481.44 2.84955ZM1463.13 2.74213C1461 2.62378 1458.56 2.91198 1462.02 2.91975C1463.05 2.92152 1463.36 2.75569 1463.13 2.74213ZM1523.71 2.42717C1520.65 2.37635 1516.71 2.58274 1523.24 2.6054C1520.94 2.63694 1518.65 2.66847 1516.36 2.70001C1524.91 2.81569 1524.28 2.52948 1526.74 2.54131C1530.17 2.55813 1529.9 2.79431 1529.21 2.86847C1532.03 2.72378 1543.98 2.72146 1550.89 2.69391C1544.82 2.63318 1534.96 2.5279 1528.97 2.48943C1527.26 2.47829 1525.6 2.54306 1524.14 2.53582C1521.8 2.52386 1523.88 2.43059 1523.72 2.42717C1523.72 2.42717 1523.71 2.42717 1523.71 2.42717ZM1439.07 2.73785C1432.79 2.6038 1436.76 2.89323 1440.31 2.84162C1440.46 2.83764 1439.23 2.74113 1439.07 2.73785ZM3.33006 2.49554C11.7188 2.61652 5.62122 2.77686 23.1701 2.53338C15.7974 2.70575 22.7624 2.65734 21.3233 2.72687C20.1688 2.78187 15.843 2.73632 18.3575 2.84711C15.0524 2.72652 0.703194 2.75988 0.0634804 2.7403C0.0694962 2.7403 0.075512 2.7403 0.0815278 2.7403C-0.30269 2.7287 0.65323 2.45706 3.33006 2.49554ZM1486.13 2.31792C1484.03 1.96672 1483.21 2.52414 1479.09 2.23307C1473.61 2.65575 1494.24 2.23314 1496.73 2.59014C1474.34 2.54866 1511.53 2.94389 1495.9 2.40947C1508.78 2.60344 1500.12 2.34329 1502.1 2.27519C1504.23 2.20265 1511.52 2.28148 1511.15 2.15067C1511.14 2.15067 1511.14 2.15067 1511.13 2.15067C1506.68 2.15983 1502.22 2.16898 1497.77 2.17814C1502.13 2.46032 1493.02 2.37571 1489.93 2.14579C1488.67 2.20317 1487.4 2.26054 1486.13 2.31792ZM1511.34 2.58282C1510.91 2.57636 1501.21 2.61591 1501.84 2.67254C1503.13 2.70867 1516.89 2.66535 1511.34 2.58282ZM1554 2.52117C1550.52 2.52048 1545.14 2.46543 1543.24 2.57183C1546.72 2.57255 1552.1 2.62763 1554 2.52117ZM1374.82 2.50103C1370.38 2.58834 1384.04 2.6142 1380.09 2.51079C1379.89 2.50593 1375.03 2.49695 1374.82 2.50103ZM1476.04 2.37102C1471.53 2.26369 1473.66 2.60531 1477 2.51629C1477.19 2.51104 1476.25 2.37591 1476.04 2.37102ZM10.1279 2.45403C10.4296 2.37033 22.6008 2.42912 24.7583 2.42839C23.5325 2.50619 9.78184 2.54998 10.1279 2.45403ZM1560.12 2.20805C1553.2 1.90709 1543.8 2.25471 1542.77 2.24711C1541.75 2.23937 1543.35 2.10781 1543.12 2.10429C1542.59 2.09691 1531.68 2.10795 1531.15 2.1171C1530.77 2.12424 1532.75 2.30912 1530.49 2.36736C1534.89 2.26231 1554.83 2.32803 1555.87 2.30754C1556.67 2.29118 1550.63 2.09704 1560.11 2.20805C1560.11 2.20805 1560.12 2.20805 1560.12 2.20805ZM1540.2 2.20683C1542.92 2.28432 1535.28 2.29402 1533.43 2.26542C1529.32 2.20143 1539.85 2.19765 1540.2 2.20683ZM1521.81 2.13541C1520.94 2.11803 1513.06 2.10224 1512.39 2.18852C1516.12 2.30043 1523.79 2.17592 1521.81 2.13541ZM1434.15 2.14701C1432.1 2.15806 1426.48 2.09177 1426.16 2.16715C1428.2 2.15616 1433.83 2.2224 1434.15 2.14701ZM51.6549 1.79605C48.2558 1.73296 56.1312 1.7072 58.4287 1.73745C58.5534 1.78774 51.9443 1.80146 51.6549 1.79605ZM1475.27 1.65017C1474.06 1.62724 1449.35 1.68445 1445.88 1.71975C1449.27 1.77676 1473.77 1.78114 1474.88 1.75332C1475.2 1.74499 1475.43 1.65377 1475.27 1.65017ZM1528.72 1.61537C1530.99 1.50436 1532.47 1.63751 1532.76 1.63918C1535.56 1.65617 1541.37 1.63114 1540.09 1.73806C1535.15 1.69492 1524.21 1.83583 1528.72 1.61537ZM1432.39 1.64467C1424 1.68587 1440.12 1.80283 1438.01 1.68679C1437.87 1.67977 1433.26 1.64035 1432.39 1.64467ZM1478.04 1.61782C1479.89 1.52811 1504.61 1.60547 1508.58 1.60561C1505.02 1.77107 1502.16 1.64539 1497.38 1.65383C1496.09 1.6563 1496.44 1.72513 1496.3 1.72524C1494.07 1.72843 1495.74 1.64893 1494.36 1.64772C1493.49 1.64718 1475.43 1.74421 1478.04 1.61782ZM1530.02 1.53847C1531.4 1.47483 1546.84 1.4477 1547.46 1.46461C1552.1 1.59039 1531.22 1.56062 1530.02 1.53847ZM1475.77 1.47072C1478.43 1.27842 1490.7 1.4072 1482.3 1.50307C1481.5 1.51179 1478.1 1.42843 1475.77 1.47072ZM1433.29 1.46156C1432.88 1.4559 1424.13 1.41747 1423.97 1.47865C1425.24 1.50243 1437.99 1.52376 1433.29 1.46156ZM1437.83 1.25464C1437.61 1.25611 1439.67 1.37395 1435.56 1.35902C1435.22 1.35761 1434.58 1.22503 1429.43 1.27356C1428.38 1.28356 1426.76 1.37127 1426.88 1.37672C1432.25 1.58478 1448.42 1.18629 1437.83 1.25464ZM1530.3 1.43104C1529.47 1.37508 1531.48 1.20898 1533.28 1.2931C1534.06 1.32942 1532.61 1.4291 1530.3 1.43104ZM1405.55 1.40785C1410.63 1.30711 1394.66 1.28807 1393.85 1.31385C1394.36 1.3766 1405.04 1.41769 1405.55 1.40785ZM59.6138 1.01843C59.6098 1.01843 59.6058 1.01843 59.6018 1.01843C63.8804 1.04125 61.2302 1.12505 61.4306 1.12769C70.5441 1.25077 68.1268 1.06097 69.5519 1.03857C72.6078 0.990128 72.1154 1.22094 77.2702 1.12524C68.7495 1.26656 76.5054 1.20732 76.7468 1.28943C77.7017 1.62454 65.4022 1.13252 61.1539 1.20276C60.5619 1.21249 64.9324 1.31944 63.4158 1.34986C58.4849 1.44845 43.1962 0.931142 59.6138 1.01843ZM1534.68 1.27845C1536.66 1.18002 1551.72 1.27549 1547.73 1.35658C1547.09 1.36958 1531.76 1.42192 1534.68 1.27845ZM831.374 1.13318C834.992 1.048 826.606 0.947855 825.051 1.01416C824.28 1.04719 829.785 1.17056 831.374 1.13318ZM772.576 0.768785C768.276 0.786077 763.743 1.14131 769.092 1.08618C769.661 1.08015 773.068 0.81806 772.576 0.768785ZM1054.91 0.951287C1050.42 0.824339 1050.69 1.06021 1053.98 1.05688C1055.15 1.05574 1055.05 0.955304 1054.91 0.951287ZM883.555 0.981806C883.105 0.973572 877.915 0.988633 878.104 1.04284C880.023 1.07537 886.461 1.03833 883.555 0.981806ZM1056.33 0.917717C1053.67 0.960227 1058.25 1.13083 1061.51 0.964105C1059.86 0.97778 1056.61 0.913373 1056.33 0.917717ZM1466.49 0.949456C1464.26 1.04631 1457.96 1.01704 1454.33 1.03369C1453.94 0.908208 1463.9 0.972206 1466.49 0.949456ZM790.827 0.911613C786.757 1.00005 795.477 1.07245 794.678 0.95556C794.566 0.94921 790.988 0.907842 790.827 0.911613ZM1199.76 0.904899C1196.8 0.979749 1206.19 1.08041 1203.61 0.948845C1203.48 0.943481 1199.92 0.900735 1199.76 0.904899ZM1240.78 0.948235C1238.53 0.922987 1228.96 0.930754 1232.69 1.00378C1233.27 1.015 1240.61 1.01679 1240.78 0.948235ZM69.8046 0.948235C68.5951 0.819337 75.6154 0.850019 76.6205 0.872549C77.0153 0.881918 71.3821 1.11594 69.8046 0.948235ZM1025.75 0.931145C1023.43 0.947271 1017.4 0.916625 1016.34 0.984247C1019.18 0.97025 1026.51 1.06585 1025.75 0.931145ZM809.386 0.911002C805.842 0.770936 799.786 0.78476 801.283 0.967767C807.972 0.955503 800.456 0.803275 809.386 0.911002ZM1071.3 0.766954C1069.43 0.756269 1068.01 0.932021 1068.22 0.9403C1070.23 1.01908 1073.15 0.835334 1071.3 0.766954ZM931.507 0.911613C931.399 0.836506 925.428 0.870595 926.225 0.918937C926.486 0.935166 931.594 0.972395 931.507 0.911613ZM1388.29 0.90673C1385.55 0.838175 1393.91 0.771153 1396.38 0.851185C1397.58 0.966506 1388.63 0.914604 1388.29 0.90673ZM1122.95 0.810901C1123.23 0.699439 1113.9 0.762457 1117.58 0.854848C1118.5 0.877965 1122.86 0.84817 1122.95 0.810901ZM1212.31 0.677229C1206.05 0.810148 1232.33 0.904513 1225.43 0.738876C1224.93 0.727075 1212.85 0.666004 1212.31 0.677229ZM1255.24 0.76024C1254.16 0.745594 1254.7 0.371051 1259.17 0.51548C1259.76 0.53421 1257.01 0.63322 1257.49 0.655866C1257.77 0.668771 1267.49 0.721374 1267.94 0.71263C1268.42 0.702702 1267.85 0.582657 1268.34 0.569192C1268.89 0.554143 1274.88 0.659596 1278.01 0.660748C1283.92 0.662726 1284.55 0.562809 1285.04 0.562478C1286.45 0.561816 1288.82 0.632759 1291.68 0.632671C1306.09 0.631874 1328.14 0.54718 1339.56 0.759019C1329.4 0.67395 1319.71 0.764207 1309.59 0.791979C1312.55 0.583416 1294.7 0.952677 1305.14 0.71202C1300.33 0.764221 1258.78 0.805968 1255.25 0.76024C1255.25 0.76024 1255.24 0.76024 1255.24 0.76024ZM755.605 0.6638C758.246 0.535919 744.693 0.564685 743.543 0.71263C745.332 0.733162 755.278 0.678295 755.605 0.6638ZM818.133 0.351899C819.392 0.329825 820.586 0.0798583 827.187 0.20663C827.193 0.20663 827.199 0.20663 827.205 0.20663C829.135 0.243652 826.936 0.30456 827.289 0.326263C827.418 0.335125 833.437 0.45947 828.438 0.479467C820.815 0.510147 827.721 0.293508 823.656 0.290862C823.159 0.290657 815.466 0.425962 815.913 0.455663C815.96 0.459123 818.274 0.4305 818.656 0.442845C820.1 0.48925 819.397 0.567308 819.601 0.571023C820.267 0.580543 832.432 0.447559 834.201 0.563699C834.776 0.60115 814.809 0.687544 814.03 0.668073C813.538 0.655803 813.746 0.439129 813.236 0.417819C812.974 0.407205 804.942 0.4884 803.9 0.468481C803.597 0.462719 803.366 0.456509 803.196 0.45139C804.411 0.518426 797.137 0.513599 797.361 0.437962C797.487 0.408233 802.493 0.425441 802.672 0.430637C802.751 0.432837 802.819 0.43587 802.883 0.437962C801.846 0.356266 818.796 0.359951 815.137 0.238369C820.051 0.171765 814.44 0.416726 818.133 0.351899ZM841.751 0.218227C841.244 0.241014 840.736 0.263802 840.229 0.286589C848.831 0.230814 858.757 0.340509 868.666 0.339692C871.18 0.33965 868.288 0.200286 871.583 0.238369C874.224 0.268889 877.146 0.398153 875.71 0.426975C875.36 0.434166 869.985 0.349973 867.294 0.358613C859.351 0.384193 861.358 0.503706 860.893 0.506934C860.381 0.510332 855.382 0.426284 852.652 0.430027C845.788 0.439701 842.653 0.513076 833.275 0.417209C838.687 0.338443 835.722 0.16733 841.751 0.218227ZM1162.37 0.472753C1162.7 0.397529 1168.33 0.46427 1170.38 0.453221C1170.05 0.528631 1164.42 0.461699 1162.37 0.472753ZM323.557 0.375093C321.828 0.498536 334.786 0.529101 331.371 0.426365C330.616 0.403564 325.185 0.375971 323.557 0.375093ZM381.772 0.450169C383.505 0.41604 376.525 0.327164 376.538 0.422702C376.548 0.453339 381.548 0.454607 381.772 0.450169ZM952.941 0.339692C953.269 0.335826 958.037 0.36332 958.187 0.3696C961.346 0.500672 945.651 0.424916 952.941 0.339692ZM452.541 0.298186C446.499 0.379097 464.686 0.414166 459.129 0.311004C458.852 0.305979 452.832 0.294254 452.541 0.298186ZM477.82 0.275602C476.371 0.279939 469.939 0.239765 469.855 0.277433C469.726 0.338203 477.089 0.379726 477.82 0.275602ZM1072.55 0.300628C1071.86 0.16154 1080.34 0.266871 1083.29 0.249356C1083.99 0.38854 1075.5 0.283063 1072.55 0.300628ZM1019.02 0.198084C1054.77 0.0884404 1046.89 0.385608 1016.89 0.265836C1016.85 0.176607 1016.76 0.20499 1019.02 0.198084ZM1064.8 0.214565C1063.51 0.303669 1059.44 0.277247 1056.7 0.270109C1057.19 0.208158 1062.83 0.230579 1064.8 0.214565ZM308.126 0.184046C310.369 0.0714865 320.299 0.210253 318.534 0.25668C318.123 0.266707 307.303 0.245946 308.126 0.184046ZM955.937 0.220668C955.104 0.0854015 965.841 0.140577 966.663 0.170618C969.977 0.291449 956.807 0.190813 955.937 0.220668ZM1123.3 0.181604C1125.2 0.0756516 1130.58 0.130147 1134.05 0.131554C1132.47 0.222151 1126.24 0.183511 1123.3 0.181604ZM1098.3 0.0985937C1098.52 0.0945268 1103.35 0.104092 1103.56 0.10897C1107.52 0.212456 1093.86 0.185953 1098.3 0.0985937ZM53.6822 0.000933647C53.8432 -0.00248098 57.5011 0.00427532 57.6286 0.00825787C60.8936 0.109982 49.9149 0.0891967 53.6822 0.000933647Z" fill="#1801C5"/>
</svg>
