<svg width="70" height="70" viewBox="0 0 70 70" fill="none" xmlns="http://www.w3.org/2000/svg">
<circle cx="35" cy="35" r="35" fill="#D9D9D9"/>
<path d="M26.6016 28.1719V51H21.3281V28.1719H26.6016ZM20.5312 18.6797C20.5312 17.7578 20.8672 16.9609 21.5391 16.2891C22.2109 15.6172 23.0156 15.2812 23.9531 15.2812C24.9062 15.2812 25.7188 15.6172 26.3906 16.2891C27.0625 16.9453 27.3984 17.75 27.3984 18.7031C27.3984 19.6562 27.0625 20.4688 26.3906 21.1406C25.7344 21.8125 24.9297 22.1484 23.9766 22.1484C23.0234 22.1484 22.2109 21.8125 21.5391 21.1406C20.8672 20.4688 20.5312 19.6484 20.5312 18.6797ZM33.2812 28.1719H38.5781V30.2812C40.4219 28.4531 42.5 27.5391 44.8125 27.5391C47.4688 27.5391 49.5391 28.375 51.0234 30.0469C52.3047 31.4688 52.9453 33.7891 52.9453 37.0078V51H47.6484V38.25C47.6484 36 47.3359 34.4453 46.7109 33.5859C46.1016 32.7109 44.9922 32.2734 43.3828 32.2734C41.6328 32.2734 40.3906 32.8516 39.6562 34.0078C38.9375 35.1484 38.5781 37.1406 38.5781 39.9844V51H33.2812V28.1719Z" fill="#100088"/>
</svg>
