<svg width="372" height="10" viewBox="0 0 372 10" fill="none" xmlns="http://www.w3.org/2000/svg">
<path d="M28.7838 9.92014C29.014 9.90745 29.9398 9.9383 30.3405 9.93295C29.8862 10.0671 27.9536 9.96619 28.7838 9.92014ZM69.8943 0.179169C69.5618 0.212333 69.2292 0.245497 68.8967 0.27866C69.8417 0.300209 71.1119 0.275867 71.9888 0.307348C72.1322 0.312635 71.7601 0.408655 72.0995 0.412943C72.439 0.417203 72.3736 0.285982 72.8672 0.271946C73.421 0.256601 75.9568 0.34802 76.835 0.345802C80.1194 0.336944 83.432 0.262006 86.7231 0.316505C83.3255 0.413586 86.7492 0.512392 87.7008 0.470319C87.9117 0.460578 87.878 0.216627 91.2868 0.278052C93.4531 0.317031 91.4522 0.665792 95.0672 0.491073C92.2874 0.247089 95.021 0.264189 97.2001 0.256079C97.5757 0.254642 100.61 0.291299 101.95 0.280494C102.408 0.276736 103.107 0.148954 103.715 0.145601C104.134 0.143389 104.45 0.213248 105.072 0.209691C107.969 0.193945 110.818 0.188513 113.721 0.212133C112.025 0.540502 115.052 0.35208 115.188 0.367779C115.88 0.456934 112.752 0.482311 113.989 0.538073C115.718 0.5279 117.446 0.517728 119.174 0.507555C117.756 0.467237 121.052 0.231037 121.659 0.338482C121.392 0.0483223 129.537 0.591025 130.777 0.494128C131.035 0.47366 129.345 0.330253 133.266 0.395858C133.69 0.403147 133.53 0.490691 133.752 0.482531C133.886 0.477624 134.693 0.199375 135.553 0.353132C135.867 0.409251 133.858 0.591998 138.271 0.518543C136.513 0.235341 144.39 0.365173 145.839 0.436143C145.549 0.398097 145.26 0.36005 144.97 0.322003C146.403 0.42464 146.661 0.328353 146.984 0.3336C148.284 0.354677 150.072 0.451713 151.284 0.442858C152.701 0.43267 152.706 0.256546 154.359 0.325056C153.967 0.286195 153.575 0.247335 153.182 0.208474C154.324 0.217834 155.465 0.227193 156.607 0.236552C153.963 0.469692 157.177 0.247675 157.389 0.242656C157.726 0.23417 157.241 0.329617 157.806 0.317732C157.864 0.315776 157.78 0.225894 158.65 0.215799C160.469 0.195015 160.181 0.308023 160.945 0.306745C161.015 0.306163 160.77 0.225189 162.089 0.206034C166.28 0.145051 162.068 0.268086 161.907 0.279279C161.696 0.294041 163.133 0.63243 159.572 0.512441C160.768 0.55064 160.888 0.700382 161.023 0.704099C161.142 0.707155 163.213 0.686063 163.327 0.680905C164.346 0.630056 163.45 0.527727 163.648 0.50939C163.81 0.494607 166.306 0.627961 166.891 0.320174C168.085 0.604072 166.204 0.578062 164.202 0.621699C163.909 0.679956 166.108 0.736605 166.224 0.736449C169.06 0.735932 167.49 0.502409 168.11 0.353135C168.435 0.275031 169.591 0.434348 168.524 0.224956C171.098 0.202853 169.537 0.324191 169.703 0.342148C169.954 0.36853 170.855 0.308518 170.968 0.316512C171.133 0.328346 170.558 0.400844 171.21 0.42638C171.319 0.430093 172.37 0.305339 171.014 0.245709C172.826 0.263444 172.676 0.157066 173.291 0.371446C174.538 -0.0341353 174.196 0.611182 174.687 0.633907C175.993 0.693812 175.614 0.375377 175.683 0.359849C176.159 0.26034 179.774 0.369729 180.67 0.323837C180.317 0.553193 177.803 0.326341 177.241 0.370836C175.368 0.518869 179.882 0.485506 178.521 0.773683C179.092 0.694539 179.662 0.615393 180.233 0.536248C181.279 0.721535 179.795 0.802329 182.61 0.73462C183.07 0.574693 180.62 0.75988 181.111 0.633908C181.401 0.559976 183.033 0.544097 183.065 0.505119C183.097 0.4582 181.622 0.513806 181.855 0.44164C182.362 0.285908 187.743 0.434165 183.647 0.519158C184.789 0.516496 185.378 0.826252 186.369 0.729737C187.009 0.667091 183.405 0.239284 188.812 0.317735C188.928 0.464003 186.651 0.360926 186.592 0.372058C186.508 0.388261 186.92 0.718328 186.992 0.73462C187.244 0.788259 192.766 0.611516 193.932 0.777347C193.471 0.586581 198.105 0.743307 198.61 0.685181C198.744 0.669133 198.242 0.55228 198.385 0.539912C199.282 0.466298 201.706 0.674893 202.83 0.680298C204.088 0.686423 203.929 0.585499 203.999 0.58569C204.553 0.59132 204.111 0.659738 204.449 0.659546C204.96 0.659218 208.475 0.673211 208.651 0.658936C208.703 0.654487 208.129 0.539198 208.895 0.517329C209.028 0.513539 208.944 0.650228 211.212 0.591184C213.945 0.520172 209.315 0.421205 210.45 0.278062C212.205 0.481874 212.149 0.279904 212.624 0.295763C212.789 0.301539 214.016 0.473259 215.348 0.462395C214.392 0.490269 213.436 0.518143 212.48 0.546017C213.419 0.576127 215.245 0.538858 216.019 0.572873C216.397 0.589431 216.085 0.730499 216.906 0.726688C217.08 0.725111 217.771 0.381428 215.622 0.53564C215.45 0.412922 216.472 0.492835 216.947 0.458123C217.019 0.452714 217.302 0.247699 217.908 0.375113C218.053 0.40646 216.469 1.00451 220.554 0.571653C220.686 0.557703 220.228 0.482805 220.357 0.467279C220.445 0.456764 221.488 0.487061 221.603 0.476435C221.721 0.465033 221.217 0.383267 221.357 0.367178C222.077 0.284272 223.021 0.608571 221.538 0.583861C222.033 0.623942 222.529 0.664023 223.025 0.704105C222.494 0.459691 223.803 0.635336 224.489 0.627808C228.885 0.579702 225.942 0.420737 226.697 0.338491C227.913 0.206434 226.985 0.624699 228.789 0.499019C228.956 0.487269 226.775 0.309722 231.034 0.409905C230.405 0.416822 229.777 0.42374 229.148 0.430657C229.511 0.66706 231.418 0.414441 231.565 0.411125C233.237 0.378666 232.107 0.463889 234.59 0.342154C234.812 0.331224 235.295 0.389567 235.77 0.360465C237.736 0.240569 233.175 0.28771 233.051 0.192001C232.992 0.145105 237.896 0.156916 238.064 0.179184C238.779 0.277893 235.841 0.22266 236.401 0.345205C236.605 0.388718 243.595 0.29935 244.998 0.347037C246.616 0.40253 247.344 0.723047 247.355 0.362908C247.811 0.716416 248.215 0.475223 248.422 0.477658C250.924 0.510383 250.929 0.51395 253.075 0.4801C253.549 0.472742 253.949 0.580002 254.117 0.56189C254.214 0.550951 254.032 0.436167 254.51 0.400751C255.174 0.352301 259.163 0.470362 259.459 0.533813C259.756 0.597266 257.775 0.56133 258.13 0.665654C259.564 0.6762 260.939 0.650388 262.383 0.661382C262.982 0.666262 262.674 0.739278 262.933 0.740731C263.044 0.741628 265.114 0.677328 265.026 0.650395C264.821 0.587766 258.427 0.629865 260.111 0.502074C260.436 0.477382 261.583 0.645643 261.401 0.441037C267.113 0.487425 272.825 0.533814 278.537 0.580204C275.255 0.733239 271.562 0.596373 268.124 0.610721C267.653 0.612493 266.06 0.592758 266.254 0.696174C269.177 0.722947 272.811 0.669065 275.618 0.736459C275.708 0.738689 275.379 0.831603 275.715 0.846327C276.344 0.873808 278.392 0.723955 278.736 0.762705C278.795 0.771733 277.63 0.894222 277.984 0.972064C278.894 1.17183 279.125 0.729386 279.907 0.734628C280.512 0.73887 284.577 0.952797 285.589 0.81764C286.665 0.673578 282.593 0.734003 282.894 0.616216C285.649 0.497846 288.439 0.624248 291.042 0.609502C291.088 0.609127 290.69 0.516822 291.271 0.503908C292.282 0.481432 292.547 0.612362 293.039 0.633307C293.57 0.655604 295.446 0.636841 295.697 0.684579C295.729 0.690838 295.349 0.820704 295.291 0.824355C294.474 0.877878 294.183 0.709326 294.109 0.707163C293.83 0.700772 293.555 0.765331 293.3 0.761486C292.88 0.755074 292.649 0.695345 292.095 0.690072C291.713 0.686212 292.082 0.800912 291.714 0.795667C291.578 0.793277 290.12 0.531369 289.984 0.798719C289.941 0.883013 301.87 0.991263 303.062 0.923847C302.039 0.8917 301.017 0.859553 299.994 0.827407C302.071 0.905658 304.565 0.692044 304.742 1.00808C312.443 1.03392 320.145 1.05976 327.846 1.0856C329.221 1.11252 328.467 1.31561 330.729 1.2565C330.145 1.1918 329.56 1.1271 328.975 1.0624C330.135 1.10779 335.273 1.19646 336.105 1.15457C336.213 1.14908 336.362 0.965277 337.646 0.949485C338.785 0.935542 338.968 1.07326 339.577 1.09964C340.089 1.1214 340.663 1.08532 340.815 1.09292C340.931 1.09901 340.977 1.18322 341.258 1.19791C342.142 1.24331 341.425 1.0062 342.303 1.27848C342.09 1.28885 341.876 1.29923 341.662 1.30961C342.73 1.34902 344.188 1.47263 342.616 1.53361C342.345 1.54414 342.577 1.46267 342.376 1.46281C334.479 1.47795 340.785 1.63633 343.552 1.50981C344.263 1.63053 348.246 1.55682 348.378 1.58061C348.563 1.61507 347.881 1.71155 348.774 1.79486C348.962 1.81249 354.288 1.74489 352.37 1.90533C351.975 1.93843 349.421 1.90366 348.806 1.90839C350.254 2.16425 353.649 1.79767 354.031 1.80706C355.571 1.84694 351.072 2.02881 354.542 2.05854C357.209 2.08135 354.705 1.91051 355.731 1.83758C356.307 1.79666 359.326 1.98487 359.244 1.74114C360.281 1.71512 359.674 1.84417 359.802 1.85345C359.927 1.86161 361.964 1.78865 362.626 1.84002C362.706 1.84641 362.454 1.9731 362.537 1.98346C362.698 2.00121 364.663 1.97589 364.742 1.96515C364.792 1.95769 364.324 1.84678 364.516 1.81988C364.741 1.78887 366.631 1.81497 366.736 1.78326C366.883 1.73532 364.549 1.7669 364.938 1.64287C366.014 1.6741 367.767 1.59135 368.477 1.4915C368.303 1.52005 367.259 1.52415 366.897 1.51408C367.068 1.33243 369.308 1.33491 368.542 1.47868C369.029 1.40147 368.697 1.36051 368.971 1.28764C369.042 1.26918 369.734 1.26538 369.867 1.23392C369.885 1.22766 369.171 1.15912 369.314 1.12222C369.573 1.05555 371.67 1.07055 371.841 1.08804C372.324 1.13761 370.615 1.19759 370.472 1.27421C370.452 1.28597 371.906 1.43612 371.928 1.44939C372.013 1.59166 370.395 1.48913 370.58 1.61724C370.98 1.6443 371.38 1.67136 371.78 1.69842C370.237 1.82815 367.381 1.76144 366.645 1.909C368.933 1.86509 371.328 1.87028 371.323 2.20259C371.322 2.34254 370.334 2.42458 370.373 2.46017C370.518 2.58749 371.889 2.44917 371.939 2.45589C371.981 2.46365 372 2.47121 372 2.47856C372 2.47856 372 2.47857 372 2.47857C372 2.55312 370.046 2.6068 369.948 2.64084C369.784 2.7013 370.654 2.95018 370.652 3.00523C370.622 3.01629 369.231 3.07519 369.7 3.17125C370.175 3.26828 371.393 3.27043 371.436 3.28051C371.668 3.33856 369.538 3.3915 369.474 3.42578C369.441 3.44311 370.585 3.54959 370.618 3.5802C370.647 3.61092 369.777 3.67795 369.435 3.77491C369.179 3.84695 369.923 3.90218 369.792 3.91347C369.699 3.92095 367.686 3.91973 367.587 3.93239C367.44 3.95112 367.911 4.03721 367.842 4.05874C367.745 4.0897 367.095 4.05862 367.18 4.09048C367.243 4.11422 369.763 4.411 369.747 4.49027C369.718 4.62548 367.05 4.31438 369.533 4.84795C369.55 4.85146 370.154 4.81354 370.171 4.81682C370.544 4.91499 368.607 5.06601 370.976 5.03961C366.569 5.21012 370.427 5.24287 369.775 5.47053C369.523 5.55804 367.815 5.59413 367.807 5.60726C367.973 5.71827 368.517 5.63217 368.702 5.68661C368.804 5.71702 367.276 5.8344 367.62 5.91061C367.798 5.94989 369.42 5.93591 369.487 5.94357C370.129 6.01584 369.342 6.09367 369.483 6.145C369.577 6.17941 370.556 6.18214 370.581 6.18833C370.622 6.20122 369.293 6.34027 369.016 6.38915C368.805 6.42675 369.596 6.48567 369.449 6.50207C368.564 6.60011 366.681 6.35007 368.495 6.70044C368.606 6.72192 369.292 6.71325 369.313 6.71753C369.737 6.81685 368.473 6.82544 368.247 6.90675C367.859 7.04685 369.675 6.96874 368.165 7.06727C369.298 7.1589 369.929 7.15507 371.255 7.12953C367.584 7.20078 366.288 7.56348 370.364 7.55435C369.067 7.5487 369.211 7.7534 368.824 7.757C368.584 7.759 366.704 7.55547 367.566 8.01213C367.674 8.06918 368.816 7.9967 368.458 8.11346C365.717 8.08366 368.4 8.18775 368.403 8.20318C368.368 8.47218 361.669 8.25186 360.519 8.28253C359.183 8.31811 357.996 8.53007 357.706 8.53034C356.751 8.53043 357.544 8.42281 357.33 8.38324C357.113 8.34403 354.398 8.55021 354.262 8.53889C353.736 8.4934 354.27 8.36587 354.215 8.35944C353.564 8.28129 349.916 8.38115 348.895 8.3515C348.927 8.43423 350.977 8.4408 349.697 8.57368C348.206 8.7286 348.121 8.36389 348.082 8.34784C341.252 8.3513 334.423 8.35475 327.593 8.35821C327.678 8.55225 332.143 8.40592 332.245 8.43146C332.841 8.58271 325.299 8.57993 324.373 8.51142C325.076 8.55333 325.779 8.59524 326.482 8.63715C325.282 8.86023 322.626 8.57041 320.89 8.66889C320.329 8.70082 321.406 8.78692 321.383 8.7928C320.753 8.87944 319.742 8.81269 320.498 8.69636C318.959 8.80782 319.184 8.68484 318.003 8.67561C317.942 8.67522 318.449 8.76524 317.515 8.80256C317.077 8.81998 314.743 8.82027 314.43 8.899C314.301 8.93215 315.486 9.28125 315.632 8.98079C318.171 9.12725 316.443 8.84388 317.43 8.85078C317.581 8.85236 317.233 9.02006 319.717 8.94112C319.244 9.24355 316.384 9.0174 315.893 9.05404C314.882 9.12934 319.049 9.28551 319.814 9.04977C319.457 9.28577 320.11 9.08157 321.039 9.09127C322.056 9.10179 321.612 9.17207 322.163 9.17245C323.667 9.17421 323.044 9.00762 324.284 9.1578C323.075 8.69287 326.408 9.09645 327.379 9.21823C325.799 9.24183 324.218 9.26543 322.638 9.28903C322.728 9.31345 322.819 9.33786 322.909 9.36228C322.493 9.35882 322.076 9.35536 321.66 9.3519C321.727 9.3285 321.794 9.30511 321.86 9.28171C319.714 9.43384 319.19 9.26286 319.015 9.26096C316.762 9.24112 314.159 9.24259 311.881 9.24203C311.54 9.24195 311.774 9.39413 309.283 9.27499C308.488 9.23706 309.239 9.11867 308.338 9.13644C307.211 9.45812 307.233 9.20154 306.898 9.20114C305.936 9.20118 305.349 9.28087 305.26 9.28171C304.072 9.29414 302.333 9.28084 301.028 9.29269C301.004 9.29391 301.683 9.39274 300.835 9.3635C300.538 9.35306 297.868 8.93117 295.535 9.06869C296.142 9.09717 296.749 9.12565 297.356 9.15414C296.642 9.11433 291.642 9.22066 292.864 9.33359C293.614 9.40261 295.444 9.13068 295.644 9.39218C293.98 9.31392 284.79 9.43097 284.075 9.37021C283.976 9.36154 284.585 9.27669 284.448 9.26584C284.342 9.25757 282.237 9.27767 281.957 9.24508C281.791 9.22572 282.721 9.17372 282.646 9.14315C282.579 9.12136 279.95 9.08502 279.8 9.19137C280.446 9.14868 282.261 9.18596 281.309 9.2756C281.187 9.28673 280.552 9.21814 280.404 9.23227C279.024 9.36257 283.147 9.33129 283.785 9.33237C281.195 9.46786 277.189 9.30813 274.188 9.39646C272.975 9.30794 275.986 9.26104 274.614 9.18771C271.767 9.03569 273.856 9.31011 273.768 9.32138C273.061 9.41068 270.653 8.93208 270.652 9.29635C269.62 9.24152 269.954 9.19559 268.498 9.24325C268.689 9.26848 268.881 9.29371 269.072 9.31894C267.455 9.52995 264.034 8.99759 264.29 8.95698C264.98 8.8483 266.762 9.01783 266.914 9.01375C267.139 9.00772 267.762 8.63807 270.227 8.96858C271.237 8.72066 266.32 8.80125 268.557 8.63227C267.046 8.66 260.83 8.48744 259.935 8.59625C259.828 8.61046 260.325 8.85748 258.79 8.73176C258.061 8.67189 259.819 8.66901 259.485 8.61273C258.458 8.44002 244.497 8.5505 241.845 8.55963C241.672 8.5599 241.736 8.48324 241.566 8.48394C241.047 8.48608 239.153 8.60041 238.223 8.56512C240.15 8.70703 236.408 8.71807 235.456 8.70246C234.011 8.67868 234.1 8.54376 233.476 8.51507C231.071 8.40448 227.343 8.7248 225.474 8.42535C225.576 8.72255 222.242 8.27963 220.725 8.27702C219.536 8.27489 217.812 8.47157 219.416 8.59137C217.365 8.57768 215.206 8.63313 213.281 8.65118C212.963 8.65421 213.401 8.56633 212.859 8.57428C212.809 8.57563 212.741 8.66175 212.275 8.67071C208.428 8.74579 210.3 8.56277 209.581 8.50896C209.178 8.47884 208.881 8.46385 208.662 8.45891C210.905 8.44208 213.491 8.40826 214.183 8.40581C213.593 8.21563 209.213 8.44234 207.93 8.39116C207.886 8.3893 208.041 8.28448 207.995 8.28374C207.995 8.28374 207.994 8.28374 207.993 8.28374C207.512 8.2757 204.45 8.31439 205.081 8.43938C205.25 8.47277 206.659 8.47271 208.33 8.46136C207.878 8.4848 208.216 8.60223 208.136 8.60724C207.168 8.66528 204.797 8.55067 203.955 8.53521C203.763 8.53182 203.777 8.60705 203.745 8.60723C202.98 8.59015 203.294 8.37533 202.509 8.59686C201.124 8.32913 205.106 8.55711 204.825 8.38323C204.61 8.24936 195.765 8.32126 195.791 8.53216C195.761 8.5096 195.639 8.4816 195.39 8.44976C194.837 8.37899 192.375 8.40113 191.95 8.43999C191.878 8.44764 191.907 8.65234 191.818 8.65423C191.596 8.65893 188.587 8.49844 187.463 8.61944C188.07 8.64813 188.677 8.67682 189.284 8.7055C185.619 8.70728 186.185 8.7682 187.406 8.82941C187.467 8.82996 187.527 8.83773 187.585 8.83857C188.531 8.88382 189.745 8.92741 189.763 8.94355C189.833 9.00517 183.615 9.03946 184.811 8.84955C184.977 8.8236 187.854 8.90816 186.43 8.77264C186.181 8.7489 184.333 8.78758 184.236 8.77264C183.587 8.67334 187.621 8.54142 187.128 8.40032C186.149 8.53466 184.892 8.4639 183.769 8.49859C183.258 8.51426 183.133 8.6169 183.069 8.61883C182.127 8.64562 182.656 8.53802 182.341 8.5407C182.173 8.54255 180.316 8.77158 180.667 8.45586C174.549 8.68811 178.975 8.68788 182.727 8.6701C181.542 8.78509 179.217 8.72947 178.174 8.75616C177.799 8.76585 178.021 8.8712 177.389 8.89228C176.088 8.93562 169.874 8.8146 168.256 8.78607C169.25 8.74885 168.959 8.63409 168.192 8.64202C167.425 8.65001 168.069 8.80317 167.919 8.81964C167.759 8.83669 164.159 8.76439 163.56 8.78424C166.27 8.72876 165.659 8.61433 163.359 8.60235C163.691 8.56939 164.024 8.53643 164.356 8.50347C163.008 8.54979 160.173 8.37522 159.394 8.42717C159.271 8.43552 159.711 8.53174 159.642 8.53643C158.958 8.57731 156.633 8.47918 156.524 8.51201C156.433 8.53934 157.425 8.62001 157.056 8.65972C156.98 8.66809 156.023 8.53803 155.081 8.57C154.732 8.58176 154.942 8.67276 154.854 8.67803C154.12 8.7218 154.553 8.56857 153.212 8.59319C152.23 8.61141 151.498 8.76122 150.14 8.7116C154.598 8.90258 150.85 8.82281 148.986 8.88068C148.687 8.88991 148.943 9.0551 147.158 8.97468C150.957 8.67597 146.075 8.81679 145.077 8.81354C145.022 8.81252 145.003 8.70358 144.513 8.70184C144.472 8.70194 144.531 8.77555 144.076 8.78119C139.759 8.83441 142.519 8.75124 141.699 8.67864C141.35 8.64771 139.251 8.75181 138.685 8.75433C138.555 8.75459 138.615 8.67809 138.112 8.68108C137.222 8.68658 136.425 8.76802 135.837 8.77447C135.769 8.77485 135.766 8.65415 134.652 8.69329C134.339 8.70423 133.988 8.74709 134.432 8.7818C135.907 8.89594 138.704 8.69839 140.371 8.81232C141.891 8.91607 137.098 8.92585 136.849 8.92646C136.757 8.92683 137.693 8.8669 136.742 8.85504C135.93 8.84517 134.446 9.05364 133.236 9.00824C133.144 9.00488 132.177 8.82812 132.221 8.81781C132.262 8.81028 133.747 8.77191 133.531 8.72076C133.505 8.71493 132.562 8.71612 132.438 8.67803C132.288 8.63167 131.881 8.17673 131.679 8.16532C131.162 8.13714 131.499 8.2409 131.164 8.23368C130.447 8.21846 127.959 8.08392 127.878 8.24161C128.289 8.25097 128.7 8.26033 129.111 8.26969C126.824 8.28591 127.799 8.35303 127.475 8.38261C127.126 8.4146 127.224 8.276 126.453 8.26298C126.285 8.26011 123.059 8.28905 123.118 8.34721C124.902 8.25464 124.24 8.42594 124.323 8.429C124.635 8.44016 125.034 8.34407 125.454 8.34599C128.403 8.36103 125.429 8.51268 126.125 8.55168C126.365 8.56481 126.842 8.48279 126.944 8.48698C127.274 8.50057 127.28 8.60798 127.5 8.59929C128.014 8.57913 127.414 8.42714 127.455 8.41923C127.914 8.32412 129.715 8.44246 128.594 8.60784C129.267 8.66744 129.346 8.46645 129.88 8.5468C130.941 8.70591 129.351 8.66504 128.921 8.69146C127.375 8.78676 126.917 8.70962 124.73 8.73602C123.942 8.74533 123.009 8.84297 122.644 8.84833C122.414 8.8517 120.24 8.512 120.176 9.04365C119.331 8.9922 118.006 8.64187 117.135 8.65789C116.354 8.6725 116.602 8.86058 116.529 8.86786C116.417 8.87929 115.472 8.86447 115.153 8.89105C114.778 8.92245 114.965 8.99424 114.371 9.0235C112.892 9.09612 112.931 8.90414 112.779 8.89166C111.014 8.74745 111.787 9.02052 111.395 9.04242C111.031 9.06255 105.923 8.95745 104.847 9.02655C105.285 8.9881 105.723 8.94965 106.16 8.91119C105.377 8.79145 104.547 8.98676 104.532 8.77203C104.373 9.11871 102.757 8.88698 102.272 8.89593C102.081 8.89962 102.096 8.9587 101.856 8.96124C100.921 8.9716 98.8115 8.92457 98.3041 8.95453C96.1098 9.0835 101.721 9.29803 102.163 9.31099C101.278 9.30716 96.2756 9.38481 98.5751 9.55148C98.9306 9.57719 99.5604 9.42205 99.7601 9.41597C101.111 9.37603 100.049 9.51506 100.155 9.52828C100.335 9.54963 101.224 9.41522 101.459 9.43123C101.537 9.43636 101.033 9.56225 102.321 9.5649C101.688 9.68695 98.0656 9.58752 97.5903 9.61618C97.421 9.62641 98.4821 9.8872 95.3822 9.63388C95.4182 9.65809 95.4541 9.6823 95.4901 9.70651C93.764 9.71648 92.0379 9.72645 90.3119 9.73642C90.4995 9.68064 91.4686 9.5686 90.248 9.59237C89.5453 9.60613 90.0652 9.73037 90.0011 9.73398C89.3705 9.76817 78.209 9.72683 76.046 9.74069C75.3102 9.74519 73.2592 9.84504 73.1028 9.84689C72.1677 9.85689 68.8563 9.7919 68.1957 9.806C67.7832 9.81504 68.1753 9.91891 67.8068 9.91404C67.4643 9.90936 67.8191 9.80898 67.7174 9.80478C66.8747 9.7684 60.4733 9.90007 58.9533 9.80539C59.8823 9.83381 64.5184 9.63325 64.4252 9.56246C64.405 9.55275 63.2783 9.47639 63.0459 9.51363C62.6618 9.42671 61.3434 9.69134 60.6263 9.63937C60.5452 9.63346 60.8646 9.48503 59.5847 9.45808C59.1439 9.44888 57.9894 9.56458 56.8275 9.43489C55.1454 9.49721 46.3016 9.3047 45.6949 9.46419C45.6769 9.47261 46.9223 9.52752 46.0809 9.59298C44.9623 9.67998 45.9668 9.38692 44.6632 9.36164C44.4668 9.3578 40.8398 9.38745 40.721 9.40559C39.6225 9.57006 42.7918 9.63673 42.7475 9.65584C42.6369 9.70399 40.0036 9.73312 39.8965 9.72176C39.7947 9.70995 41.9423 9.49203 39.3616 9.57466C39.6572 9.60071 39.9528 9.62675 40.2485 9.65279C39.0348 9.70351 38.9191 9.55275 38.6251 9.54354C37.711 9.51438 36.7221 9.74338 35.2576 9.46052C34.8704 9.38546 35.5133 9.3021 35.4648 9.29084C34.9996 9.1898 34.4061 9.46009 33.7066 9.25849C33.6539 9.24345 35.2818 9.12268 32.4365 9.12238C32.6323 9.1417 32.8282 9.16103 33.024 9.18036C32.6228 9.22352 29.7419 9.24916 29.3543 9.23896C28.222 9.20914 29.2094 9.07039 28.0714 9.08697C28.8013 9.27713 25.3407 9.30194 25.5398 9.13825C25.0565 9.34384 22.1168 9.18524 20.7348 9.18036C19.8629 9.17743 18.0843 9.26715 17.8073 9.25666C17.4698 9.2438 17.5723 9.10355 16.9629 9.07232C16.7892 9.06342 14.975 9.16623 13.3826 9.02105C13.074 8.99308 12.4259 8.75518 12.9995 8.69572C13.9813 8.59398 15.8386 8.78563 15.8149 8.64506C15.7871 8.49468 13.2854 8.58412 12.6121 8.56449C9.5034 8.47372 11.2985 8.31386 11.2185 8.26541C11.0112 8.14781 9.31265 8.15146 9.24177 8.14089C8.94804 8.09393 10.1517 8.00086 10.1698 7.92909C10.1918 7.83565 8.55453 7.667 8.92674 7.6355C9.45954 7.59077 10.9642 7.73133 11.0596 7.72462C12.3014 7.63396 10.5992 7.41807 10.1301 7.312C9.9879 7.27937 10.5545 7.22574 10.4366 7.21617C8.63674 7.07096 10.0572 7.51959 8.86004 7.48962C7.79192 7.46291 9.16621 7.32105 9.12541 7.31322C9.07267 7.30463 7.79558 7.29689 7.59565 7.24669C7.49712 7.22156 10.8165 6.9456 10.6779 6.82187C9.61878 6.84914 8.55967 6.8764 7.50057 6.90366C7.41755 6.74233 8.94088 6.86109 9.09845 6.84446C9.41564 6.81108 8.53117 6.72944 8.56913 6.67843C8.5895 6.64599 9.62757 6.53022 8.68976 6.4825C8.36745 6.46602 7.69104 6.57914 6.51716 6.46358C10.6024 6.316 7.77141 6.22531 7.651 6.16816C7.53304 6.11102 9.48339 5.97652 7.11601 6.00031C7.01336 5.68635 7.16704 5.90107 7.83973 5.84588C8.6638 5.77805 6.75922 5.67467 9.77109 5.75311C9.59974 5.60611 7.17889 5.61651 7.05073 5.60478C6.94006 5.59415 7.47817 5.52185 7.28629 5.49736C5.01683 5.21333 6.57561 5.34303 5.91831 5.16165C5.85985 5.14544 3.71485 5.0782 5.34784 5.05178C8.32291 5.00376 9.56631 5.21206 10.0663 4.76674C7.86569 4.5733 5.1994 4.86075 4.53046 4.86562C3.50656 4.87264 4.56723 4.78182 4.44106 4.75636C4.39723 4.74814 3.5149 4.75564 3.50305 4.74843C2.8739 4.40878 7.43098 4.74279 8.86572 4.68373C8.48115 4.63286 8.09659 4.582 7.71202 4.53114C8.23376 4.5291 8.7555 4.52707 9.27725 4.52503C6.79166 4.42278 9.18962 4.48632 9.8094 4.2113C9.94855 4.1495 8.31561 4.25548 10.1784 4.08373C8.80448 4.04408 9.2427 3.9879 7.99867 4.06542C8.03077 3.95518 10.8298 3.83084 11.9338 3.77427C8.03365 3.65039 10.2577 4.05473 6.88612 3.8408C6.26089 3.9773 7.87021 3.95072 7.73898 3.97325C7.26815 4.05426 6.1644 3.92563 4.83272 4.20947C4.61589 4.25607 5.53339 4.39951 4.17569 4.39258C4.02553 4.3916 3.16041 4.26902 3.17241 4.26013C3.2871 4.16412 4.14319 4.2001 4.17853 4.16003C4.2117 4.12209 3.25659 4.14491 3.25329 4.13439C3.22395 4.01412 4.0502 4.08842 3.93019 4.05077C3.67103 3.96888 0.235525 3.71006 4.71919 3.78587C0.995029 3.92185 4.24239 3.91867 5.69268 3.86644C6.06253 3.85334 6.15619 3.7815 6.68319 3.75657C7.36108 3.72428 8.1545 3.75877 8.50528 3.74558C8.88254 3.73105 6.73897 3.56124 9.8392 3.61191C8.2614 3.443 5.47441 3.62308 3.92452 3.50448C0.797553 3.26482 6.10477 3.21337 6.65765 3.19014C6.80494 3.18385 6.31112 3.08683 6.40931 3.08088C6.56987 3.07177 9.58194 3.11662 9.87894 3.03633C10.1751 2.95611 8.77568 3.04002 8.68266 2.95637C8.6196 2.90005 12.2532 2.80015 10.2862 2.76166C8.93047 2.73527 6.43148 2.96163 6.01055 2.71832C8.00435 2.69818 9.99814 2.67804 11.9919 2.6579C10.9007 2.56532 9.8094 2.47275 8.71814 2.38017C10.956 2.35082 12.8906 2.45533 15.016 2.3228C9.90869 2.02616 16.6743 2.08606 16.7487 2.04996C16.7736 2.02837 14.7633 1.7876 14.4398 1.74355C16.2212 1.65093 21.6339 1.60567 18.4672 1.30836C19.042 1.37549 20.4339 1.20978 20.4155 1.19727C20.2388 1.06592 17.2029 1.1511 17.698 1.03247C18.2718 0.894804 19.0759 1.08156 19.9586 1.06665C24.4883 0.988896 23.2456 0.303218 27.7876 0.411718C27.6973 0.387303 27.6069 0.362888 27.5166 0.338473C32.4535 0.377334 37.3905 0.416195 42.3274 0.455056C44.259 0.245663 49.3997 0.118157 51.9246 0.141324C52.433 0.145836 54.9292 0.255731 55.1175 0.274997C55.4663 0.311921 53.5483 0.326009 54.4151 0.39524C54.5981 0.409451 58.824 0.455626 58.5219 0.338476C58.0483 0.324893 56.5663 0.383781 56.3237 0.356177C54.6199 0.159149 67.6481 0.316554 68.2936 0.237155C68.005 0.199108 67.7165 0.161061 67.4279 0.123014C68.2501 0.141732 69.0722 0.160451 69.8943 0.179169ZM32.1172 9.58809C31.6238 9.70564 30.3872 9.61735 29.6565 9.65035C28.647 9.69656 26.931 10.1492 27.6698 9.69552C29.1523 9.65971 30.6347 9.6239 32.1172 9.58809ZM53.7836 9.76327C52.7895 9.70013 53.5605 9.44675 54.3753 9.55208C54.4657 9.56405 55.1286 9.84825 53.7836 9.76327ZM43.3619 9.64303C43.4038 9.63967 44.2628 9.64638 44.2928 9.65035C45.0632 9.75209 42.4732 9.73129 43.3619 9.64303ZM93.7063 9.51302C92.611 9.52396 93.4042 9.75431 94.0852 9.65951C94.128 9.65349 93.7784 9.51248 93.7063 9.51302ZM92.9272 9.50692C92.0766 9.30065 90.3632 9.71869 91.7253 9.6766C91.8574 9.67235 92.9666 9.51696 92.9272 9.50692ZM50.2402 9.66256C50.352 9.5835 51.3774 9.62168 51.8153 9.64059C51.8034 9.71276 50.6696 9.65372 50.2402 9.66256ZM76.239 9.64059C76.2825 9.57844 72.7183 9.58187 72.4756 9.66378C73.0381 9.62903 76.198 9.69644 76.239 9.64059ZM85.3792 9.55331C85.2888 9.54256 84.0576 9.5589 84.0935 9.61373C84.6945 9.68567 85.786 9.60194 85.3792 9.55331ZM103.546 9.55697C103.613 9.54319 102.691 9.19422 104.876 9.42391C105.197 9.45754 104.051 9.54872 104.165 9.56124C104.404 9.58566 104.592 9.59705 104.744 9.59908C103.726 9.62801 102.669 9.64162 102.567 9.62045C102.087 9.52047 103.517 9.56272 103.546 9.55697ZM113.084 9.29695C113.293 9.24003 114.632 9.27046 114.937 9.2939C114.989 9.29831 114.761 9.44791 115.364 9.43673C115.848 9.42749 115.125 9.27426 116.068 9.29878C117.021 9.32339 115.748 9.43259 115.831 9.44039C115.943 9.45061 117.417 9.3818 117.371 9.47091C117.337 9.53691 115.757 9.49228 115.367 9.50631C114.867 9.52434 115.473 9.63431 114.638 9.61068C114.113 9.59593 114.404 9.40255 114.293 9.39278C114.2 9.38491 112.364 9.4962 113.087 9.29756C113.086 9.29736 113.085 9.29715 113.084 9.29695ZM105.019 9.59054C104.943 9.59707 104.853 9.60055 104.744 9.59908C104.836 9.59646 104.928 9.59341 105.019 9.59054ZM34.9894 9.50325C35.5061 9.56289 33.9724 9.63937 33.3915 9.56124C33.3815 9.49823 34.9071 9.49397 34.9894 9.50325ZM105.963 9.43306C107.474 9.48151 106.363 9.54814 105.019 9.59054C105.446 9.55414 105.455 9.41688 105.963 9.43306ZM63.0459 9.51363C63.1096 9.52805 63.15 9.55054 63.1551 9.58748C62.9876 9.54708 62.9725 9.52537 63.0459 9.51363ZM66.5722 9.57955C67.7811 9.46701 65.325 9.47155 65.3405 9.55208C65.3478 9.58248 66.5238 9.58403 66.5722 9.57955ZM95.1112 9.52401C95.0006 9.513 96.7185 9.17317 94.2243 9.42818C95.5555 9.46823 94.151 9.50524 94.1718 9.53499C94.2261 9.62053 96.4623 9.53831 96.9574 9.57528C97.3451 9.42224 95.4763 9.56029 95.114 9.52401C95.1131 9.52401 95.1121 9.52401 95.1112 9.52401ZM130.273 9.37935C129.97 9.46903 129.009 9.44017 128.36 9.4349C128.663 9.34522 129.624 9.37407 130.273 9.37935ZM300.012 9.39219C295.568 9.47509 294.992 9.1099 299.059 9.25424C299.138 9.25727 300.282 9.35517 300.012 9.39219ZM261.868 9.29757C261.449 9.13841 262.835 9.11281 263.745 9.17855C263.951 9.19334 264.713 9.35455 263.843 9.38608C263.871 9.19315 262.526 9.11946 261.868 9.29757ZM106.817 9.33113C107.257 9.22499 108.612 9.30054 109.326 9.31648C108.89 9.40388 107.448 9.36435 106.817 9.33113ZM285.407 9.20175C284.939 9.18969 284.622 9.32817 284.703 9.33969C285.065 9.39254 285.941 9.28058 285.407 9.20175ZM102.444 9.31465C102.382 9.25122 104.176 9.19016 104.301 9.347C103.917 9.33565 102.488 9.35445 102.444 9.31465ZM129.05 9.33174C128.771 9.29949 130.214 9.24175 130.65 9.27376C130.615 9.34127 129.232 9.35271 129.05 9.33174ZM277.865 9.24874C277.445 9.23672 276.397 9.23305 276.281 9.28903C276.137 9.359 277.674 9.33515 277.865 9.24874ZM355.922 9.1279C355.975 9.15305 354.352 9.33429 353.63 9.28843C352.26 9.20067 355.865 9.11014 355.922 9.1279ZM289.842 9.13033C291.165 9.26203 289.696 9.13449 289.754 9.27316C290.644 9.27816 292.859 9.285 291.336 9.14864C291.039 9.12227 290.257 9.13931 289.842 9.13033ZM288.621 9.08394C288.48 9.12887 287.526 9.27049 288.35 9.26034C288.731 9.25544 289.346 9.09808 288.621 9.08394ZM345.865 9.18954C344.68 9.06678 350.115 9.13265 350.272 9.15414C350.354 9.1655 350.408 9.1762 350.439 9.18527C350.639 9.14636 351.665 9.13935 351.784 9.23777C351.476 9.22964 350.636 9.2383 350.538 9.22739C350.496 9.22275 350.465 9.21839 350.443 9.21396C350.081 9.29939 346.093 9.21282 345.865 9.18954ZM336.858 9.0632C338.215 8.88209 338.456 9.19001 338.339 9.19992C336.861 9.32595 337.825 9.09886 337.779 9.08822C337.676 9.07053 336.627 9.1759 336.863 9.0632C336.861 9.0632 336.86 9.0632 336.858 9.0632ZM344.019 9.13888C344.075 9.13487 345.214 9.1444 345.261 9.14926C346.194 9.25275 342.971 9.22624 344.019 9.13888ZM120.273 9.08149C121.088 9.1121 120.288 9.22539 119.746 9.18464C119.702 9.18063 119.553 9.05445 120.273 9.08149ZM287.97 9.11446C287.781 9.09306 282.944 9.01233 283.235 9.18344C283.645 9.16324 289.143 9.25131 287.97 9.11446ZM251.822 9.07295C252.675 9.07428 251.745 9.23565 251.29 9.1755C251.121 9.15315 251.607 9.07272 251.822 9.07295ZM100.024 9.16816C99.1384 9.25681 99.3215 8.9594 100.089 9.06134C100.119 9.06534 100.059 9.1647 100.024 9.16816ZM258.636 9.16573C255.695 9.26353 256.391 8.75193 260.216 8.92463C260.096 8.94742 259.976 8.97021 259.857 8.993C264.271 9.06974 260.159 9.02905 259.078 9.0577C258.667 9.06858 259.011 9.15398 258.639 9.16634C258.638 9.16614 258.637 9.16594 258.636 9.16573ZM247.336 9.06319C244.503 8.70007 249.912 8.93654 251.463 8.88923C249.959 9.03918 248.001 9.01649 250.664 9.17C246.771 9.19969 248.391 9.05507 248.236 9.04305C248.052 9.02956 247.457 9.07878 247.336 9.06319ZM254.809 9.06075C254.973 9.05016 256.207 9.12408 256.651 9.11202C256.03 9.23606 253.722 9.13279 254.809 9.06075ZM327.416 9.14743C327.518 9.05024 327.772 8.97865 328.746 9.01498C328.445 9.06381 327.823 9.10581 327.416 9.14743ZM31.1806 9.0766C30.51 9.06963 29.1747 9.033 29.5842 9.13519C29.629 9.1439 31.1786 9.13395 31.1806 9.0766ZM273.921 9.03572C273.779 9.02377 270.09 9.01575 271.364 9.12301C271.748 9.15535 275.104 9.14162 273.921 9.03572ZM293.022 9.04793C292.713 9.04692 291.459 9.06523 291.433 9.08822C291.348 9.16768 292.887 9.124 293.022 9.04793ZM27.7975 8.97711C27.7092 8.96702 25.6609 8.98489 25.8861 9.03204C26.3135 9.12121 28.1003 9.01184 27.7975 8.97711ZM123.24 8.85382C123.411 8.85023 123.638 8.9558 123.697 8.95697C123.836 8.95848 126.971 8.91787 125.773 9.05341C125.573 9.07613 121.064 9.02407 120.477 9.01069C120.25 8.86576 122.177 9.00363 122.645 8.98871C122.728 8.98588 122.781 8.86463 123.239 8.85443C123.239 8.85423 123.24 8.85402 123.24 8.85382ZM332.489 9.04488C332.627 8.95274 336.312 8.89173 336.27 9.00338C335.009 9.01721 333.749 9.03105 332.489 9.04488ZM330.617 9.02963C329.831 8.96444 331.673 8.94288 332.215 8.97164C332.221 9.03363 330.732 9.03916 330.617 9.02963ZM286.033 8.70368C285.663 8.72621 286.801 8.86066 286.547 8.88679C286.383 8.90307 285.556 8.85268 285.292 8.89473C285.217 8.90809 286.061 9.03447 286.305 9.02901C286.652 9.02172 286.316 8.92227 286.694 8.92159C287.951 8.91945 289.064 8.99038 290.242 8.98873C290.348 8.98838 289.524 8.91815 290.431 8.91914C290.571 8.91916 291.413 9.02377 292.498 9.00826C294.895 8.68429 296.654 9.00239 299.696 8.88557C299.581 8.85506 297.307 8.77324 297.173 8.77021C294.631 8.71694 290.076 8.71109 287.414 8.7104C286.731 8.71011 287.062 8.77869 286.768 8.7812C286.535 8.78305 286.812 8.65608 286.033 8.70368ZM31.5368 9.0064C31.2172 8.87959 30.096 8.95985 29.3798 8.9533C29.6319 9.06769 30.837 8.9783 31.5368 9.0064ZM314.074 8.93135C313.715 8.93625 312.602 8.89805 312.51 8.93624C312.392 8.9861 313.998 9.01755 314.074 8.93135ZM140.913 8.88983C140.948 8.88638 141.811 8.89316 141.844 8.89716C142.616 8.99894 140.025 8.97808 140.913 8.88983ZM161.571 8.91425C162.225 8.89859 162.886 8.85897 163.106 8.96186C162.689 8.9461 161.494 8.98592 161.571 8.91425ZM190.07 8.9112C189.935 8.77646 191.906 8.86371 192.278 8.8758C192.14 8.93568 190.169 9.00829 190.07 8.9112ZM327.274 8.72444C328.479 8.73241 328.225 8.5283 328.99 8.62067C329.115 8.63629 329.518 9.0613 328.194 8.90206C327.955 8.87343 328.888 8.77243 327.274 8.72444ZM260.839 8.92891C261.145 8.83977 262.103 8.86622 262.75 8.87336C262.605 8.93959 261.299 8.92255 260.839 8.92891ZM24.098 8.87517C23.5329 8.74933 20.9217 8.84268 21.5678 8.92583C21.6597 8.93668 23.7317 8.87042 24.098 8.87517ZM109.881 8.92462C110.955 8.82552 108.73 8.79483 108.028 8.89166C108.346 8.88532 109.808 8.93114 109.881 8.92462ZM183.224 8.83795C183.276 8.83389 184.415 8.84345 184.466 8.84833C185.399 8.95182 182.176 8.92531 183.224 8.83795ZM154.777 8.75067C155.188 8.66912 157.886 8.73492 158.491 8.81659C157.909 8.93583 154.268 8.85253 154.777 8.75067ZM322.316 8.78242C323.175 8.7782 323.991 8.80332 324.781 8.83858C324.615 8.90724 322.407 8.83371 322.316 8.78242ZM187.406 8.82941C187.467 8.82996 187.527 8.83773 187.585 8.83857C187.524 8.83565 187.464 8.83233 187.406 8.82941ZM303.075 8.7342C302.354 8.70708 302.504 8.83289 302.548 8.83674C303.09 8.87749 303.89 8.76481 303.075 8.7342ZM30.7137 8.81963C30.464 8.7061 29.2523 8.79416 28.5553 8.76714C28.7575 8.85681 30.1523 8.83154 30.7137 8.81963ZM244.302 8.83064C243.397 8.70753 247.08 8.56453 247.856 8.64386C247.913 8.71992 244.435 8.84748 244.302 8.83064ZM106.545 8.75433C106.472 8.66536 104.926 8.77272 105.255 8.81475C105.463 8.8415 106.588 8.8096 106.545 8.75433ZM249.708 8.69574C250.054 8.66859 250.86 8.75638 250.576 8.80988C250.212 8.87846 249.618 8.70352 249.708 8.69574ZM280.75 8.62433C280.599 8.61074 278.564 8.70205 279.405 8.7928C279.988 8.85586 280.081 8.72726 280.218 8.72688C280.371 8.72728 283.637 8.88466 280.75 8.62433ZM223.678 8.75312C224.445 8.71891 225.373 8.75862 226.177 8.75617C225.849 8.81119 224.004 8.82619 223.678 8.75312ZM112.508 8.73052C112.321 8.69455 107.243 8.67288 110.128 8.78362C110.296 8.78988 113.074 8.83949 112.508 8.73052ZM327.274 8.72444C327.122 8.72343 326.947 8.71919 326.743 8.7104C326.945 8.71386 327.121 8.71989 327.274 8.72444ZM313.589 8.71101C313.866 8.64625 312.468 8.62893 312.056 8.6634C311.929 8.74252 313.55 8.72006 313.589 8.71101ZM226.238 8.66583C226.7 8.62877 227.541 8.66832 228.114 8.664C228.017 8.72421 226.438 8.72699 226.238 8.66583ZM193.734 8.59808C194.653 8.63386 195.784 8.6174 195.801 8.54376C195.82 8.55527 195.865 8.56749 195.939 8.57977C196.014 8.59193 196.998 8.55768 197.426 8.58282C199.987 8.73213 187.536 8.67052 194.753 8.46258C194.413 8.50774 194.073 8.55291 193.734 8.59808ZM151.126 8.57732C150.605 8.48768 149.143 8.60001 149.523 8.63531C149.787 8.65949 151.648 8.66758 151.126 8.57732ZM171.2 8.52422C171.044 8.50822 169.618 8.571 169.581 8.61822C170.401 8.66797 171.911 8.59855 171.2 8.52422ZM147.116 8.47234C146.788 8.45881 146.371 8.60337 146.409 8.60967C146.742 8.66244 147.666 8.55282 147.116 8.47234ZM324.778 8.33502C324.291 8.29362 322.738 8.39825 322.4 8.49372C322.337 8.47526 322.167 8.45119 321.856 8.4223C321.857 8.4223 321.858 8.4223 321.859 8.4223C321.439 8.38374 308.887 8.34161 317.306 8.52545C317.57 8.53135 317.21 8.44566 318.283 8.46075C318.354 8.46185 318.389 8.53182 318.608 8.53522C319.112 8.54261 321.795 8.58664 322.334 8.53034C322.339 8.54331 322.374 8.55564 322.448 8.56696C323.109 8.66786 325.156 8.36694 324.778 8.33502ZM174.029 8.5114C173.742 8.48548 172.833 8.5101 172.739 8.57183C173.189 8.60209 174.695 8.57188 174.029 8.5114ZM112.35 8.47722C111.765 8.42644 110.283 8.52137 110.731 8.57182C111.006 8.60286 113.025 8.53551 112.35 8.47722ZM164.927 8.54436C168.28 8.61734 165.727 8.53846 166.241 8.44792C165.803 8.48007 165.365 8.51222 164.927 8.54436ZM340.3 8.56879C339.765 8.54796 340.393 8.36932 340.982 8.46625C341.167 8.49703 340.599 8.58011 340.3 8.56879ZM364.448 8.51325C363.992 8.35484 366.221 8.44792 365.352 8.55659C365.312 8.56025 364.481 8.51928 364.448 8.51325ZM347.574 8.44855C347.211 8.55641 346.974 8.5692 345.952 8.54255C347.466 8.51216 346.062 8.41677 347.574 8.44855ZM195.791 8.53216C195.797 8.53652 195.802 8.53974 195.801 8.54376C195.795 8.53979 195.792 8.53603 195.791 8.53216ZM143.963 8.50041C143.543 8.40905 142.366 8.41577 142.717 8.50774C142.751 8.51625 143.791 8.56793 143.963 8.50041ZM322.4 8.49372C322.455 8.51008 322.427 8.52067 322.334 8.53034C322.33 8.51813 322.354 8.5066 322.4 8.49372ZM150.28 8.42595C150.238 8.49412 152.029 8.52063 152.101 8.51262C153.129 8.3944 151.02 8.42185 150.28 8.42595ZM100.509 8.38139C100.417 8.3885 101.013 8.56447 101.378 8.49553C101.661 8.44203 100.855 8.35431 100.509 8.38139ZM351.046 8.4046C351.613 8.40472 352.412 8.40464 352.559 8.48822C352.179 8.47539 351.035 8.46594 351.046 8.4046ZM363.575 8.3985C362.905 8.49676 361.374 8.49648 360.397 8.48029C360.379 8.35095 362.946 8.42892 363.575 8.3985ZM326.316 8.38324C326.27 8.37798 324.848 8.33938 325.042 8.42596C325.326 8.55293 326.717 8.43032 326.316 8.38324ZM103.271 8.47477C103.907 8.41515 102.443 8.2319 101.772 8.37345C101.428 8.44594 103.164 8.48476 103.271 8.47477ZM140.289 8.38078C139.449 8.43088 141.529 8.52014 141.82 8.42961C141.433 8.42235 140.587 8.36304 140.289 8.38078ZM168.842 8.28923C166.197 8.02813 167.638 8.50445 168.107 8.46257C168.173 8.45659 168.906 8.29537 168.842 8.28923ZM17.5362 8.3533C17.1619 8.38958 18.5576 8.521 18.7382 8.43448C18.8498 8.38034 17.7757 8.33018 17.5362 8.3533ZM208.662 8.45891C208.551 8.45975 208.44 8.46061 208.33 8.46136C208.413 8.45709 208.521 8.45571 208.662 8.45891ZM132.671 8.03103C134.533 8.39968 134.337 8.11555 134.499 8.1171C134.848 8.12107 135.661 8.22075 136.32 8.20438C135.565 8.24589 134.811 8.28739 134.056 8.3289C134.652 8.35551 139.83 8.49122 139.938 8.43144C140.094 8.34631 138.464 8.37302 138.417 8.36552C138.349 8.35484 138.094 8.11816 137.943 8.10916C137.694 8.09478 133.365 8.08987 132.671 8.03103ZM163.312 8.33012C163.737 8.35826 163.858 8.45203 164.055 8.42961C164.123 8.42194 164.134 8.3325 164.363 8.30937C164.013 8.31629 163.662 8.3232 163.312 8.33012ZM129.338 8.36247C128.811 8.25318 131.173 8.29468 131.249 8.30692C131.653 8.38101 129.768 8.45175 129.338 8.36247ZM149.386 8.3466C149.3 8.34022 147.486 8.3061 147.5 8.36674C147.98 8.41297 150.406 8.42644 149.386 8.3466ZM164.647 8.30326C165.285 8.3137 166.49 8.40376 166.351 8.26908C166.35 8.26908 166.349 8.26908 166.349 8.26908C165.781 8.28048 165.214 8.29187 164.647 8.30326ZM105.448 8.19034C104.266 7.97584 104.826 8.24688 105.872 8.31608C106.189 8.21978 105.641 8.22524 105.448 8.19034ZM101.667 8.03042C101.339 7.99183 97.952 8.03412 98.4687 8.14761C98.6524 8.18806 100.6 8.08605 100.69 8.0939C100.826 8.10553 100.204 8.23109 101.243 8.20621C101.182 8.16367 101.78 8.04331 101.667 8.03042ZM104.47 8.05301C103.296 7.88988 103.032 8.19074 103.915 8.19156C104.26 8.19209 104.637 8.07654 104.47 8.05301ZM109.265 8.07864C108.843 8.05011 107.718 8.00849 106.942 8.10855C107.98 8.1171 109.018 8.12564 110.055 8.13419C110.175 8.0775 109.635 8.10372 109.262 8.07864C109.263 8.07864 109.264 8.07864 109.265 8.07864ZM370.629 7.6276C369.697 7.54228 371.846 7.50959 371.936 7.53055C372.206 7.60013 371.047 7.6657 370.629 7.6276ZM10.2507 5.62004C9.99157 5.58603 9.82214 5.47413 9.25171 5.53276C9.82549 5.61536 10.3993 5.69797 10.973 5.78057C11.4189 5.5913 10.534 5.65756 10.2507 5.62004ZM8.05969 4.92849C8.14074 4.9239 7.69799 4.63286 8.7451 4.82717C9.45259 4.95837 5.60525 5.08623 4.91077 4.95718C5.67813 4.89721 7.36199 4.96585 8.05969 4.92849ZM1.32052 3.66868C1.27616 3.64547 2.73785 3.61142 2.90704 3.62778C3.79542 3.71403 1.56053 3.79302 1.32052 3.66868ZM5.98359 3.72422C5.29808 3.6677 6.81669 3.63127 7.26927 3.66379C7.31316 3.71797 6.08948 3.73245 5.98359 3.72422ZM361.184 3.41235C360.442 3.21455 359.779 3.64036 360.92 3.55457C360.975 3.55053 361.216 3.42204 361.184 3.41235ZM2.74952 3.37509C3.43503 3.4316 1.91642 3.46804 1.46385 3.43551C1.42176 3.3814 2.64515 3.36682 2.74952 3.37509ZM360.662 2.94114C359.677 2.7988 360.024 3.27652 360.147 3.29577C360.654 3.37179 362.393 3.18429 362.748 3.13768C360.145 3.20937 361.126 3.00821 360.662 2.94114ZM356.118 3.22802C355.204 3.27898 357.54 3.37645 357.986 3.24328C357.531 3.24965 356.378 3.21328 356.118 3.22802ZM350.571 3.07481C350.08 3.0577 348.618 3.01674 348.373 3.0919C348.909 3.07829 350.364 3.15215 350.571 3.07481ZM349.458 2.84958C348.69 2.74745 348.506 3.04503 349.392 2.9564C349.426 2.95297 349.487 2.85526 349.458 2.84958ZM345.14 2.74216C344.636 2.62381 344.061 2.91201 344.878 2.91978C345.12 2.92155 345.193 2.75572 345.14 2.74216ZM359.429 2.4272C358.707 2.37639 357.778 2.58277 359.318 2.60543C358.777 2.63697 358.236 2.66851 357.695 2.70004C359.713 2.81572 359.565 2.52951 360.144 2.54134C360.954 2.55816 360.89 2.79434 360.727 2.86851C361.391 2.72381 364.212 2.72149 365.842 2.69394C364.409 2.63321 362.084 2.52794 360.67 2.48946C360.267 2.47832 359.875 2.5431 359.531 2.53585C358.979 2.52389 359.469 2.43063 359.432 2.4272C359.431 2.4272 359.43 2.4272 359.429 2.4272ZM339.464 2.73788C337.983 2.60383 338.919 2.89326 339.756 2.84165C339.792 2.83767 339.501 2.74116 339.464 2.73788ZM0.78553 2.49554C2.76436 2.61652 1.32599 2.77686 5.46563 2.53338C3.72647 2.70575 5.36945 2.65734 5.02997 2.72687C4.75764 2.78188 3.73722 2.73632 4.33037 2.84711C3.55072 2.72652 0.165877 2.75988 0.0149747 2.7403C0.0163937 2.7403 0.0178128 2.7403 0.0192319 2.7403C-0.0714016 2.7287 0.154091 2.45706 0.78553 2.49554ZM350.564 2.31795C350.07 1.96675 349.876 2.52417 348.905 2.2331C347.612 2.65578 352.477 2.23317 353.066 2.59017C347.782 2.54869 356.556 2.94392 352.868 2.4095C355.906 2.60347 353.864 2.34332 354.333 2.27522C354.835 2.20268 356.553 2.28152 356.466 2.1507C356.465 2.1507 356.464 2.1507 356.463 2.1507C355.412 2.15986 354.361 2.16902 353.31 2.17817C354.339 2.46035 352.191 2.37574 351.462 2.14582C351.163 2.2032 350.863 2.26057 350.564 2.31795ZM356.513 2.58285C356.409 2.57639 354.123 2.61594 354.27 2.67257C354.576 2.7087 357.82 2.66539 356.513 2.58285ZM366.574 2.5212C365.753 2.52051 364.484 2.46546 364.036 2.57186C364.857 2.57258 366.127 2.62766 366.574 2.5212ZM324.307 2.50106C323.26 2.58837 326.482 2.61423 325.55 2.51082C325.504 2.50595 324.358 2.49698 324.307 2.50106ZM348.184 2.37105C347.12 2.26372 347.623 2.60534 348.411 2.51632C348.457 2.51107 348.233 2.37594 348.184 2.37105ZM2.38908 2.45403C2.46024 2.37033 5.33133 2.42912 5.84026 2.42839C5.55111 2.50619 2.30745 2.54998 2.38908 2.45403ZM368.018 2.20808C366.385 1.90712 364.169 2.25474 363.926 2.24714C363.684 2.2394 364.063 2.10785 364.008 2.10432C363.883 2.09694 361.309 2.10798 361.184 2.11713C361.095 2.12427 361.561 2.30915 361.029 2.36739C362.066 2.26234 366.771 2.32806 367.015 2.30757C367.204 2.29121 365.778 2.09707 368.016 2.20808C368.016 2.20808 368.017 2.20808 368.018 2.20808ZM363.318 2.20686C363.961 2.28435 362.158 2.29405 361.722 2.26546C360.752 2.20146 363.236 2.19768 363.318 2.20686ZM358.982 2.13545C358.776 2.11806 356.918 2.10227 356.759 2.18855C357.639 2.30046 359.449 2.17595 358.982 2.13545ZM338.303 2.14704C337.82 2.15809 336.493 2.0918 336.417 2.16718C336.9 2.15619 338.227 2.22243 338.303 2.14704ZM12.1849 1.79605C11.3831 1.73297 13.2408 1.7072 13.7828 1.73745C13.8122 1.78774 12.2532 1.80146 12.1849 1.79605ZM348.004 1.6502C347.718 1.62727 341.888 1.68448 341.07 1.71978C341.87 1.77679 347.648 1.78117 347.91 1.75335C347.987 1.74502 348.04 1.6538 348.004 1.6502ZM360.612 1.61541C361.147 1.50439 361.496 1.63754 361.563 1.63921C362.224 1.6562 363.595 1.63117 363.294 1.73809C362.128 1.69495 359.548 1.83587 360.612 1.61541ZM337.889 1.6447C335.909 1.6859 339.712 1.80286 339.213 1.68682C339.181 1.6798 338.093 1.64038 337.889 1.6447ZM348.655 1.61785C349.092 1.52814 354.924 1.60551 355.86 1.60564C355.021 1.7711 354.345 1.64542 353.219 1.65386C352.915 1.65633 352.996 1.72516 352.963 1.72527C352.437 1.72846 352.831 1.64896 352.507 1.64776C352.302 1.64721 348.041 1.74424 348.655 1.61785ZM360.917 1.5385C361.243 1.47486 364.885 1.44773 365.031 1.46464C366.127 1.59043 361.2 1.56065 360.917 1.5385ZM348.12 1.47075C348.747 1.27845 351.644 1.40723 349.661 1.5031C349.472 1.51182 348.67 1.42846 348.12 1.47075ZM338.1 1.46159C338.003 1.45593 335.939 1.4175 335.902 1.47868C336.2 1.50246 339.208 1.52379 338.1 1.46159ZM339.17 1.25467C339.12 1.25614 339.604 1.37398 338.637 1.35905C338.556 1.35764 338.405 1.22506 337.189 1.27359C336.942 1.28359 336.56 1.3713 336.587 1.37675C337.854 1.58481 341.669 1.18632 339.17 1.25467ZM360.984 1.43107C360.788 1.37511 361.261 1.20901 361.688 1.29313C361.871 1.32945 361.529 1.42913 360.984 1.43107ZM331.555 1.40788C332.755 1.30714 328.989 1.2881 328.797 1.31388C328.918 1.37663 331.435 1.41771 331.555 1.40788ZM14.0624 1.01843C14.0614 1.01843 14.0605 1.01843 14.0595 1.01843C15.0688 1.04126 14.4437 1.12505 14.4909 1.12769C16.6407 1.25077 16.0705 1.06097 16.4067 1.03857C17.1275 0.990129 17.0114 1.22094 18.2273 1.12525C16.2174 1.26656 18.0469 1.20732 18.1039 1.28944C18.3291 1.62454 15.4278 1.13252 14.4256 1.20276C14.286 1.21249 15.317 1.31944 14.9592 1.34986C13.7961 1.44845 10.1896 0.931143 14.0624 1.01843ZM362.017 1.27848C362.485 1.18005 366.037 1.27552 365.095 1.35661C364.944 1.36961 361.329 1.42195 362.017 1.27848ZM196.114 1.1332C196.967 1.04801 194.989 0.947872 194.622 1.01417C194.44 1.0472 195.739 1.17058 196.114 1.1332ZM182.244 0.768801C181.229 0.786093 180.16 1.14132 181.422 1.0862C181.556 1.08017 182.36 0.818076 182.244 0.768801ZM248.843 0.951309C247.784 0.824361 247.847 1.06023 248.625 1.0569C248.899 1.05577 248.877 0.955326 248.843 0.951309ZM208.423 0.981824C208.317 0.97359 207.092 0.988651 207.137 1.04286C207.589 1.07539 209.108 1.03834 208.423 0.981824ZM249.18 0.917738C248.552 0.960249 249.633 1.13085 250.4 0.964127C250.01 0.977802 249.244 0.913395 249.18 0.917738ZM345.932 0.949486C345.406 1.04634 343.918 1.01707 343.064 1.03372C342.972 0.908238 345.321 0.972235 345.932 0.949486ZM186.549 0.911629C185.589 1.00007 187.646 1.07247 187.457 0.955576C187.431 0.949226 186.587 0.907858 186.549 0.911629ZM283.012 0.904923C282.314 0.979773 284.53 1.08043 283.92 0.94887C283.89 0.943506 283.05 0.90076 283.012 0.904923ZM292.688 0.948261C292.159 0.923013 289.901 0.93078 290.78 1.0038C290.916 1.01503 292.649 1.01682 292.688 0.948261ZM16.4663 0.948236C16.181 0.819338 17.837 0.850021 18.0741 0.87255C18.1672 0.88192 16.8384 1.11594 16.4663 0.948236ZM241.965 0.931166C241.417 0.947292 239.996 0.916646 239.746 0.984268C240.416 0.970271 242.145 1.06587 241.965 0.931166ZM190.927 0.911019C190.091 0.770953 188.662 0.784777 189.015 0.967784C190.593 0.95552 188.82 0.803292 190.927 0.911019ZM252.709 0.766976C252.27 0.756291 251.933 0.932043 251.982 0.940322C252.459 1.0191 253.146 0.835356 252.709 0.766976ZM219.734 0.911632C219.709 0.836525 218.3 0.870614 218.488 0.918956C218.55 0.935185 219.755 0.972414 219.734 0.911632ZM327.484 0.906758C326.839 0.838204 328.81 0.771182 329.393 0.851214C329.676 0.966535 327.566 0.914633 327.484 0.906758ZM264.895 0.810924C264.96 0.699462 262.758 0.76248 263.626 0.854871C263.843 0.877989 264.872 0.848193 264.895 0.810924ZM285.972 0.677254C284.495 0.810173 290.696 0.904539 289.067 0.738902C288.95 0.7271 286.101 0.666029 285.972 0.677254ZM296.1 0.760265C295.845 0.745619 295.972 0.371077 297.027 0.515506C297.165 0.534236 296.517 0.633246 296.631 0.655892C296.697 0.668797 298.99 0.7214 299.096 0.712656C299.209 0.702728 299.075 0.582683 299.191 0.569219C299.32 0.55417 300.732 0.659623 301.471 0.660775C302.864 0.662752 303.014 0.562836 303.129 0.562505C303.461 0.561843 304.021 0.632786 304.695 0.632698C308.095 0.631901 313.296 0.547208 315.991 0.759047C313.592 0.673978 311.307 0.764235 308.92 0.792006C309.619 0.583444 305.408 0.952703 307.871 0.712047C306.737 0.764248 296.935 0.805994 296.103 0.760265C296.102 0.760265 296.101 0.760265 296.1 0.760265ZM178.24 0.663816C178.863 0.535935 175.666 0.5647 175.395 0.712646C175.817 0.733178 178.163 0.67831 178.24 0.663816ZM192.99 0.351916C193.287 0.329842 193.569 0.0798752 195.126 0.206647C195.127 0.206647 195.129 0.206647 195.13 0.206647C195.585 0.243669 195.067 0.304577 195.15 0.32628C195.18 0.335143 196.6 0.459487 195.421 0.479484C193.623 0.510164 195.252 0.293525 194.293 0.290879C194.176 0.290674 192.361 0.425979 192.467 0.45568C192.477 0.459139 193.023 0.430516 193.114 0.442862C193.454 0.489267 193.288 0.567325 193.336 0.57104C193.494 0.580559 196.363 0.447576 196.781 0.563716C196.916 0.601167 192.206 0.687561 192.022 0.66809C191.906 0.65582 191.955 0.439146 191.835 0.417836C191.773 0.407222 189.879 0.488416 189.633 0.468497C189.561 0.462736 189.507 0.456525 189.467 0.451407C189.753 0.518443 188.038 0.513615 188.09 0.437978C188.12 0.40825 189.301 0.425457 189.343 0.430654C189.362 0.432854 189.378 0.435886 189.393 0.437979C189.148 0.356283 193.147 0.359968 192.283 0.238386C193.443 0.171782 192.119 0.416743 192.99 0.351916ZM198.561 0.218244C198.442 0.241032 198.322 0.263819 198.202 0.286606C200.232 0.230831 202.573 0.340527 204.91 0.33971C205.503 0.339668 204.821 0.200304 205.599 0.238387C206.221 0.268907 206.911 0.398171 206.572 0.426993C206.49 0.434184 205.221 0.349991 204.587 0.358631C202.713 0.384211 203.187 0.503723 203.077 0.506952C202.956 0.510349 201.777 0.426302 201.133 0.430045C199.514 0.439718 198.774 0.513093 196.562 0.417226C197.839 0.33846 197.139 0.167347 198.561 0.218244ZM274.194 0.472777C274.271 0.397553 275.599 0.464294 276.081 0.453245C276.005 0.528655 274.676 0.461723 274.194 0.472777ZM76.3241 0.3751C75.9162 0.498543 78.9731 0.529108 78.1675 0.426372C77.9892 0.403571 76.7082 0.375978 76.3241 0.3751ZM90.0565 0.450177C90.4654 0.416048 88.8188 0.327171 88.8219 0.42271C88.8242 0.453347 90.0038 0.454615 90.0565 0.450177ZM224.79 0.339711C224.867 0.335846 225.992 0.36334 226.028 0.36962C226.773 0.500692 223.07 0.424935 224.79 0.339711ZM106.75 0.298195C105.325 0.379106 109.615 0.414176 108.304 0.311013C108.239 0.305989 106.819 0.294263 106.75 0.298195ZM112.713 0.275612C112.372 0.279949 110.854 0.239774 110.834 0.277443C110.804 0.338213 112.541 0.379736 112.713 0.275612ZM253.006 0.30065C252.841 0.161562 254.842 0.266893 255.537 0.249378C255.702 0.388562 253.701 0.283085 253.006 0.30065ZM240.377 0.198105C248.812 0.0884622 246.952 0.38563 239.875 0.265857C239.865 0.176628 239.845 0.205011 240.377 0.198105ZM251.178 0.214587C250.871 0.303691 249.913 0.277269 249.266 0.27013C249.383 0.20818 250.711 0.230601 251.178 0.214587ZM72.6842 0.184052C73.2132 0.0714929 75.5557 0.210259 75.1392 0.256687C75.0422 0.266714 72.4899 0.245952 72.6842 0.184052ZM225.497 0.220688C225.3 0.0854212 227.833 0.140597 228.027 0.170638C228.809 0.291469 225.702 0.190833 225.497 0.220688ZM264.977 0.181628C265.424 0.0756748 266.694 0.130171 267.511 0.131577C267.139 0.222175 265.67 0.183534 264.977 0.181628ZM259.079 0.0986164C259.131 0.0945494 260.27 0.104115 260.321 0.108992C261.254 0.212479 258.031 0.185976 259.079 0.0986164ZM12.6632 0.000934754C12.7011 -0.00247987 13.564 0.00427651 13.5941 0.00825905C14.3642 0.109984 11.7745 0.0891977 12.6632 0.000934754Z" fill="#1801C5"/>
</svg>
