<svg width="283" height="13" viewBox="0 0 283 13" fill="none" xmlns="http://www.w3.org/2000/svg">
<path d="M21.7676 10.152C21.9423 10.1412 22.6438 10.1795 22.9476 10.1774C22.6018 10.3078 21.1378 10.1913 21.7676 10.152ZM53.0357 0.743099C52.7832 0.773579 52.5308 0.804059 52.2784 0.834539C52.9945 0.863708 53.9577 0.849612 54.6221 0.888162C54.7308 0.894605 54.4477 0.98762 54.7049 0.994644C54.9622 1.00164 54.914 0.8699 55.2884 0.859846C55.7083 0.848968 57.6296 0.960831 58.2954 0.965695C60.7853 0.983325 63.2973 0.935106 65.7915 1.01614C63.2149 1.08582 65.8092 1.21223 66.531 1.17783C66.691 1.16979 66.668 0.925583 69.2515 1.01449C70.8933 1.07094 69.3728 1.40355 72.115 1.25799C70.0104 0.991603 72.0824 1.03075 73.7344 1.04021C74.0192 1.0418 76.3186 1.10292 77.3347 1.10293C77.6823 1.10287 78.2132 0.980727 78.6743 0.982278C78.9916 0.983442 79.2309 1.05585 79.702 1.0573C81.8986 1.06493 84.0587 1.08247 86.2587 1.1295C84.9694 1.44417 87.2665 1.28017 87.3694 1.29697C87.8926 1.39169 85.5215 1.39185 86.4586 1.45758C87.7689 1.46135 89.0793 1.46512 90.3897 1.46888C89.3147 1.41713 91.8162 1.20753 92.2751 1.31986C92.0757 1.02756 98.2442 1.63592 99.1851 1.54902C99.3811 1.53064 98.1012 1.37361 101.073 1.47083C101.395 1.48154 101.272 1.56779 101.441 1.56142C101.542 1.55759 102.157 1.28587 102.808 1.44655C103.045 1.5052 101.52 1.67174 104.866 1.63387C103.537 1.33651 109.506 1.52986 110.604 1.61251C110.385 1.57213 110.166 1.53175 109.947 1.49137C111.031 1.60555 111.228 1.51136 111.473 1.51921C112.459 1.55077 113.813 1.66222 114.731 1.66313C115.806 1.66438 115.812 1.4883 117.064 1.57014C116.767 1.52812 116.47 1.48609 116.173 1.44407C117.038 1.46264 117.903 1.4812 118.769 1.49976C116.762 1.71158 119.201 1.51549 119.361 1.51217C119.617 1.50641 119.249 1.59794 119.677 1.59061C119.721 1.58912 119.658 1.49857 120.318 1.49549C121.697 1.48937 121.478 1.60006 122.056 1.60494C122.109 1.60492 121.925 1.52198 122.925 1.51346C126.103 1.48628 122.908 1.57534 122.786 1.58523C122.626 1.59829 123.712 1.94825 121.014 1.79956C121.92 1.84739 122.009 1.9981 122.111 2.0029C122.202 2.00692 123.772 2.00253 123.859 1.99829C124.631 1.95566 123.953 1.84611 124.104 1.82937C124.227 1.8159 126.117 1.96937 126.564 1.66632C127.466 1.95983 126.04 1.91865 124.522 1.94614C124.3 2.00204 125.966 2.07641 126.054 2.07719C128.204 2.09954 127.016 1.85337 127.487 1.70911C127.735 1.63363 128.609 1.80226 127.803 1.58428C129.754 1.58293 128.57 1.69167 128.696 1.71097C128.885 1.73938 129.569 1.68663 129.654 1.69553C129.78 1.7087 129.343 1.77656 129.837 1.80735C129.919 1.81194 130.718 1.69567 129.691 1.62511C131.063 1.65745 130.951 1.54988 131.415 1.7692C132.365 1.3737 132.098 2.01622 132.47 2.04291C133.46 2.11334 133.176 1.79187 133.229 1.7769C133.59 1.68123 136.33 1.81977 137.009 1.7811C136.739 2.00759 134.836 1.76049 134.41 1.80045C132.988 1.93336 136.41 1.93641 135.376 2.2136C135.809 2.13906 136.242 2.06451 136.676 1.98997C137.466 2.18369 136.341 2.25251 138.475 2.2075C138.826 2.0513 136.966 2.21671 137.34 2.09471C137.561 2.02312 138.798 2.02041 138.823 1.98169C138.848 1.93503 137.729 1.97874 137.906 1.90845C138.293 1.75682 142.37 1.94846 139.264 2.00042C140.13 2.00697 140.573 2.32146 141.325 2.23294C141.811 2.17546 139.084 1.71861 143.182 1.84066C143.268 1.98785 141.543 1.86642 141.498 1.87707C141.435 1.89261 141.743 2.22598 141.797 2.24284C141.988 2.29851 146.176 2.16631 147.058 2.34154C146.71 2.14706 150.222 2.34115 150.605 2.2871C150.707 2.27214 150.327 2.15124 150.436 2.14003C151.117 2.07365 152.952 2.30178 153.804 2.31625C154.758 2.33252 154.638 2.23032 154.692 2.23108C155.111 2.24117 154.775 2.30602 155.032 2.30856C155.419 2.31235 158.083 2.35468 158.217 2.34183C158.256 2.3378 157.823 2.21789 158.404 2.2022C158.504 2.19948 158.439 2.33549 160.16 2.29474C162.232 2.24577 158.723 2.10947 159.585 1.97549C160.914 2.19345 160.872 1.99103 161.233 2.01072C161.358 2.01783 162.286 2.19943 163.296 2.19931C162.571 2.21947 161.846 2.23963 161.121 2.2598C161.833 2.29748 163.217 2.27493 163.803 2.31519C164.089 2.3348 163.852 2.47334 164.474 2.47615C164.606 2.47598 165.134 2.13789 163.503 2.27476C163.374 2.15066 164.148 2.23882 164.508 2.20793C164.563 2.2031 164.779 2.00038 165.237 2.13267C165.347 2.16519 164.14 2.75043 167.241 2.35055C167.341 2.33766 166.995 2.25908 167.093 2.24459C167.16 2.23478 167.95 2.27349 168.037 2.26379C168.127 2.25334 167.746 2.16752 167.852 2.15256C168.399 2.07546 169.111 2.40735 167.987 2.37069C168.362 2.41476 168.738 2.45884 169.113 2.50292C168.713 2.25424 169.704 2.44043 170.224 2.43843C173.557 2.42578 171.327 2.24309 171.901 2.16694C172.824 2.04469 172.116 2.45545 173.485 2.34433C173.611 2.33392 171.96 2.1388 175.188 2.27332C174.711 2.27517 174.234 2.27702 173.758 2.27886C174.03 2.51818 175.479 2.28096 175.59 2.27882C176.858 2.25985 176 2.33595 177.884 2.23425C178.052 2.22511 178.418 2.28735 178.778 2.26207C180.27 2.15804 176.812 2.1684 176.719 2.07169C176.674 2.02432 180.392 2.07568 180.519 2.09931C181.06 2.20378 178.833 2.12485 179.257 2.25191C179.411 2.29707 184.711 2.26407 185.774 2.32307C187 2.39161 187.549 2.71798 187.56 2.35794C187.903 2.71512 188.211 2.47719 188.368 2.48129C190.265 2.5342 190.268 2.5378 191.895 2.52126C192.255 2.51773 192.557 2.62821 192.684 2.61145C192.758 2.6013 192.621 2.48505 192.984 2.45349C193.487 2.41039 196.51 2.56062 196.735 2.62646C196.959 2.6923 195.457 2.64039 195.725 2.74757C196.812 2.76968 197.855 2.75496 198.949 2.77759C199.404 2.78731 199.169 2.85784 199.366 2.86138C199.449 2.86317 201.02 2.81557 200.953 2.78793C200.798 2.72365 195.951 2.71418 197.229 2.59997C197.475 2.5779 198.343 2.75541 198.207 2.54934C202.537 2.64179 206.867 2.73425 211.196 2.8267C208.707 2.95326 205.908 2.78661 203.302 2.77324C202.945 2.77121 201.738 2.73863 201.883 2.8436C204.099 2.89395 206.855 2.86938 208.982 2.95941C209.05 2.96236 208.799 3.05261 209.054 3.07004C209.53 3.1026 211.084 2.96927 211.345 3.01079C211.39 3.02029 210.505 3.13338 210.773 3.21407C211.46 3.42116 211.64 2.98061 212.233 2.99216C212.691 3.00128 215.77 3.24797 216.539 3.12099C217.357 2.98561 214.269 3.0132 214.499 2.89784C216.588 2.8017 218.702 2.95059 220.676 2.95684C220.71 2.95683 220.409 2.86132 220.85 2.85309C221.616 2.83877 221.816 2.97183 222.189 2.99675C222.591 3.02332 224.014 3.01969 224.203 3.06945C224.227 3.07597 223.938 3.20276 223.894 3.20594C223.274 3.25287 223.056 3.08199 222.999 3.07923C222.787 3.07058 222.579 3.13292 222.385 3.12702C222.067 3.11723 221.893 3.05564 221.473 3.0459C221.183 3.03896 221.462 3.15662 221.182 3.14841C221.08 3.14493 219.977 2.87127 219.871 3.13751C219.838 3.22146 228.879 3.4259 229.784 3.3681C229.009 3.32771 228.234 3.28731 227.459 3.24692C229.033 3.34192 230.926 3.14843 231.057 3.46587C236.894 3.55382 242.732 3.64176 248.57 3.72971C249.612 3.76772 249.038 3.96472 250.754 3.92386C250.312 3.85445 249.869 3.78504 249.427 3.71563C250.305 3.77036 254.199 3.90047 254.83 3.86528C254.912 3.86066 255.027 3.67807 256.001 3.67264C256.864 3.66788 257.002 3.80706 257.463 3.83836C257.85 3.86424 258.286 3.8328 258.401 3.84162C258.489 3.84865 258.523 3.93323 258.736 3.95017C259.406 4.00271 258.865 3.75982 259.528 4.03917C259.365 4.04782 259.203 4.05647 259.041 4.06512C259.85 4.11314 260.954 4.24851 259.762 4.29681C259.557 4.30516 259.733 4.22556 259.581 4.22408C253.594 4.17553 258.373 4.38475 260.472 4.28056C261.009 4.407 264.03 4.36542 264.13 4.39028C264.269 4.42622 263.751 4.5172 264.428 4.6077C264.57 4.62685 268.608 4.60221 267.152 4.74717C266.852 4.77708 264.917 4.72172 264.45 4.72148C265.545 4.98901 268.123 4.64983 268.412 4.6623C269.579 4.71459 266.167 4.86017 268.797 4.91788C270.819 4.96221 268.922 4.77117 269.7 4.70653C270.138 4.67026 272.425 4.8828 272.365 4.63843C273.151 4.62076 272.69 4.74492 272.787 4.75523C272.881 4.7644 274.427 4.70787 274.927 4.76457C274.988 4.77161 274.795 4.89625 274.858 4.90728C274.98 4.92633 276.47 4.91685 276.53 4.90676C276.568 4.89971 276.214 4.78502 276.361 4.75968C276.531 4.73047 277.964 4.77182 278.043 4.74095C278.156 4.69421 276.386 4.70696 276.682 4.58608C277.497 4.62598 278.827 4.55737 279.366 4.46325C279.234 4.4904 278.443 4.48608 278.169 4.4731C278.3 4.29283 279.998 4.31337 279.416 4.45096C279.786 4.37768 279.534 4.33404 279.743 4.26338C279.798 4.24551 280.322 4.24728 280.423 4.21691C280.437 4.21078 279.896 4.13649 280.005 4.10075C280.202 4.03617 281.791 4.06808 281.921 4.08695C282.287 4.14041 280.99 4.1866 280.881 4.26206C280.866 4.27367 281.967 4.43553 281.983 4.44897C282.046 4.59193 280.82 4.47635 280.959 4.60594C281.263 4.63623 281.566 4.66652 281.869 4.6968C280.697 4.81407 278.533 4.72434 277.973 4.86595C279.709 4.8405 281.524 4.86501 281.517 5.19726C281.514 5.33719 280.765 5.41126 280.793 5.44715C280.902 5.57564 281.943 5.44839 281.981 5.45552C282.013 5.46361 282.027 5.47132 282.027 5.47867C282.027 5.47867 282.027 5.47868 282.027 5.47868C282.026 5.55322 280.544 5.59115 280.47 5.62439C280.345 5.68353 281.001 5.93941 281 5.99444C280.976 6.00525 279.921 6.05293 280.276 6.15277C280.635 6.25363 281.558 6.2656 281.59 6.27602C281.766 6.33594 280.151 6.3717 280.102 6.40547C280.077 6.42253 280.943 6.53823 280.968 6.56911C280.989 6.60005 280.329 6.66007 280.068 6.75426C279.874 6.82423 280.437 6.88546 280.338 6.89569C280.267 6.90242 278.741 6.88496 278.666 6.89683C278.554 6.91437 278.911 7.00426 278.858 7.02523C278.784 7.0554 278.292 7.01909 278.356 7.05162C278.404 7.07587 280.311 7.39296 280.297 7.4721C280.274 7.60707 278.255 7.27446 280.131 7.82803C280.144 7.83167 280.603 7.79863 280.616 7.80205C280.897 7.90323 279.427 8.0386 281.223 8.03131C277.88 8.16627 280.805 8.23014 280.308 8.45253C280.117 8.53801 278.821 8.56031 278.815 8.57338C278.94 8.68572 279.353 8.60402 279.493 8.65994C279.57 8.69118 278.41 8.79622 278.67 8.8752C278.804 8.91592 280.034 8.91502 280.085 8.92322C280.571 9.00066 279.973 9.07214 280.08 9.1246C280.15 9.15977 280.893 9.17039 280.912 9.17679C280.943 9.19001 279.934 9.31833 279.723 9.36497C279.563 9.40088 280.162 9.46617 280.05 9.48138C279.378 9.57227 277.953 9.30706 279.325 9.67205C279.409 9.69442 279.929 9.69128 279.945 9.69573C280.265 9.79847 279.307 9.79686 279.135 9.87634C278.839 10.0133 280.217 9.94985 279.071 10.0362C279.929 10.137 280.407 10.1382 281.413 10.1234C278.629 10.165 277.642 10.5172 280.733 10.541C279.75 10.5249 279.857 10.7307 279.563 10.7312C279.381 10.7313 277.958 10.5126 278.606 10.9762C278.688 11.0341 279.554 10.9708 279.282 11.0847C277.204 11.0328 279.237 11.1585 279.239 11.174C279.209 11.4427 274.134 11.1683 273.261 11.1897C272.249 11.2145 271.347 11.4169 271.127 11.4148C270.403 11.4072 271.005 11.306 270.843 11.2647C270.679 11.2238 268.619 11.408 268.516 11.3956C268.117 11.3459 268.524 11.2227 268.482 11.2158C267.989 11.1324 265.223 11.2028 264.449 11.165C264.472 11.2479 266.027 11.271 265.055 11.3936C263.923 11.5365 263.862 11.1711 263.833 11.1547C258.656 11.1031 253.478 11.0515 248.301 10.9999C248.364 11.1946 251.75 11.0843 251.827 11.1106C252.277 11.2667 246.559 11.2031 245.859 11.1271C246.391 11.1747 246.923 11.2223 247.456 11.2698C246.544 11.4832 244.533 11.172 243.216 11.2565C242.791 11.2839 243.606 11.3787 243.589 11.3844C243.11 11.4659 242.344 11.391 242.919 11.2808C241.751 11.3798 241.923 11.2587 241.028 11.2399C240.982 11.239 241.365 11.3331 240.656 11.3629C240.324 11.3768 238.555 11.3583 238.317 11.4345C238.219 11.4666 239.113 11.8252 239.227 11.526C241.151 11.6929 239.844 11.3956 240.591 11.4105C240.706 11.4133 240.44 11.5781 242.325 11.5192C241.963 11.8178 239.796 11.5686 239.424 11.6013C238.657 11.6684 241.814 11.8582 242.397 11.6287C242.123 11.8618 242.62 11.6628 243.324 11.68C244.095 11.6988 243.759 11.7655 244.176 11.7703C245.316 11.7842 244.845 11.6126 245.784 11.7727C244.872 11.2981 247.395 11.7285 248.13 11.8581C246.931 11.869 245.733 11.8798 244.535 11.8907C244.603 11.9158 244.671 11.941 244.739 11.9661C244.424 11.9593 244.108 11.9525 243.793 11.9457C243.844 11.9228 243.895 11.8999 243.945 11.8771C242.317 12.0119 241.921 11.8367 241.789 11.8334C240.081 11.7954 238.108 11.7759 236.381 11.7569C236.122 11.7541 236.298 11.9082 234.411 11.7689C233.809 11.7246 234.379 11.6123 233.696 11.6228C232.839 11.9354 232.858 11.679 232.603 11.6759C231.875 11.6681 231.429 11.7431 231.361 11.7432C230.461 11.7461 229.142 11.7187 228.153 11.7201C228.135 11.7211 228.648 11.8254 228.006 11.7893C227.781 11.7765 225.762 11.3331 223.991 11.4518C224.451 11.4852 224.911 11.5185 225.371 11.5519C224.83 11.5063 221.038 11.5723 221.964 11.6951C222.531 11.7702 223.921 11.513 224.071 11.7761C222.81 11.6845 215.842 11.7274 215.3 11.6609C215.226 11.6514 215.688 11.5715 215.584 11.5595C215.504 11.5504 213.908 11.5535 213.697 11.5187C213.571 11.498 214.277 11.4535 214.22 11.4223C214.17 11.4 212.177 11.3424 212.062 11.4476C212.552 11.4101 213.927 11.462 213.205 11.544C213.112 11.5541 212.632 11.4804 212.519 11.4933C211.472 11.6125 214.598 11.6145 215.081 11.6207C213.116 11.7353 210.081 11.5433 207.805 11.6074C206.887 11.5091 209.17 11.4865 208.13 11.4021C205.974 11.2271 207.555 11.5184 207.488 11.5289C206.951 11.6125 205.131 11.1145 205.126 11.4788C204.344 11.4156 204.598 11.3724 203.493 11.4083C203.638 11.4351 203.783 11.4618 203.928 11.4886C202.7 11.6866 200.112 11.1266 200.307 11.0881C200.831 10.985 202.18 11.1689 202.295 11.166C202.466 11.1618 202.942 10.7972 204.808 11.1476C205.576 10.9078 201.847 10.9488 203.545 10.7978C202.399 10.8134 197.689 10.5907 197.009 10.6923C196.928 10.7056 197.302 10.9566 196.14 10.8185C195.588 10.7528 196.92 10.7641 196.668 10.7051C195.892 10.5241 185.306 10.522 183.296 10.5098C183.165 10.5087 183.214 10.4325 183.086 10.4318C182.692 10.4298 181.255 10.5288 180.551 10.4861C182.01 10.6435 179.173 10.6244 178.451 10.6011C177.356 10.5656 177.426 10.4314 176.953 10.3977C175.13 10.2677 172.301 10.558 170.888 10.2435C170.962 10.5415 168.439 10.0717 167.289 10.0569C166.388 10.0451 165.079 10.2279 166.293 10.3606C164.739 10.3304 163.101 10.3684 161.642 10.371C161.401 10.3714 161.734 10.2871 161.323 10.2907C161.285 10.2916 161.233 10.3772 160.879 10.3824C157.962 10.4264 159.383 10.2585 158.838 10.1989C158.533 10.1655 158.308 10.1482 158.143 10.1415C159.843 10.1427 161.804 10.1297 162.328 10.1329C161.883 9.93795 158.56 10.1293 157.588 10.0678C157.555 10.0656 157.673 9.96202 157.639 9.96092C157.638 9.96091 157.638 9.9609 157.637 9.96089C157.273 9.94898 154.951 9.96298 155.428 10.093C155.556 10.1278 156.624 10.1391 157.891 10.1412C157.548 10.161 157.803 10.2812 157.742 10.2855C157.008 10.3358 155.211 10.202 154.574 10.1798C154.428 10.1749 154.438 10.2502 154.414 10.2501C153.834 10.2269 154.074 10.0146 153.477 10.2298C152.429 9.95089 155.446 10.211 155.235 10.0348C155.073 9.89923 148.367 9.8998 148.385 10.1109C148.362 10.0881 148.27 10.0591 148.081 10.0253C147.663 9.95004 145.796 9.95233 145.474 9.98776C145.419 9.99483 145.439 10.1998 145.372 10.2009C145.203 10.2038 142.924 10.0191 142.07 10.131C142.53 10.1646 142.99 10.1982 143.45 10.2318C140.671 10.204 141.1 10.2695 142.025 10.3405C142.071 10.3416 142.116 10.3498 142.161 10.3511C142.878 10.404 143.797 10.4574 143.811 10.4737C143.863 10.5358 139.149 10.52 140.057 10.3397C140.184 10.3151 142.364 10.4229 141.286 10.2759C141.097 10.2501 139.696 10.2739 139.623 10.2582C139.131 10.1537 142.191 10.0543 141.819 9.9092C141.075 10.0356 140.123 9.95476 139.272 9.98038C138.884 9.99194 138.788 10.0936 138.74 10.095C138.025 10.1142 138.427 10.0108 138.189 10.011C138.061 10.0115 136.651 10.2255 136.92 9.91264C132.281 10.0955 135.635 10.131 138.48 10.1435C137.58 10.2489 135.818 10.1745 135.027 10.1928C134.743 10.1995 134.91 10.3066 134.431 10.3226C133.444 10.3554 128.735 10.1843 127.508 10.1427C128.262 10.1135 128.043 9.99645 127.462 9.99819C126.88 9.99998 127.367 10.1583 127.253 10.1736C127.131 10.1894 124.403 10.088 123.949 10.103C126.004 10.0694 125.542 9.95007 123.798 9.91954C124.05 9.88926 124.303 9.85898 124.555 9.82871C123.533 9.86415 121.386 9.66673 120.794 9.7124C120.701 9.71976 121.033 9.81951 120.981 9.82365C120.463 9.85902 118.701 9.74214 118.618 9.77409C118.548 9.80068 119.3 9.88934 119.02 9.92609C118.962 9.93383 118.238 9.79606 117.524 9.82044C117.258 9.82938 117.417 9.92207 117.35 9.92664C116.794 9.96449 117.123 9.81475 116.107 9.82856C115.362 9.83886 114.805 9.98275 113.776 9.92219C117.154 10.1491 114.314 10.0391 112.9 10.0819C112.673 10.0888 112.866 10.256 111.513 10.1612C114.396 9.89315 110.694 9.99459 109.937 9.98328C109.895 9.98182 109.882 9.87274 109.511 9.86705C109.48 9.86681 109.524 9.9409 109.179 9.94287C105.905 9.96127 107.999 9.90037 107.378 9.82116C107.114 9.78741 105.521 9.87458 105.092 9.87253C104.994 9.87174 105.04 9.79573 104.659 9.79467C103.984 9.79298 103.379 9.86799 102.933 9.86971C102.881 9.86953 102.88 9.74881 102.036 9.77898C101.798 9.78739 101.531 9.82741 101.868 9.8657C102.985 9.99173 105.107 9.81675 106.37 9.94411C107.521 10.0601 103.888 10.0312 103.699 10.0298C103.629 10.0295 104.339 9.9771 103.619 9.95757C103.003 9.94115 101.876 10.1376 100.959 10.0825C100.889 10.0784 100.158 9.89383 100.192 9.88388C100.222 9.87668 101.349 9.85029 101.186 9.7974C101.166 9.79136 100.451 9.78494 100.358 9.74586C100.244 9.69829 99.9404 9.24009 99.7877 9.22706C99.3959 9.19471 99.65 9.30117 99.3965 9.29126C98.8528 9.27026 96.968 9.11566 96.9049 9.27269C97.2164 9.28536 97.528 9.29804 97.8395 9.31071C96.1056 9.30848 96.8439 9.38347 96.5979 9.41043C96.3331 9.43961 96.409 9.3018 95.8247 9.28256C95.6975 9.27835 93.2519 9.28126 93.2958 9.3399C94.649 9.26172 94.1459 9.42767 94.2082 9.4314C94.445 9.44508 94.7486 9.35222 95.0665 9.35751C97.3021 9.39633 95.0457 9.524 95.5731 9.56861C95.7546 9.58367 96.1174 9.5055 96.1945 9.51052C96.4448 9.52677 96.4478 9.63422 96.615 9.6273C97.0051 9.61129 96.5515 9.45447 96.5825 9.44689C96.9319 9.35548 98.296 9.48835 97.4443 9.64467C97.9539 9.7097 98.0158 9.50935 98.4196 9.59401C99.2223 9.76166 98.0176 9.70798 97.6908 9.73092C96.5185 9.81376 96.1719 9.73292 94.5137 9.74168C93.9165 9.74464 93.2082 9.83475 92.9311 9.83716C92.7566 9.83868 91.1125 9.48147 91.0583 10.0126C90.4183 9.95432 89.4172 9.59331 88.7571 9.60231C88.1645 9.61062 88.3509 9.8007 88.2955 9.80738C88.2107 9.81791 87.4944 9.79547 87.2518 9.81947C86.9675 9.84785 87.1085 9.92115 86.6577 9.94561C85.5358 10.0063 85.5672 9.81464 85.4521 9.80094C84.1158 9.6425 84.6987 9.92179 84.4016 9.94053C84.1254 9.95772 80.2541 9.81143 79.4383 9.87186C79.7704 9.83694 80.1025 9.80201 80.4346 9.76709C79.8423 9.64104 79.211 9.82965 79.2022 9.61481C79.078 9.96019 77.8553 9.71544 77.4872 9.72048C77.3421 9.72262 77.3529 9.78182 77.1713 9.78243C76.4621 9.78524 74.8637 9.72121 74.4788 9.74707C72.814 9.85834 77.0652 10.1181 77.3999 10.1346C76.7297 10.1237 72.9365 10.161 74.6779 10.3462C74.9471 10.3747 75.4262 10.2247 75.5776 10.2202C76.6023 10.1912 75.7953 10.3216 75.8754 10.3357C76.0117 10.3585 76.6874 10.2313 76.8651 10.2492C76.9244 10.255 76.5409 10.3768 77.5177 10.3898C77.036 10.5067 74.2912 10.3781 73.9306 10.4029C73.8022 10.4118 74.6038 10.6811 72.2566 10.4028C72.2836 10.4273 72.3106 10.4518 72.3376 10.4763C71.029 10.4724 69.7204 10.4684 68.4119 10.4645C68.5547 10.4102 69.2905 10.306 68.365 10.3199C67.8321 10.328 68.2249 10.4564 68.1763 10.4595C67.6979 10.4886 59.2372 10.3573 57.5973 10.3537C57.0395 10.3523 55.4837 10.4356 55.3651 10.4362C54.6561 10.4386 52.1465 10.3469 51.6456 10.3557C51.3328 10.3614 51.629 10.4684 51.3497 10.4606C51.0901 10.4531 51.3601 10.3556 51.2831 10.3506C50.6446 10.3074 45.7905 10.3875 44.6393 10.2805C45.3432 10.3165 48.8598 10.1533 48.7899 10.0818C48.7747 10.0719 47.9214 9.98644 47.7448 10.0218C47.4546 9.9318 46.4524 10.1858 45.9093 10.128C45.8479 10.1215 46.0916 9.97561 45.1217 9.93835C44.7875 9.92559 43.9112 10.032 43.0317 9.89292C41.7559 9.94167 35.0538 9.67786 34.5922 9.83244C34.5785 9.84071 35.5219 9.90567 34.8834 9.96433C34.0345 10.0423 34.7992 9.75737 33.8112 9.72158C33.6623 9.71615 30.9125 9.71656 30.8223 9.73373C29.9878 9.88933 32.3897 9.98156 32.3558 10.0003C32.2715 10.0476 30.2749 10.0555 30.1939 10.0432C30.1168 10.0306 31.7472 9.83001 29.7899 9.89183C30.0138 9.92026 30.2376 9.94868 30.4614 9.97711C29.5408 10.018 29.4547 9.86635 29.232 9.85477C28.5393 9.81824 27.7873 10.0393 26.6801 9.7446C26.3873 9.66642 26.8756 9.58825 26.839 9.5766C26.4874 9.47182 26.0346 9.7373 25.5064 9.53007C25.4667 9.51461 26.7021 9.40698 24.5451 9.38372C24.6933 9.40463 24.8416 9.42554 24.9898 9.44644C24.6852 9.48636 22.501 9.48877 22.2073 9.47544C21.3494 9.4365 22.0993 9.30572 21.2365 9.31312C21.7878 9.50915 19.1642 9.50605 19.3168 9.34398C18.9482 9.54566 16.7214 9.36336 15.6739 9.34734C15.0129 9.33738 13.6637 9.41275 13.4538 9.40002C13.1981 9.38444 13.2773 9.24503 12.8157 9.20889C12.684 9.19858 11.3077 9.28676 10.1021 9.12875C9.86847 9.09829 9.37967 8.85517 9.81513 8.80035C10.5605 8.70652 11.9664 8.91315 11.9499 8.77239C11.9304 8.6218 10.0331 8.69105 9.52284 8.666C7.16724 8.55016 8.52974 8.40479 8.46964 8.35569C8.31373 8.23644 7.02607 8.22639 6.97245 8.21524C6.75028 8.16591 7.6637 8.08256 7.67824 8.01094C7.69586 7.91768 6.45651 7.73584 6.73901 7.70734C7.14338 7.66691 8.28252 7.8196 8.35491 7.81365C9.29725 7.73301 8.00919 7.50341 7.65468 7.39357C7.54723 7.35979 7.97735 7.31074 7.88807 7.30021C6.52518 7.14049 7.59722 7.60055 6.69 7.56093C5.88058 7.52561 6.92389 7.39483 6.89304 7.38668C6.85316 7.37766 5.88512 7.35963 5.7341 7.30782C5.65967 7.28189 8.17891 7.03272 8.07514 6.90788C7.27198 6.9266 6.46883 6.94532 5.66567 6.96404C5.60444 6.80205 6.75797 6.93309 6.87759 6.91773C7.1184 6.88691 6.44878 6.79814 6.4781 6.74744C6.49389 6.71516 7.28204 6.60778 6.57163 6.5525C6.32747 6.53342 5.81351 6.64107 4.92486 6.51606C8.02334 6.40142 5.8782 6.28791 5.78752 6.2298C5.69871 6.17171 7.17863 6.05295 5.38375 6.05764C5.30928 5.74287 5.42349 5.95881 5.93403 5.90906C6.55945 5.84788 5.11675 5.72914 7.3991 5.83186C7.27078 5.68349 5.4355 5.67437 5.33847 5.66161C5.25469 5.65009 5.66338 5.58213 5.51819 5.55609C3.80081 5.25377 4.98109 5.39604 4.48474 5.20937C4.4406 5.19269 2.81526 5.10815 4.05346 5.09491C6.30927 5.07088 7.24962 5.2892 7.63335 4.84793C5.96724 4.63675 3.94296 4.90268 3.43581 4.90216C2.65955 4.90092 3.46457 4.81866 3.3692 4.79219C3.33607 4.78362 2.66712 4.784 2.65821 4.77669C2.18489 4.43199 5.6359 4.80273 6.72415 4.75524C6.43317 4.70128 6.14218 4.64732 5.85119 4.59335C6.24673 4.59553 6.64227 4.5977 7.03781 4.59987C5.15466 4.47759 6.97179 4.56046 7.44455 4.29045C7.55069 4.22978 6.31169 4.32258 7.7256 4.16587C6.68453 4.11514 7.01733 4.06249 6.07345 4.12998C6.09896 4.02001 8.2221 3.91824 9.05959 3.87058C6.10438 3.71526 7.78608 4.13751 5.23245 3.8964C4.75703 4.02785 5.97729 4.01425 5.87757 4.03572C5.51979 4.11293 4.68444 3.97541 3.67192 4.24849C3.50706 4.29334 4.20105 4.44417 3.1719 4.42629C3.05808 4.42409 2.40357 4.29454 2.41276 4.28575C2.50072 4.19068 3.14931 4.23356 3.17653 4.19377C3.20208 4.15611 2.4778 4.17122 2.47542 4.16068C2.45445 4.04017 3.08001 4.12114 2.98944 4.08252C2.79385 3.99854 0.192265 3.71203 3.59037 3.82399C0.765765 3.92993 3.22751 3.95295 4.32748 3.91241C4.60798 3.9023 4.67975 3.83122 5.07952 3.81054C5.59374 3.78372 6.19484 3.8246 6.46089 3.81424C6.74704 3.80275 5.12388 3.61566 7.47352 3.69134C6.27924 3.50971 4.1646 3.66731 2.99094 3.53622C0.623055 3.27135 4.64681 3.2627 5.06618 3.24393C5.17791 3.23883 4.80459 3.13783 4.87908 3.13268C5.0009 3.12486 7.28376 3.194 7.50976 3.11611C7.73515 3.03828 6.67338 3.1109 6.60376 3.0265C6.55655 2.96968 9.31213 2.89909 7.82142 2.84474C6.79396 2.80742 4.89716 3.01361 4.58066 2.76692C6.0923 2.76286 7.60394 2.7588 9.11558 2.75474C8.28931 2.65337 7.46305 2.552 6.63678 2.45063C8.3335 2.43932 9.79895 2.55943 11.4116 2.44405C7.54306 2.10624 12.6712 2.2207 12.7279 2.1852C12.747 2.16381 11.2257 1.90684 10.981 1.86019C12.3323 1.78193 16.436 1.78032 14.0386 1.45749C14.4736 1.52926 15.5305 1.37478 15.5167 1.36212C15.3842 1.22936 13.0818 1.29005 13.4584 1.17542C13.8949 1.04239 14.5024 1.23562 15.1717 1.22783C18.6064 1.18661 17.6716 0.490946 21.1136 0.636069C21.0454 0.610927 20.9772 0.585784 20.9089 0.560642C24.651 0.639315 28.3932 0.717987 32.1353 0.79666C33.6018 0.602856 37.5001 0.516814 39.4139 0.560341C39.7993 0.568953 41.6903 0.698971 41.8329 0.719755C42.0969 0.75949 40.6428 0.758111 41.2991 0.834327C41.4377 0.850012 44.6408 0.930265 44.4129 0.810685C44.0541 0.793284 42.93 0.840216 42.7464 0.810658C41.4569 0.5999 51.3315 0.862362 51.8216 0.788173C51.6033 0.747801 51.3849 0.70743 51.1666 0.667058C51.7896 0.692405 52.4126 0.717752 53.0357 0.743099ZM24.2981 9.84684C23.9228 9.9604 22.9864 9.86215 22.4321 9.88925C21.6663 9.92731 20.3606 10.3661 20.9256 9.91839C22.0497 9.89454 23.1739 9.87069 24.2981 9.84684ZM40.7207 10.1967C39.9678 10.1256 40.555 9.87843 41.1716 9.99033C41.24 10.003 41.7394 10.2926 40.7207 10.1967ZM32.8217 9.99245C32.8535 9.98943 33.5047 10.0031 33.5274 10.0073C34.1103 10.1152 32.1471 10.0735 32.8217 9.99245ZM70.9874 10.2685C70.157 10.2706 70.7558 10.5073 71.2731 10.418C71.3056 10.4123 71.042 10.2685 70.9874 10.2685ZM70.3969 10.2561C69.7542 10.0429 68.4509 10.4472 69.4839 10.416C69.5841 10.4129 70.4266 10.2664 70.3969 10.2561ZM38.0357 10.0675C38.1213 9.9893 38.8983 10.0357 39.23 10.0582C39.2202 10.1303 38.3613 10.0621 38.0357 10.0675ZM57.7447 10.2551C57.7783 10.1934 55.0765 10.168 54.8916 10.248C55.3183 10.2178 57.713 10.3107 57.7447 10.2551ZM64.6745 10.2416C64.6061 10.2301 63.6726 10.2365 63.6992 10.2916C64.1541 10.3684 64.9824 10.2935 64.6745 10.2416ZM78.4462 10.3918C78.497 10.3785 77.8017 10.0221 79.4556 10.2694C79.6984 10.3056 78.8289 10.3876 78.9152 10.401C79.0959 10.4274 79.2388 10.4403 79.3537 10.4435C78.582 10.4642 77.7805 10.4693 77.7032 10.4473C77.3403 10.3435 78.4237 10.3973 78.4462 10.3918ZM85.679 10.2087C85.8386 10.1534 86.8533 10.1947 87.084 10.2206C87.1236 10.2254 86.9491 10.3731 87.4063 10.3668C87.7733 10.3615 87.2268 10.2024 87.9413 10.2346C88.6634 10.2669 87.6972 10.3658 87.7602 10.3742C87.8446 10.3854 88.9627 10.3284 88.927 10.4172C88.9004 10.4829 87.7038 10.4255 87.4077 10.4364C87.0285 10.4504 87.4869 10.5653 86.8537 10.5349C86.4557 10.5159 86.6785 10.3249 86.5946 10.3142C86.5242 10.3056 85.1316 10.4021 85.6812 10.2093C85.6805 10.2091 85.6798 10.2089 85.679 10.2087ZM79.5625 10.4372C79.5043 10.4431 79.4361 10.4459 79.3537 10.4435C79.4237 10.4416 79.4934 10.4393 79.5625 10.4372ZM26.4763 9.78517C26.8674 9.84897 25.7039 9.91307 25.2644 9.83026C25.2575 9.76718 26.414 9.77522 26.4763 9.78517ZM80.2795 10.2873C81.4249 10.348 80.5813 10.4056 79.5625 10.4372C79.8862 10.4042 79.8949 10.2671 80.2795 10.2873ZM47.7448 10.0218C47.793 10.0367 47.8234 10.0596 47.8269 10.0965C47.7003 10.0548 47.6891 10.033 47.7448 10.0218ZM50.4173 10.1162C51.3349 10.0134 49.473 9.99811 49.4839 10.0788C49.4891 10.1092 50.3806 10.1202 50.4173 10.1162ZM72.0523 10.2908C71.9686 10.2789 73.2745 9.95292 71.381 10.1878C72.3897 10.2386 71.3246 10.2643 71.34 10.2942C71.3803 10.3801 73.0764 10.316 73.4513 10.3569C73.7468 10.207 72.3287 10.33 72.0545 10.2908C72.0537 10.2908 72.053 10.2908 72.0523 10.2908ZM98.7087 10.4297C98.4781 10.5169 97.7497 10.4803 97.258 10.4698C97.4886 10.3826 98.2171 10.4192 98.7087 10.4297ZM227.382 11.8114C224.012 11.8584 223.579 11.4886 226.661 11.6657C226.721 11.6694 227.587 11.7765 227.382 11.8114ZM198.467 11.4091C198.151 11.2466 199.202 11.2322 199.891 11.3053C200.047 11.3217 200.623 11.4891 199.963 11.5136C199.986 11.3209 198.968 11.2363 198.467 11.4091ZM80.9282 10.1923C81.263 10.0897 82.2893 10.1762 82.8303 10.1979C82.4991 10.2818 81.4064 10.2306 80.9282 10.1923ZM216.312 11.5032C215.957 11.4873 215.716 11.6232 215.777 11.6354C216.051 11.6912 216.716 11.5863 216.312 11.5032ZM77.6129 10.1406C77.5666 10.0766 78.9276 10.03 79.0207 10.1879C78.73 10.1734 77.6462 10.1807 77.6129 10.1406ZM97.7819 10.3722C97.5711 10.3377 98.6655 10.2916 98.996 10.3271C98.9687 10.3944 97.9201 10.3946 97.7819 10.3722ZM210.594 11.4893C210.276 11.4739 209.482 11.4618 209.393 11.5168C209.283 11.5856 210.449 11.5742 210.594 11.4893ZM269.768 11.998C269.808 12.0235 268.576 12.1917 268.029 12.14C266.991 12.0412 269.725 11.9798 269.768 11.998ZM219.675 11.4675C220.676 11.6099 219.564 11.4705 219.607 11.6096C220.281 11.6218 221.96 11.6465 220.807 11.4979C220.583 11.4691 219.989 11.4798 219.675 11.4675ZM218.75 11.4113C218.642 11.4551 217.918 11.589 218.543 11.5855C218.832 11.5837 219.299 11.4313 218.75 11.4113ZM262.144 11.9785C261.246 11.8462 265.366 11.9559 265.484 11.9786C265.547 11.9907 265.588 12.0018 265.611 12.0111C265.763 11.9738 266.541 11.9751 266.63 12.0745C266.397 12.0639 265.76 12.0657 265.686 12.054C265.654 12.0491 265.63 12.0444 265.614 12.0398C265.338 12.1224 262.316 12.0036 262.144 11.9785ZM255.317 11.7795C256.348 11.6094 256.527 11.9192 256.438 11.9282C255.317 12.0423 256.049 11.823 256.015 11.812C255.937 11.7935 255.141 11.8904 255.32 11.7796C255.319 11.7796 255.318 11.7795 255.317 11.7795ZM260.745 11.913C260.787 11.9094 261.65 11.9281 261.686 11.9334C262.392 12.0444 259.949 11.9919 260.745 11.913ZM91.1311 10.0512C91.749 10.0884 91.1413 10.1952 90.7309 10.1501C90.6972 10.1457 90.586 10.0183 91.1311 10.0512ZM218.256 11.4365C218.113 11.4136 214.447 11.2939 214.666 11.4673C214.977 11.4504 219.144 11.5828 218.256 11.4365ZM190.854 11.1035C191.501 11.1117 190.794 11.2656 190.45 11.2018C190.322 11.1781 190.691 11.1016 190.854 11.1035ZM75.7803 9.97456C75.108 10.0561 75.25 9.76014 75.8309 9.86828C75.8537 9.87251 75.8067 9.97138 75.7803 9.97456ZM196.019 11.2513C193.788 11.3253 194.321 10.8194 197.219 11.0229C197.128 11.0447 197.037 11.0665 196.946 11.0884C200.291 11.2007 197.174 11.1269 196.354 11.1468C196.043 11.1544 196.303 11.2425 196.021 11.2519C196.02 11.2517 196.019 11.2515 196.019 11.2513ZM187.454 11.0576C185.31 10.6716 189.407 10.9517 190.584 10.9169C189.442 11.0547 187.958 11.0162 189.975 11.1912C187.023 11.1895 188.254 11.058 188.136 11.0447C187.997 11.0297 187.545 11.0741 187.454 11.0576ZM193.119 11.1154C193.243 11.1061 194.177 11.19 194.514 11.1815C194.042 11.3006 192.294 11.1787 193.119 11.1154ZM248.158 11.7876C248.237 11.6913 248.43 11.6217 249.168 11.6659C248.939 11.7123 248.467 11.7493 248.158 11.7876ZM23.5936 9.32782C23.0853 9.31544 22.0734 9.26805 22.3827 9.37354C22.4166 9.38261 23.5914 9.38516 23.5936 9.32782ZM207.607 11.2445C207.499 11.2314 204.703 11.1936 205.668 11.3112C205.959 11.3466 208.503 11.3599 207.607 11.2445ZM222.086 11.4108C221.852 11.4073 220.902 11.4154 220.881 11.4382C220.816 11.517 221.983 11.4857 222.086 11.4108ZM21.03 9.20105C20.9632 9.19026 19.4102 9.1916 19.5804 9.24057C19.9035 9.33318 21.2591 9.23823 21.03 9.20105ZM93.3829 9.84746C93.5127 9.84525 93.6833 9.95264 93.7282 9.95429C93.8337 9.95692 96.2102 9.9416 95.301 10.0675C95.1493 10.0886 91.7312 10.0002 91.2867 9.98204C91.1163 9.83529 92.5752 9.98868 92.9307 9.97755C92.9933 9.97539 93.0347 9.85457 93.3818 9.84806C93.3822 9.84786 93.3825 9.84766 93.3829 9.84746ZM252.005 11.726C252.111 11.635 254.905 11.6037 254.871 11.715C253.916 11.7186 252.961 11.7223 252.005 11.726ZM250.586 11.6956C249.991 11.6241 251.387 11.6174 251.798 11.6505C251.802 11.7126 250.673 11.7061 250.586 11.6956ZM216.792 11.0102C216.511 11.0297 217.373 11.1733 217.18 11.1974C217.056 11.2124 216.429 11.1553 216.228 11.1952C216.172 11.208 216.81 11.3412 216.995 11.3377C217.258 11.3332 217.004 11.231 217.291 11.2334C218.243 11.2414 219.087 11.3213 219.98 11.3291C220.06 11.3297 219.436 11.2528 220.124 11.2611C220.23 11.2622 220.867 11.3736 221.69 11.3669C223.51 11.0622 224.841 11.3945 227.147 11.3022C227.061 11.2708 225.338 11.1706 225.236 11.1665C223.309 11.0928 219.857 11.0502 217.839 11.028C217.321 11.0222 217.572 11.0935 217.348 11.0936C217.172 11.0936 217.383 10.9689 216.792 11.0102ZM23.8643 9.2605C23.6234 9.13112 22.7726 9.20234 22.2297 9.19001C22.4196 9.30643 23.3341 9.22676 23.8643 9.2605ZM238.046 11.464C237.774 11.466 236.931 11.4188 236.861 11.4562C236.771 11.5051 237.988 11.5495 238.046 11.464ZM106.78 10.026C106.806 10.0228 107.461 10.0366 107.485 10.0408C108.069 10.1488 106.106 10.1071 106.78 10.026ZM122.439 10.217C122.936 10.2066 123.437 10.1723 123.603 10.277C123.287 10.2579 122.38 10.288 122.439 10.217ZM144.044 10.4438C143.942 10.308 145.436 10.4111 145.718 10.4262C145.613 10.485 144.118 10.5417 144.044 10.4438ZM248.055 11.3635C248.969 11.3812 248.778 11.175 249.357 11.2736C249.451 11.2902 249.753 11.7184 248.75 11.5485C248.57 11.518 249.278 11.4245 248.055 11.3635ZM197.691 11.0322C197.924 10.9455 198.65 10.9797 199.14 10.9921C199.03 11.0571 198.04 11.0296 197.691 11.0322ZM18.2266 9.06929C17.7996 8.9389 15.8191 9.01119 16.308 9.09954C16.3776 9.11113 17.949 9.06158 18.2266 9.06929ZM83.2551 9.81053C84.0706 9.7201 82.384 9.67146 81.8505 9.76262C82.0916 9.75884 83.2001 9.81647 83.2551 9.81053ZM138.855 10.3153C138.894 10.3117 139.757 10.3304 139.796 10.3357C140.503 10.4467 138.06 10.3942 138.855 10.3153ZM117.291 9.99865C117.603 9.92041 119.648 10.008 120.106 10.0945C119.663 10.2091 116.904 10.0964 117.291 9.99865ZM244.296 11.3815C244.948 11.3842 245.566 11.4159 246.164 11.4575C246.037 11.5248 244.364 11.4335 244.296 11.3815ZM142.025 10.3405C142.071 10.3416 142.116 10.3498 142.161 10.3511C142.115 10.3477 142.069 10.3439 142.025 10.3405ZM229.71 11.1781C229.165 11.1452 229.277 11.2722 229.31 11.2764C229.721 11.3215 230.328 11.2153 229.71 11.1781ZM23.2424 9.0671C23.0543 8.95156 22.1348 9.02984 21.6067 8.99721C21.7591 9.0885 22.8166 9.07449 23.2424 9.0671ZM185.156 10.8006C184.471 10.6702 187.264 10.5569 187.852 10.6425C187.895 10.719 185.256 10.8185 185.156 10.8006ZM80.7278 9.61334C80.6739 9.52379 79.5007 9.61868 79.7493 9.66336C79.9067 9.69178 80.76 9.66895 80.7278 9.61334ZM189.255 10.7093C189.518 10.6849 190.128 10.7792 189.912 10.8304C189.635 10.8961 189.187 10.7163 189.255 10.7093ZM212.788 10.8882C212.673 10.8734 211.13 10.9483 211.766 11.0458C212.208 11.1136 212.279 10.9857 212.383 10.9865C212.5 10.9881 214.974 11.1718 212.788 10.8882ZM169.522 10.5567C170.104 10.5287 170.808 10.5759 171.416 10.5799C171.168 10.6323 169.769 10.6324 169.522 10.5567ZM85.2483 9.63762C85.1074 9.60014 81.258 9.53752 83.4437 9.67153C83.5712 9.67914 85.6764 9.75114 85.2483 9.63762ZM248.055 11.3635C247.94 11.3613 247.807 11.3556 247.653 11.3452C247.806 11.3503 247.939 11.3577 248.055 11.3635ZM237.681 11.2397C237.892 11.1772 236.833 11.1486 236.52 11.1797C236.422 11.2578 237.652 11.2485 237.681 11.2397ZM171.464 10.4901C171.815 10.4568 172.451 10.5031 172.886 10.5034C172.812 10.5628 171.615 10.5529 171.464 10.4901ZM146.824 10.1602C147.521 10.2034 148.378 10.1961 148.392 10.1226C148.407 10.1342 148.44 10.1468 148.496 10.1597C148.553 10.1725 149.3 10.1462 149.624 10.1747C151.564 10.3447 142.125 10.1827 147.598 10.0329C147.34 10.0754 147.082 10.1178 146.824 10.1602ZM114.525 9.79587C114.131 9.70202 113.022 9.80256 113.309 9.84092C113.509 9.86723 114.92 9.89033 114.525 9.79587ZM129.743 9.90465C129.625 9.8874 128.543 9.93867 128.515 9.98559C129.136 10.0419 130.281 9.98471 129.743 9.90465ZM111.486 9.65855C111.238 9.64238 110.92 9.78356 110.949 9.79017C111.201 9.84562 111.902 9.74346 111.486 9.65855ZM246.167 10.954C245.798 10.9087 244.62 11.0008 244.362 11.0935C244.315 11.0745 244.187 11.0491 243.951 11.0177C243.952 11.0177 243.953 11.0177 243.953 11.0177C243.636 10.9758 234.121 10.8324 240.501 11.0842C240.701 11.0922 240.429 11.0036 241.242 11.0273C241.296 11.029 241.322 11.0992 241.488 11.1044C241.87 11.1159 243.903 11.1815 244.313 11.1296C244.316 11.1426 244.342 11.1552 244.398 11.1671C244.899 11.2733 246.453 10.9889 246.167 10.954ZM131.888 9.91465C131.67 9.88641 130.981 9.9037 130.909 9.96467C131.25 9.99856 132.392 9.98049 131.888 9.91465ZM85.1316 9.38306C84.6888 9.32757 83.5641 9.41054 83.9032 9.4646C84.1111 9.49786 85.6423 9.44679 85.1316 9.38306ZM124.987 9.8742C127.529 9.97422 125.594 9.87476 125.985 9.78837C125.652 9.81698 125.32 9.84559 124.987 9.8742ZM257.931 11.3129C257.526 11.2878 258.004 11.1142 258.45 11.2159C258.589 11.2482 258.158 11.3266 257.931 11.3129ZM276.238 11.4521C275.893 11.29 277.582 11.4011 276.923 11.5027C276.892 11.5061 276.262 11.4584 276.238 11.4521ZM263.447 11.2513C263.17 11.3563 262.991 11.3672 262.216 11.3323C263.364 11.3141 262.301 11.2074 263.447 11.2513ZM148.385 10.1109C148.389 10.1153 148.393 10.1186 148.392 10.1226C148.387 10.1186 148.385 10.1148 148.385 10.1109ZM109.096 9.66119C108.779 9.56644 107.886 9.56368 108.151 9.65847C108.177 9.66726 108.965 9.72731 109.096 9.66119ZM244.362 11.0935C244.405 11.1103 244.383 11.1207 244.313 11.1296C244.309 11.1173 244.328 11.106 244.362 11.0935ZM113.886 9.63768C113.853 9.70551 115.211 9.74646 115.265 9.73903C116.045 9.62911 114.446 9.63954 113.886 9.63768ZM76.1566 9.19175C76.0865 9.19811 76.5362 9.37888 76.8137 9.31288C77.0286 9.26167 76.4191 9.16746 76.1566 9.19175ZM266.08 11.2354C266.509 11.2401 267.115 11.2465 267.225 11.3312C266.938 11.3153 266.07 11.2966 266.08 11.2354ZM275.577 11.3303C275.068 11.4232 273.908 11.4106 273.167 11.3865C273.155 11.257 275.1 11.3557 275.577 11.3303ZM247.333 11.0146C247.298 11.009 246.22 10.9589 246.366 11.047C246.58 11.1763 247.636 11.0649 247.333 11.0146ZM78.249 9.3074C78.7317 9.25291 77.6242 9.05787 77.1141 9.194C76.8521 9.2637 78.1676 9.31652 78.249 9.3074ZM106.312 9.51194C105.675 9.55527 107.251 9.66129 107.472 9.57311C107.179 9.56273 106.538 9.4966 106.312 9.51194ZM127.958 9.65065C125.956 9.36824 127.043 9.85615 127.399 9.81806C127.449 9.81262 128.007 9.65732 127.958 9.65065ZM13.2579 8.49453C12.9738 8.52779 14.0304 8.67046 14.1682 8.5854C14.2534 8.53216 13.4397 8.47334 13.2579 8.49453ZM158.143 10.1415C158.058 10.1414 157.974 10.1414 157.891 10.1412C157.953 10.1376 158.035 10.1371 158.143 10.1415ZM100.541 9.10078C101.948 9.48442 101.803 9.19873 101.926 9.20158C102.191 9.20837 102.805 9.31459 103.305 9.30354C102.733 9.33896 102.16 9.37438 101.588 9.4098C102.039 9.44122 105.963 9.61867 106.046 9.55977C106.164 9.4759 104.929 9.48947 104.893 9.48158C104.841 9.47035 104.651 9.23164 104.537 9.22142C104.348 9.20503 101.066 9.16521 100.541 9.10078ZM123.765 9.64695C124.087 9.67851 124.178 9.77325 124.328 9.75243C124.379 9.74531 124.388 9.65596 124.563 9.63468C124.297 9.63877 124.031 9.64286 123.765 9.64695ZM98.0106 9.40531C97.6123 9.29178 99.4029 9.35233 99.4602 9.36519C99.7658 9.44252 98.3361 9.49806 98.0106 9.40531ZM113.209 9.55113C113.144 9.54405 111.769 9.4953 111.779 9.55606C112.142 9.60616 113.981 9.63919 113.209 9.55113ZM124.778 9.63086C125.261 9.64643 126.174 9.74621 126.07 9.61043C126.07 9.61042 126.069 9.61041 126.068 9.61041C125.638 9.61722 125.208 9.62404 124.778 9.63086ZM79.9022 9.04054C79.009 8.81653 79.4303 9.09206 80.2225 9.16969C80.4638 9.07595 80.0486 9.077 79.9022 9.04054ZM77.0381 8.85014C76.7894 8.80889 74.2216 8.82387 74.6122 8.94153C74.751 8.98346 76.2284 8.89716 76.2963 8.90573C76.3992 8.91846 75.927 9.039 76.7146 9.0225C76.669 8.97946 77.1233 8.86394 77.0381 8.85014ZM79.1625 8.89532C78.2743 8.72274 78.0712 9.02146 78.7404 9.0294C79.0019 9.03271 79.2892 8.92021 79.1625 8.89532ZM82.7972 8.95963C82.4772 8.92769 81.6248 8.877 81.0359 8.9708C81.8225 8.98771 82.6091 9.00463 83.3958 9.02154C83.4871 8.96583 83.077 8.98768 82.795 8.9596C82.7957 8.95961 82.7964 8.95962 82.7972 8.95963ZM280.933 10.6164C280.227 10.5235 281.856 10.5082 281.925 10.5299C282.129 10.6016 281.249 10.6578 280.933 10.6164ZM7.76412 5.70268C7.56802 5.66658 7.44077 5.55332 7.00772 5.60734C7.44181 5.69457 7.87589 5.78179 8.30997 5.86902C8.65 5.68335 7.97846 5.74247 7.76412 5.70268ZM6.11052 4.99349C6.17202 4.98956 5.83948 4.69496 6.63119 4.8977C7.16611 5.0346 4.24823 5.13142 3.72314 4.99678C4.30549 4.94301 5.58123 5.02523 6.11052 4.99349ZM1.0152 3.6794C0.981819 3.65583 2.09024 3.63358 2.21832 3.6513C2.89085 3.74471 1.19582 3.80568 1.0152 3.6794ZM4.54952 3.77255C4.03046 3.7105 5.18205 3.68632 5.52479 3.72249C5.55749 3.77701 4.62971 3.78163 4.54952 3.77255ZM273.818 6.32518C273.258 6.12141 272.75 6.54185 273.616 6.46526C273.657 6.46167 273.842 6.33512 273.818 6.32518ZM2.1016 3.39735C2.62066 3.45939 1.46907 3.48358 1.12633 3.44741C1.095 3.39295 2.02257 3.38824 2.1016 3.39735ZM273.427 5.84979C272.682 5.69952 272.94 6.18 273.033 6.20024C273.416 6.28035 274.736 6.10689 275.006 6.06314C273.032 6.11384 273.778 5.9206 273.427 5.84979ZM269.979 6.1C269.286 6.1436 271.056 6.2599 271.395 6.13032C271.05 6.13303 270.177 6.08737 269.979 6.1ZM265.776 5.90207C265.404 5.881 264.296 5.82825 264.109 5.90144C264.516 5.89216 265.618 5.97774 265.776 5.90207ZM264.935 5.66789C264.354 5.55956 264.211 5.85564 264.883 5.77416C264.909 5.771 264.956 5.67379 264.935 5.66789ZM261.663 5.52564C261.282 5.40324 260.843 5.68678 261.462 5.70113C261.645 5.70487 261.703 5.53964 261.663 5.52564ZM272.498 5.32594C271.951 5.2693 271.244 5.46818 272.412 5.50326C272.001 5.53043 271.591 5.5576 271.18 5.58478C272.709 5.71673 272.599 5.42933 273.039 5.44584C273.652 5.46918 273.601 5.70484 273.477 5.77768C273.982 5.63835 276.12 5.65878 277.356 5.64437C276.271 5.5721 274.509 5.44808 273.438 5.39821C273.132 5.38381 272.835 5.44542 272.574 5.4354C272.156 5.41899 272.528 5.32969 272.5 5.32596C272.499 5.32595 272.498 5.32594 272.498 5.32594ZM257.36 5.47559C256.238 5.3296 256.945 5.62657 257.58 5.58171C257.607 5.57802 257.388 5.47917 257.36 5.47559ZM0.622124 2.50201C2.12091 2.63894 1.02884 2.78768 4.16954 2.5776C2.84931 2.73593 4.09531 2.70077 3.83722 2.76756C3.63019 2.82037 2.85714 2.76659 3.3056 2.88215C2.71586 2.75529 0.149575 2.76134 0.0353897 2.74054C0.0364654 2.74056 0.0375412 2.74057 0.0386169 2.74058C-0.0299657 2.72825 0.143862 2.45845 0.622124 2.50201ZM265.779 5.1452C265.408 4.79004 265.255 5.34586 264.522 5.04698C263.537 5.4592 267.229 5.07585 267.672 5.43758C263.668 5.3535 270.314 5.81946 267.525 5.25533C269.826 5.47379 268.28 5.19718 268.636 5.13287C269.017 5.06438 270.319 5.15707 270.254 5.02556C270.254 5.02555 270.253 5.02554 270.252 5.02554C269.455 5.02621 268.658 5.02689 267.862 5.02757C268.638 5.31803 267.011 5.2161 266.461 4.98032C266.234 5.03528 266.006 5.09024 265.779 5.1452ZM270.285 5.45806C270.207 5.45076 268.473 5.47187 268.585 5.52969C268.816 5.56828 271.276 5.55113 270.285 5.45806ZM277.913 5.47755C277.291 5.47024 276.329 5.40496 275.989 5.50775C276.611 5.51508 277.573 5.5804 277.913 5.47755ZM245.872 5.11655C245.078 5.19542 247.52 5.24726 246.814 5.13634C246.78 5.1311 245.911 5.11289 245.872 5.11655ZM263.974 5.1791C263.169 5.0632 263.546 5.40886 264.145 5.3262C264.179 5.32132 264.011 5.18439 263.974 5.1791ZM1.83816 2.47344C1.89299 2.39032 4.06884 2.47226 4.45465 2.47564C4.23463 2.5511 1.77526 2.56873 1.83816 2.47344ZM279.011 5.1761C277.777 4.86199 276.093 5.19171 275.909 5.18215C275.725 5.17247 276.014 5.04397 275.972 5.04C275.877 5.03161 273.926 5.02189 273.832 5.03004C273.764 5.03646 274.115 5.22508 273.712 5.27903C274.498 5.18235 278.065 5.28601 278.25 5.26749C278.393 5.25266 277.315 5.04703 279.009 5.17607C279.01 5.17608 279.011 5.17609 279.011 5.1761ZM275.449 5.13697C275.935 5.21965 274.568 5.21481 274.238 5.18269C273.503 5.11088 275.386 5.12713 275.449 5.13697ZM272.162 5.03059C272.006 5.01155 270.597 4.98077 270.477 5.06577C271.142 5.18477 272.516 5.07486 272.162 5.03059ZM256.486 4.87542C256.12 4.88258 255.114 4.80559 255.056 4.88035C255.422 4.87326 256.428 4.9502 256.486 4.87542ZM9.27105 1.89449C8.66388 1.82495 10.0724 1.81416 10.483 1.84879C10.5047 1.89931 9.32274 1.90046 9.27105 1.89449ZM263.845 4.45684C263.629 4.43161 259.208 4.44179 258.588 4.4705C259.194 4.53396 263.574 4.58494 263.773 4.55923C263.831 4.55152 263.873 4.46074 263.845 4.45684ZM273.403 4.52373C273.81 4.41703 274.073 4.55298 274.124 4.5552C274.625 4.57752 275.664 4.56354 275.435 4.66804C274.551 4.61549 272.594 4.7356 273.403 4.52373ZM256.177 4.36977C254.676 4.395 257.557 4.54262 257.18 4.42256C257.156 4.41529 256.332 4.3671 256.177 4.36977ZM264.339 4.42974C264.671 4.34356 269.091 4.46795 269.801 4.47564C269.163 4.63432 268.652 4.5032 267.798 4.50256C267.568 4.50258 267.629 4.57206 267.604 4.57191C267.205 4.57085 267.504 4.49453 267.258 4.49071C267.103 4.48851 263.872 4.55117 264.339 4.42974ZM273.635 4.44929C273.883 4.38828 276.644 4.39052 276.755 4.40861C277.584 4.54323 273.85 4.47372 273.635 4.44929ZM263.935 4.27834C264.413 4.09111 266.607 4.24324 265.103 4.32311C264.959 4.33031 264.353 4.24049 263.935 4.27834ZM256.339 4.18837C256.266 4.18193 254.702 4.12686 254.673 4.18774C254.899 4.21392 257.179 4.25951 256.339 4.18837ZM257.153 3.9901C257.115 3.99116 257.481 4.1129 256.747 4.09016C256.686 4.08811 256.573 3.95432 255.651 3.99304C255.464 4.00105 255.173 4.08566 255.194 4.09134C256.152 4.30961 259.048 3.9419 257.153 3.9901ZM273.687 4.34241C273.539 4.28486 273.9 4.12259 274.222 4.21014C274.361 4.24794 274.101 4.34486 273.687 4.34241ZM251.379 4.08188C252.289 3.99083 249.434 3.94141 249.288 3.96564C249.379 4.02936 251.288 4.09075 251.379 4.08188ZM10.7025 1.13206C10.7018 1.13205 10.7011 1.13204 10.7004 1.13204C11.4652 1.163 10.9904 1.24175 11.0262 1.24477C12.6546 1.38518 12.2244 1.19079 12.4795 1.17111C13.0264 1.12848 12.9359 1.35834 13.8587 1.27246C12.3335 1.39756 13.7211 1.35307 13.7634 1.43564C13.9306 1.77255 11.7364 1.25716 10.976 1.31931C10.87 1.32791 11.6504 1.44317 11.3789 1.47071C10.4961 1.55991 7.76766 1.01355 10.7025 1.13206ZM274.472 4.19815C274.828 4.1035 277.519 4.22761 276.804 4.3011C276.69 4.31288 273.949 4.33606 274.472 4.19815ZM148.708 2.71496C149.356 2.63666 147.857 2.52058 147.579 2.58391C147.44 2.61548 148.423 2.74932 148.708 2.71496ZM138.197 2.23873C137.428 2.24784 136.614 2.59443 137.571 2.54948C137.673 2.54454 138.285 2.28894 138.197 2.23873ZM188.682 2.95832C187.881 2.82284 187.926 3.0592 188.516 3.06214C188.724 3.06322 188.708 2.9626 188.682 2.95832ZM158.041 2.66286C157.96 2.65377 157.032 2.65896 157.065 2.71353C157.408 2.7497 158.56 2.7249 158.041 2.66286ZM188.938 2.92746C188.461 2.9649 189.279 3.14421 189.862 2.98369C189.567 2.99422 188.987 2.92364 188.938 2.92746ZM262.282 3.73946C261.882 3.83207 260.755 3.79081 260.107 3.80056C260.038 3.67434 261.819 3.75728 262.282 3.73946ZM141.46 2.41627C140.731 2.49696 142.29 2.58595 142.148 2.46754C142.128 2.46098 141.488 2.41281 141.46 2.41627ZM214.585 3.18748C214.055 3.2567 215.734 3.37523 215.273 3.23875C215.25 3.23315 214.614 3.18363 214.585 3.18748ZM221.92 3.30885C221.519 3.27934 219.807 3.2689 220.472 3.349C220.576 3.36133 221.889 3.37709 221.92 3.30885ZM12.5256 1.08126C12.3107 0.950065 13.5657 0.994101 13.7452 1.01854C13.8157 1.02866 12.8059 1.25195 12.5256 1.08126ZM183.469 2.88271C183.053 2.89441 181.976 2.85231 181.785 2.91791C182.294 2.90932 183.604 3.01886 183.469 2.88271ZM144.778 2.45097C144.146 2.30416 143.063 2.30647 143.329 2.49231C144.525 2.49278 143.183 2.32626 144.778 2.45097ZM191.615 2.80517C191.282 2.79094 191.025 2.96397 191.062 2.97265C191.422 3.05526 191.945 2.87707 191.615 2.80517ZM166.616 2.68389C166.598 2.60858 165.529 2.63131 165.671 2.68117C165.718 2.69789 166.631 2.74484 166.616 2.68389ZM248.298 3.54796C247.809 3.47421 249.304 3.42308 249.745 3.50781C249.959 3.62541 248.359 3.55649 248.298 3.54796ZM200.852 2.94738C200.903 2.83646 199.233 2.88172 199.89 2.9811C200.054 3.00596 200.834 2.98447 200.852 2.94738ZM216.831 2.9837C215.71 3.1047 220.41 3.24907 219.177 3.0703C219.089 3.05756 216.929 2.97351 216.831 2.9837ZM224.508 3.14838C224.315 3.13168 224.415 2.75818 225.213 2.91111C225.318 2.93095 224.826 3.02474 224.911 3.04829C224.962 3.06174 226.699 3.13283 226.779 3.12493C226.866 3.11592 226.765 2.99481 226.853 2.98227C226.952 2.96827 228.02 3.0851 228.581 3.09221C229.637 3.10542 229.752 3.00672 229.838 3.00731C230.091 3.00934 230.514 3.08479 231.025 3.09014C233.603 3.11676 237.546 3.07401 239.587 3.30757C237.769 3.20317 236.036 3.27498 234.226 3.28351C234.758 3.08059 231.562 3.41588 233.432 3.19509C232.572 3.23815 225.141 3.20084 224.51 3.1484C224.509 3.1484 224.509 3.14839 224.508 3.14838ZM135.164 2.10147C135.638 1.97862 133.214 1.9816 133.006 2.12735C133.326 2.15128 135.105 2.11534 135.164 2.10147ZM146.348 1.90853C146.574 1.88886 146.79 1.64118 147.969 1.7805C147.97 1.78051 147.971 1.78052 147.972 1.78053C148.317 1.82122 147.923 1.87794 147.986 1.90032C148.009 1.90943 149.084 2.04521 148.19 2.0557C146.826 2.07188 148.063 1.86838 147.337 1.85801C147.248 1.85686 145.871 1.97752 145.95 2.00807C145.959 2.01162 146.373 1.9874 146.441 2.00047C146.699 2.04962 146.572 2.12634 146.609 2.13044C146.728 2.14122 148.904 2.03139 149.22 2.15089C149.322 2.18943 145.75 2.23784 145.611 2.21689C145.524 2.20368 145.563 1.98741 145.472 1.96514C145.425 1.95402 143.988 2.01993 143.802 1.99803C143.748 1.9917 143.707 1.98505 143.676 1.9796C143.893 2.04895 142.592 2.03028 142.633 1.95508C142.656 1.92559 143.551 1.95232 143.583 1.95786C143.597 1.96021 143.609 1.96337 143.621 1.96558C143.436 1.88192 146.467 1.91785 145.814 1.78931C146.693 1.73206 145.687 1.96633 146.348 1.90853ZM150.573 1.8198C150.482 1.84162 150.391 1.86344 150.3 1.88526C151.839 1.84585 153.613 1.97443 155.385 1.99246C155.835 1.9972 155.319 1.85234 155.908 1.89669C156.379 1.93223 156.901 2.06705 156.644 2.09314C156.581 2.09966 155.621 2.00525 155.139 2.00877C153.719 2.01924 154.076 2.14256 153.993 2.14491C153.902 2.14733 153.008 2.05377 152.52 2.05232C151.293 2.04894 150.731 2.11635 149.055 2.00265C150.024 1.93418 149.496 1.75744 150.573 1.8198ZM207.905 2.68425C207.964 2.60965 208.97 2.6871 209.336 2.67994C209.277 2.75473 208.271 2.67709 207.905 2.68425ZM57.9078 0.990872C57.5973 1.11102 59.9143 1.16623 59.3046 1.05701C59.1698 1.03277 58.1989 0.994847 57.9078 0.990872ZM68.317 1.17669C68.6274 1.14586 67.3801 1.04371 67.3814 1.13927C67.3829 1.16992 68.277 1.1807 68.317 1.17669ZM170.455 2.15278C170.514 2.14954 171.366 2.1861 171.393 2.19266C171.956 2.32974 169.15 2.22413 170.455 2.15278ZM80.9737 1.15934C79.8924 1.22875 83.1441 1.29842 82.1515 1.18469C82.1021 1.17914 81.0257 1.15596 80.9737 1.15934ZM85.4942 1.18485C85.2352 1.18643 84.0855 1.13402 84.0699 1.17153C84.0463 1.23205 85.3624 1.28758 85.4942 1.18485ZM191.845 2.34126C191.721 2.20085 193.237 2.32231 193.764 2.31041C193.888 2.45092 192.372 2.3293 191.845 2.34126ZM182.273 2.13688C188.668 2.09526 187.255 2.37742 181.891 2.20058C181.884 2.11127 181.869 2.13949 182.273 2.13688ZM190.46 2.24046C190.227 2.32709 189.501 2.29294 189.01 2.28059C189.099 2.21958 190.106 2.25271 190.46 2.24046ZM55.1505 0.770481C55.5527 0.662194 57.327 0.819844 57.0108 0.86291C56.9372 0.872154 55.0026 0.830811 55.1505 0.770481ZM170.992 2.03946C170.845 1.90262 172.764 1.97822 172.911 2.00982C173.502 2.13695 171.148 2.01126 170.992 2.03946ZM200.921 2.31879C201.261 2.21645 202.223 2.28118 202.843 2.28918C202.56 2.37677 201.446 2.32628 200.921 2.31879ZM196.451 2.18822C196.49 2.18457 197.353 2.20332 197.392 2.20861C198.099 2.31962 195.656 2.26712 196.451 2.18822ZM9.65267 0.103339C9.68148 0.100231 10.3355 0.113945 10.3583 0.11817C10.941 0.2261 8.97805 0.18443 9.65267 0.103339Z" fill="#E7E7E7"/>
</svg>
