<svg width="74" height="71" viewBox="0 0 74 71" fill="none" xmlns="http://www.w3.org/2000/svg">
<path d="M60.456 69.608C60.392 69.992 60.008 70.088 59.304 69.896C58.664 69.768 58.088 69.32 57.576 68.552C57.064 67.336 56.808 66.216 56.808 65.192C56.808 64.168 56.84 62.632 56.904 60.584C57.288 58.344 57.8 55.432 58.44 51.848C59.144 48.2 59.944 44.136 60.84 39.656C61.8 35.112 62.824 30.376 63.912 25.448C64.68 22.888 65.288 20.552 65.736 18.44C66.248 16.264 66.632 14.504 66.888 13.16C67.144 11.816 67.272 11.144 67.272 11.144C67.272 10.952 67.08 11.048 66.696 11.432C66.376 11.752 66.056 12.136 65.736 12.584C65.416 13.032 65.288 13.384 65.352 13.64C65.352 13.64 65.128 13.96 64.68 14.6C64.232 15.24 63.656 16.104 62.952 17.192C62.312 17.832 61.544 19.112 60.648 21.032C59.752 22.952 58.76 24.744 57.672 26.408C56.648 28.328 55.56 30.408 54.408 32.648C53.256 34.824 52.232 36.648 51.336 38.12C50.76 38.952 50.184 39.912 49.608 41C49.032 42.088 48.68 42.792 48.552 43.112C48.296 43.816 47.848 44.68 47.208 45.704C46.568 46.664 45.864 47.624 45.096 48.584C44.712 49.16 44.328 49.768 43.944 50.408C43.56 50.984 43.24 51.496 42.984 51.944C42.792 52.328 42.696 52.52 42.696 52.52C42.696 52.712 42.376 53.288 41.736 54.248C41.16 55.208 40.424 56.264 39.528 57.416C38.696 58.568 37.896 59.56 37.128 60.392C34.888 62.76 33.096 64.168 31.752 64.616C30.408 65 28.904 64.424 27.24 62.888C26.408 61.864 25.8 60.712 25.416 59.432C25.032 58.088 24.872 56.456 24.936 54.536C25 52.552 25.224 50.088 25.608 47.144C26.056 44.904 26.472 42.664 26.856 40.424C27.24 38.12 27.592 35.976 27.912 33.992C28.296 31.944 28.616 30.216 28.872 28.808C29.192 27.4 29.448 26.472 29.64 26.024C29.768 24.744 29.736 24.04 29.544 23.912C29.352 23.784 28.968 24.168 28.392 25.064C28.136 25.512 27.464 26.632 26.376 28.424C25.288 30.152 24.008 32.296 22.536 34.856C21.128 37.416 19.72 40.2 18.312 43.208C15.688 48.072 13.512 52.104 11.784 55.304C10.12 58.44 8.776 60.936 7.752 62.792C6.792 64.648 6.088 66.024 5.64 66.92C5.192 67.816 4.872 68.424 4.68 68.744C4.488 69.064 4.328 69.288 4.2 69.416C3.624 69.416 3.016 69.16 2.376 68.648C1.8 68.2 1.192 67.656 0.552 67.016C0.36 66.568 0.264 66.12 0.264 65.672C0.328 65.224 0.552 64.584 0.936 63.752C1.32 62.856 1.896 61.512 2.664 59.72C3.496 58.056 4.264 56.616 4.968 55.4C5.672 54.12 6.216 53.352 6.6 53.096C6.92 52.584 7.208 52.072 7.464 51.56C7.72 51.048 7.88 50.44 7.944 49.736C8.264 49.352 8.744 48.584 9.384 47.432C10.088 46.216 10.792 44.904 11.496 43.496C12.008 42.664 12.648 41.576 13.416 40.232C14.248 38.888 15.112 37.416 16.008 35.816C16.904 34.152 17.704 32.584 18.408 31.112C21.352 26.056 23.848 21.8 25.896 18.344C27.944 14.824 29.48 12.584 30.504 11.624C30.824 11.304 31.144 10.856 31.464 10.28C31.848 9.70399 32.04 9.192 32.04 8.744C32.04 7.4 32.296 6.184 32.808 5.096C33.384 3.944 33.96 3.432 34.536 3.56C35.176 3.56 35.752 3.624 36.264 3.752C36.776 3.88 37.32 4.296 37.896 5C38.408 5.768 38.856 6.536 39.24 7.304C39.624 8.072 39.592 9.608 39.144 11.912C39.144 12.808 39.048 13.832 38.856 14.984C38.664 16.072 38.472 17.096 38.28 18.056C38.152 18.952 38.056 19.656 37.992 20.168C37.16 22.664 36.392 25.48 35.688 28.616C34.984 31.688 34.344 34.824 33.768 38.024C33.192 41.16 32.712 44.104 32.328 46.856C31.944 49.544 31.688 51.784 31.56 53.576C31.496 55.304 31.56 56.296 31.752 56.552C32.2 56.808 32.584 56.84 32.904 56.648C33.224 56.456 33.768 55.624 34.536 54.152C34.984 53.384 35.592 52.456 36.36 51.368C37.192 50.216 37.992 49.16 38.76 48.2C39.272 47.304 40.072 45.96 41.16 44.168C42.248 42.376 43.624 40.072 45.288 37.256C47.016 34.44 49.064 31.016 51.432 26.984C53.864 22.888 56.616 18.152 59.688 12.776C61.16 10.536 62.536 8.35999 63.816 6.248C65.16 4.072 66.248 2.664 67.08 2.024C67.976 1.192 68.904 0.999996 69.864 1.44799C70.824 1.832 71.656 2.664 72.36 3.944C73.128 5.224 73.544 6.824 73.608 8.744C73.672 9.64 73.544 11.08 73.224 13.064C72.968 15.048 72.552 17.32 71.976 19.88C71.4 22.376 70.664 24.968 69.768 27.656C69.576 28.744 69.256 30.12 68.808 31.784C68.424 33.384 67.976 35.048 67.464 36.776C66.952 38.504 66.44 40.136 65.928 41.672C65.608 43.784 65.224 45.864 64.776 47.912C64.392 49.96 64.264 51.336 64.392 52.04C63.816 53.064 63.432 54.536 63.24 56.456C63.048 58.376 62.952 60.36 62.952 62.408C62.696 64.904 62.504 66.664 62.376 67.688C62.248 68.712 62.024 69.192 61.704 69.128C60.872 68.872 60.456 69.032 60.456 69.608Z" fill="#1801C5"/>
</svg>
